<?xml version="1.0" encoding="UTF-8" standalone="no"?>
<!DOCTYPE svg PUBLIC "-//W3C//DTD SVG 1.1//EN" "http://www.w3.org/Graphics/SVG/1.1/DTD/svg11.dtd">
<svg width="100%" height="100%" viewBox="0 0 100 100" version="1.1" xmlns="http://www.w3.org/2000/svg" xmlns:xlink="http://www.w3.org/1999/xlink" xml:space="preserve" xmlns:serif="http://www.serif.com/" style="fill-rule:evenodd;clip-rule:evenodd;stroke-linejoin:round;stroke-miterlimit:2;">
    <g transform="matrix(1,0,0,1,-122.155,-173)">
        <g id="hearth" transform="matrix(1,0,0,1,122.155,-0.996205)">
            <rect x="0" y="173.996" width="99.957" height="99.957" style="fill:none;"/>
            <g transform="matrix(1,0,0,1,-0.0210486,177.974)">
                <path d="M83.051,22.055C79.481,18.004 74.356,15.664 68.957,15.625C60.262,15.692 52.781,21.84 50,24.446C47.219,21.84 39.742,15.688 31.043,15.625L30.902,15.625C25.555,15.703 20.484,18.039 16.949,22.055C12.492,26.422 10.324,32.621 11.082,38.817C13.582,60.645 47.695,83.172 49.144,84.122C49.664,84.462 50.336,84.462 50.855,84.122C52.304,83.173 86.417,60.645 88.917,38.817C89.675,32.622 87.507,26.422 83.05,22.055L83.051,22.055ZM30.906,25C28.117,25.11 25.508,26.395 23.722,28.539C21.187,30.887 19.949,34.317 20.394,37.743C20.492,38.602 19.879,39.375 19.019,39.473C18.961,39.481 18.902,39.481 18.84,39.481C18.047,39.481 17.383,38.887 17.293,38.098C16.758,33.75 18.304,29.407 21.465,26.379C23.828,23.602 27.262,21.961 30.906,21.875C31.769,21.875 32.469,22.574 32.469,23.438C32.469,24.301 31.769,25 30.906,25L30.906,25Z" style="fill:rgb(13,121,242);fill-rule:nonzero;"/>
            </g>
        </g>
    </g>
</svg>
