<svg width="22" height="22" viewBox="0 0 22 22" fill="none" xmlns="http://www.w3.org/2000/svg">
<path d="M1 6C1 4.67392 1.52678 3.40215 2.46447 2.46447C3.40215 1.52678 4.67392 1 6 1H16C17.3261 1 18.5979 1.52678 19.5355 2.46447C20.4732 3.40215 21 4.67392 21 6V16C21 17.3261 20.4732 18.5979 19.5355 19.5355C18.5979 20.4732 17.3261 21 16 21H6C4.67392 21 3.40215 20.4732 2.46447 19.5355C1.52678 18.5979 1 17.3261 1 16V6Z" stroke="white" stroke-width="2" stroke-linecap="round" stroke-linejoin="round"/>
<path d="M7.25 11C7.25 11.9946 7.64509 12.9484 8.34835 13.6517C9.05161 14.3549 10.0054 14.75 11 14.75C11.9946 14.75 12.9484 14.3549 13.6517 13.6517C14.3549 12.9484 14.75 11.9946 14.75 11C14.75 10.0054 14.3549 9.05161 13.6517 8.34835C12.9484 7.64509 11.9946 7.25 11 7.25C10.0054 7.25 9.05161 7.64509 8.34835 8.34835C7.64509 9.05161 7.25 10.0054 7.25 11Z" stroke="white" stroke-width="2" stroke-linecap="round" stroke-linejoin="round"/>
<path d="M16.625 5.375V5.3875" stroke="white" stroke-width="2" stroke-linecap="round" stroke-linejoin="round"/>
</svg>
