<svg width="26" height="26" viewBox="0 0 26 26" fill="none" xmlns="http://www.w3.org/2000/svg">
<path d="M8 13C8 14.3261 8.52678 15.5979 9.46447 16.5355C10.4021 17.4732 11.6739 18 13 18C14.3261 18 15.5979 17.4732 16.5355 16.5355C17.4732 15.5979 18 14.3261 18 13C18 11.6739 17.4732 10.4021 16.5355 9.46447C15.5979 8.52678 14.3261 8 13 8C11.6739 8 10.4021 8.52678 9.46447 9.46447C8.52678 10.4021 8 11.6739 8 13Z" stroke="white" stroke-width="2" stroke-linecap="round" stroke-linejoin="round"/>
<path d="M18 13V14.875C18 15.7038 18.3292 16.4986 18.9153 17.0847C19.5013 17.6708 20.2962 18 21.125 18C21.9538 18 22.7487 17.6708 23.3347 17.0847C23.9208 16.4986 24.25 15.7038 24.25 14.875V13C24.2531 10.5826 23.4775 8.22854 22.038 6.28648C20.5985 4.34442 18.5718 2.91768 16.258 2.21762C13.9442 1.51755 11.4665 1.5814 9.19179 2.39969C6.91713 3.21799 4.96655 4.74722 3.62901 6.76084C2.29146 8.77446 1.63809 11.1654 1.76569 13.5794C1.89329 15.9934 2.79507 18.3021 4.33744 20.1634C5.87981 22.0248 7.98074 23.3399 10.329 23.9139C12.6772 24.4878 15.1479 24.2901 17.375 23.35" stroke="white" stroke-width="2" stroke-linecap="round" stroke-linejoin="round"/>
</svg>
