<svg width="22" height="22" viewBox="0 0 22 22" fill="none" xmlns="http://www.w3.org/2000/svg">
<path d="M1 3.5C1 2.83696 1.26339 2.20107 1.73223 1.73223C2.20107 1.26339 2.83696 1 3.5 1H18.5C19.163 1 19.7989 1.26339 20.2678 1.73223C20.7366 2.20107 21 2.83696 21 3.5V18.5C21 19.163 20.7366 19.7989 20.2678 20.2678C19.7989 20.7366 19.163 21 18.5 21H3.5C2.83696 21 2.20107 20.7366 1.73223 20.2678C1.26339 19.7989 1 19.163 1 18.5V3.5Z" stroke="white" stroke-width="2" stroke-linecap="round" stroke-linejoin="round"/>
<path d="M6 9.75V16" stroke="white" stroke-width="2" stroke-linecap="round" stroke-linejoin="round"/>
<path d="M6 6V6.0125" stroke="white" stroke-width="2" stroke-linecap="round" stroke-linejoin="round"/>
<path d="M11 16V9.75" stroke="white" stroke-width="2" stroke-linecap="round" stroke-linejoin="round"/>
<path d="M16 16V12.25C16 11.587 15.7366 10.9511 15.2678 10.4822C14.7989 10.0134 14.163 9.75 13.5 9.75C12.837 9.75 12.2011 10.0134 11.7322 10.4822C11.2634 10.9511 11 11.587 11 12.25" stroke="white" stroke-width="2" stroke-linecap="round" stroke-linejoin="round"/>
</svg>
