<svg width="62" height="37" viewBox="0 0 62 37" fill="none" xmlns="http://www.w3.org/2000/svg">
<path d="M17.2143 13.298C17.2143 14.0515 17.2955 14.6624 17.4378 15.1104C17.6003 15.5584 17.8034 16.0472 18.0879 16.5766C18.1895 16.7396 18.2301 16.9025 18.2301 17.045C18.2301 17.2487 18.1082 17.4523 17.8441 17.656L16.5642 18.5113C16.3813 18.6334 16.1985 18.6945 16.0359 18.6945C15.8328 18.6945 15.6296 18.5927 15.4265 18.4094C15.142 18.104 14.8982 17.7781 14.6951 17.4523C14.4919 17.1061 14.2888 16.7192 14.0653 16.2508C12.4806 18.1243 10.4896 19.0611 8.09233 19.0611C6.38577 19.0611 5.02459 18.5724 4.0291 17.5949C3.03361 16.6174 2.5257 15.314 2.5257 13.6849C2.5257 11.9539 3.13519 10.5488 4.37447 9.48982C5.61376 8.43087 7.25937 7.9014 9.35193 7.9014C10.0427 7.9014 10.7537 7.96249 11.5054 8.06431C12.2571 8.16613 13.0292 8.32905 13.8418 8.51233V7.02573C13.8418 5.47803 13.5167 4.39872 12.8869 3.76742C12.2368 3.13612 11.1398 2.83065 9.57541 2.83065C8.86434 2.83065 8.13296 2.91211 7.38126 3.09539C6.62957 3.27867 5.89818 3.50268 5.18712 3.78778C4.86206 3.93033 4.61827 4.01179 4.47605 4.05252C4.33384 4.09325 4.23226 4.11361 4.151 4.11361C3.86657 4.11361 3.72436 3.90997 3.72436 3.48232V2.48446C3.72436 2.15863 3.76499 1.91426 3.86657 1.7717C3.96815 1.62915 4.151 1.4866 4.43542 1.34405C5.14649 0.977492 5.99976 0.672026 6.99526 0.427653C7.99075 0.162915 9.04719 0.0407288 10.1646 0.0407288C12.5822 0.0407288 14.3497 0.590568 15.4874 1.69025C16.6048 2.78993 17.1736 4.45981 17.1736 6.6999V13.298H17.2143ZM8.96592 16.3934C9.63636 16.3934 10.3271 16.2712 11.0585 16.0268C11.7899 15.7824 12.44 15.3344 12.9885 14.7235C13.3136 14.3366 13.5574 13.9089 13.6793 13.4202C13.8012 12.9314 13.8824 12.3408 13.8824 11.6484V10.7931C13.2933 10.6506 12.6635 10.5284 12.0133 10.4469C11.3632 10.3655 10.7334 10.3248 10.1036 10.3248C8.74245 10.3248 7.74695 10.5895 7.07652 11.1393C6.40609 11.6892 6.08103 12.463 6.08103 13.4812C6.08103 14.4384 6.32482 15.1511 6.83273 15.6399C7.32031 16.149 8.03138 16.3934 8.96592 16.3934ZM25.2798 18.5927C24.9141 18.5927 24.6703 18.5316 24.5078 18.3891C24.3453 18.2669 24.203 17.9818 24.0811 17.5949L19.3068 1.85316C19.1849 1.44587 19.124 1.18114 19.124 1.03859C19.124 0.712755 19.2865 0.529475 19.6116 0.529475H21.6026C21.9886 0.529475 22.2527 0.590568 22.3949 0.733119C22.5574 0.855306 22.6793 1.14041 22.8012 1.52733L26.2143 15.0086L29.3837 1.52733C29.4852 1.12004 29.6071 0.855306 29.7697 0.733119C29.9322 0.610933 30.2166 0.529475 30.5823 0.529475H32.2076C32.5936 0.529475 32.8577 0.590568 33.0202 0.733119C33.1828 0.855306 33.325 1.14041 33.4063 1.52733L36.6162 15.1715L40.1309 1.52733C40.2528 1.12004 40.395 0.855306 40.5372 0.733119C40.6997 0.610933 40.9639 0.529475 41.3296 0.529475H43.219C43.544 0.529475 43.7269 0.69239 43.7269 1.03859C43.7269 1.14041 43.7065 1.24223 43.6862 1.36442C43.6659 1.4866 43.6253 1.64952 43.544 1.87353L38.6478 17.6152C38.5259 18.0225 38.3837 18.2873 38.2212 18.4094C38.0587 18.5316 37.7945 18.6131 37.4492 18.6131H35.702C35.316 18.6131 35.0519 18.552 34.8893 18.4094C34.7268 18.2669 34.5846 18.0021 34.5033 17.5949L31.3543 4.45981L28.2256 17.5745C28.1241 17.9818 28.0022 18.2465 27.8396 18.3891C27.6771 18.5316 27.3927 18.5927 27.027 18.5927H25.2798ZM51.386 19.1426C50.3296 19.1426 49.2732 19.0204 48.2574 18.776C47.2416 18.5316 46.4492 18.2669 45.921 17.9614C45.5959 17.7781 45.3725 17.5745 45.2912 17.3912C45.2099 17.2079 45.1693 17.0043 45.1693 16.821V15.7824C45.1693 15.3548 45.3318 15.1511 45.6366 15.1511C45.7585 15.1511 45.8804 15.1715 46.0023 15.2122C46.1242 15.253 46.307 15.3344 46.5102 15.4159C47.2009 15.7213 47.9526 15.9657 48.7449 16.1286C49.5576 16.2915 50.3499 16.373 51.1626 16.373C52.4425 16.373 53.438 16.149 54.1287 15.701C54.8195 15.253 55.1852 14.6013 55.1852 13.7663C55.1852 13.1961 55.0023 12.7278 54.6366 12.3408C54.2709 11.9539 53.5802 11.6077 52.5847 11.2819L49.6389 10.3655C48.1558 9.89711 47.0587 9.20472 46.3883 8.28832C45.7178 7.39229 45.3725 6.39443 45.3725 5.33548C45.3725 4.48017 45.5553 3.72669 45.921 3.07503C46.2867 2.42337 46.7743 1.85316 47.3838 1.40515C47.9932 0.936763 48.684 0.590568 49.4966 0.346195C50.3093 0.101822 51.1626 0 52.0565 0C52.5034 0 52.9707 0.0203644 53.4177 0.0814577C53.8849 0.142551 54.3116 0.224009 54.7382 0.305466C55.1445 0.407288 55.5305 0.509111 55.8962 0.631297C56.2619 0.753484 56.5463 0.87567 56.7495 0.997857C57.0339 1.16077 57.2371 1.32369 57.359 1.50697C57.4809 1.66988 57.5418 1.89389 57.5418 2.17899V3.13612C57.5418 3.56377 57.3793 3.78778 57.0746 3.78778C56.912 3.78778 56.6479 3.70632 56.3026 3.54341C55.1445 3.01393 53.8443 2.7492 52.4019 2.7492C51.2438 2.7492 50.3296 2.93248 49.6998 3.3194C49.07 3.70632 48.7449 4.29689 48.7449 5.13183C48.7449 5.70204 48.9481 6.19079 49.3544 6.57771C49.7608 6.96463 50.5125 7.35156 51.5892 7.69775L54.4741 8.61415C55.9369 9.08253 56.9933 9.73419 57.6231 10.5691C58.2529 11.4041 58.5576 12.3612 58.5576 13.4202C58.5576 14.2958 58.3748 15.09 58.0294 15.7824C57.6637 16.4748 57.1761 17.0858 56.5463 17.5745C55.9165 18.0836 55.1648 18.4502 54.2913 18.7149C53.377 19 52.4222 19.1426 51.386 19.1426Z" fill="#738C88"/>
<path fill-rule="evenodd" clip-rule="evenodd" d="M55.2258 29.0397C48.5418 33.9882 38.8307 36.6152 30.4807 36.6152C18.7786 36.6152 8.23454 32.2776 0.270615 25.0686C-0.359186 24.4984 0.209666 23.7245 0.961364 24.1726C9.57541 29.1822 20.2008 32.2165 31.1918 32.2165C38.6072 32.2165 46.754 30.6688 54.2506 27.492C55.368 26.9829 56.3229 28.2251 55.2258 29.0397Z" fill="#738C88"/>
<path fill-rule="evenodd" clip-rule="evenodd" d="M58.0091 25.8628C57.1558 24.7632 52.3612 25.3334 50.1874 25.5981C49.5373 25.6796 49.4357 25.1094 50.0249 24.6817C53.8443 21.9936 60.122 22.7675 60.8534 23.6635C61.5848 24.5799 60.6502 30.8725 57.0746 33.8864C56.526 34.3548 55.9978 34.1104 56.2416 33.4995C57.0543 31.4834 58.8624 26.9422 58.0091 25.8628Z" fill="#738C88"/>
</svg>
