<svg width="107" height="31" viewBox="0 0 107 31" fill="none" xmlns="http://www.w3.org/2000/svg">
<path fill-rule="evenodd" clip-rule="evenodd" d="M22.8074 5.72132C22.8247 5.87642 26.0309 27.4176 26.0136 27.452L16.8629 29.4166L0 26.2802C0 26.2802 2.16635 9.61596 2.25301 9.03004C2.35699 8.25456 2.37432 8.23733 3.2062 7.97883C3.32752 7.92714 4.3847 7.61695 5.87515 7.15166C6.44706 4.73905 8.28413 0 12.0969 0C12.5822 0 13.1714 0.275727 13.622 0.861645H13.778C15.4244 0.861645 16.343 2.25751 16.8802 3.79124C17.4175 3.61891 17.7468 3.51551 17.7641 3.51551C17.9027 3.48105 18.232 3.42935 18.4053 3.60168C18.596 3.75677 20.1731 5.32497 20.1731 5.32497C20.1731 5.32497 22.4434 5.4973 22.5474 5.4973C22.6514 5.4973 22.79 5.56623 22.8074 5.72132ZM13.1194 2.06795C12.2182 2.46431 11.1264 3.53274 10.5545 5.70409C11.577 5.37666 12.5648 5.08371 13.5007 4.79075V4.61842C13.5007 3.48105 13.3447 2.65387 13.1194 2.06795ZM13.778 10.4948C13.778 10.4948 13.0154 10.0468 11.525 10.064C7.52158 10.064 5.54586 12.7179 5.54586 15.4579C5.54586 18.7322 8.80406 18.8183 8.80406 20.8001C8.80406 21.2826 8.45744 21.9375 7.60823 21.9375C6.32575 21.9375 4.80064 20.6278 4.80064 20.6278L4.02075 23.1783C4.02075 23.1783 5.47654 24.9705 8.38812 24.9705C10.7971 24.9705 12.5822 23.161 12.5822 20.3521C12.5822 16.7848 8.59609 16.1989 8.59609 14.6824C8.59609 14.4067 8.68274 13.2866 10.4678 13.2866C11.6636 13.2866 12.6688 13.8208 12.6688 13.8208L13.778 10.4948ZM12.0103 0.999507C9.27199 0.999507 7.71221 4.58395 7.08831 6.78976C7.83353 6.5485 8.61342 6.32447 9.42797 6.06598C9.96522 3.17085 11.265 1.74052 12.4955 1.17184C12.3569 1.06844 12.1836 0.999507 12.0103 0.999507ZM15.9444 4.0325C15.5804 2.92959 15.0432 1.98178 14.1766 1.87839C14.4019 2.48154 14.5232 3.23978 14.5232 4.17036V4.48056C15.0258 4.30823 15.5284 4.15313 15.9444 4.0325Z" fill="#738C88"/>
<path d="M22.5474 5.46282C22.4434 5.46282 20.1731 5.2905 20.1731 5.2905C20.1731 5.2905 18.596 3.7223 18.4054 3.5672C18.336 3.49827 18.2494 3.46381 18.1801 3.46381L16.9149 29.4166L26.0656 27.452C26.0656 27.452 22.8594 5.87641 22.8421 5.72132C22.7727 5.56622 22.6514 5.49729 22.5474 5.46282Z" fill="#738C88"/>
<path d="M36.6894 16.7504C35.7708 16.2679 35.3029 15.837 35.3029 15.2684C35.3029 14.5446 35.9615 14.0793 36.984 14.0793C38.1798 14.0793 39.237 14.5618 39.237 14.5618L40.0689 12.0286C40.0689 12.0286 39.3063 11.4427 37.0533 11.4427C33.9164 11.4427 31.7327 13.2349 31.7327 15.7509C31.7327 17.1812 32.7553 18.2669 34.1071 19.0424C35.2162 19.6455 35.5975 20.0936 35.5975 20.7484C35.5975 21.4205 35.0429 21.972 34.0204 21.972C32.5126 21.972 31.0742 21.1965 31.0742 21.1965L30.1903 23.7297C30.1903 23.7297 31.5074 24.6086 33.7258 24.6086C36.9493 24.6086 39.289 23.0232 39.289 20.1797C39.2543 18.6288 38.0932 17.5603 36.6894 16.7504ZM49.5488 11.4082C47.9544 11.4082 46.7066 12.1664 45.7534 13.3038L45.7187 13.2866L47.1052 6.11769H43.5177L40.0169 24.3846H43.6044L44.8002 18.1463C45.2681 15.7853 46.4986 14.3205 47.6424 14.3205C48.457 14.3205 48.7689 14.872 48.7689 15.6475C48.7689 16.13 48.7343 16.7504 48.613 17.2329L47.2612 24.3846H50.8486L52.2524 17.0089C52.4084 16.2334 52.5124 15.3028 52.5124 14.6652C52.4951 12.6145 51.4379 11.4082 49.5488 11.4082ZM60.6232 11.4082C56.2905 11.4082 53.4309 15.2856 53.4309 19.611C53.4309 22.3683 55.1467 24.6086 58.3702 24.6086C62.6163 24.6086 65.4759 20.8346 65.4759 16.4057C65.4932 13.838 64.0027 11.4082 60.6232 11.4082ZM58.8555 21.8858C57.625 21.8858 57.1224 20.8518 57.1224 19.5421C57.1224 17.4914 58.1796 14.1655 60.138 14.1655C61.4031 14.1655 61.8364 15.2684 61.8364 16.3196C61.8364 18.5081 60.7445 21.8858 58.8555 21.8858ZM74.6785 11.4082C72.2522 11.4082 70.8831 13.5451 70.8831 13.5451H70.8484L71.0564 11.6322H67.8675C67.7115 12.9247 67.4169 14.9065 67.1396 16.3713L64.6613 29.451H68.2488L69.254 24.1605H69.3406C69.3406 24.1605 70.0859 24.6258 71.4377 24.6258C75.6664 24.6258 78.422 20.3176 78.422 15.9749C78.4047 13.5623 77.3128 11.4082 74.6785 11.4082ZM71.247 21.9203C70.3112 21.9203 69.7566 21.386 69.7566 21.386L70.3458 18.0601C70.7618 15.8198 71.9403 14.355 73.1881 14.355C74.2973 14.355 74.6265 15.3718 74.6265 16.3196C74.6439 18.6288 73.2574 21.9203 71.247 21.9203ZM83.5346 6.29001C82.3907 6.29001 81.4722 7.20336 81.4722 8.35796C81.4722 9.40917 82.1481 10.1502 83.1706 10.1502H83.2053C84.3318 10.1502 85.285 9.39194 85.3023 8.08224C85.3197 7.03103 84.6091 6.29001 83.5346 6.29001ZM78.5086 24.3673H82.0961L84.5224 11.6839H80.9176M93.6731 11.6667H91.1775L91.2988 11.0808C91.5068 9.85722 92.2346 8.78879 93.4478 8.78879C94.089 8.78879 94.5916 8.97834 94.5916 8.97834L95.2849 6.16938C95.2849 6.16938 94.6783 5.85919 93.3265 5.85919C92.0613 5.85919 90.7789 6.22108 89.8083 7.04826C88.5778 8.08224 88.0059 9.5815 87.7286 11.098L87.6247 11.6839H85.9436L85.4063 14.3895H87.0874L85.181 24.3846H88.7685L90.6749 14.3895H93.1532L93.6731 11.6667ZM102.321 11.6839C102.321 11.6839 100.068 17.3191 99.0803 20.4038H99.0457C98.9763 19.4043 98.1618 11.6839 98.1618 11.6839H94.3837L96.55 23.2989C96.5847 23.5574 96.5674 23.7125 96.4634 23.8848C96.0474 24.6948 95.3369 25.4702 94.505 26.0389C93.8291 26.5214 93.0665 26.8489 92.46 27.0557L93.4651 30.0887C94.193 29.9336 95.7181 29.3304 96.9833 28.1413C98.6124 26.6248 100.138 24.2639 101.697 21.0586L106.082 11.6667H102.321V11.6839Z" fill="#738C88"/>
</svg>
