<?xml version="1.0" encoding="UTF-8" standalone="no"?>
<!DOCTYPE svg PUBLIC "-//W3C//DTD SVG 1.1//EN" "http://www.w3.org/Graphics/SVG/1.1/DTD/svg11.dtd">
<svg width="100%" height="100%" viewBox="0 0 485 99" version="1.1" xmlns="http://www.w3.org/2000/svg" xmlns:xlink="http://www.w3.org/1999/xlink" xml:space="preserve" xmlns:serif="http://www.serif.com/" style="fill-rule:evenodd;clip-rule:evenodd;stroke-linejoin:round;stroke-miterlimit:2;">
    <g transform="matrix(1,0,0,1,-320,-766.982)">
        <g transform="matrix(-0.639997,0,0,0.710583,487.868,398.41)">
            <g transform="matrix(-1.33333,-1.63286e-16,1.22465e-16,-1,422.295,1097.19)">
                <path d="M165,480L240,480L240,440L120,440L120,520L165,520L165,480Z" style="fill:rgb(0,183,255);"/>
            </g>
            <g transform="matrix(-1.33333,-1.63286e-16,1.22465e-16,-1,422.295,998.714)">
                <path d="M240,400L195,400L195,440L120,440L120,480L240,480L240,400Z" style="fill:rgb(255,89,126);"/>
            </g>
        </g>
        <g transform="matrix(6.66071,0,0,6.66071,-427.606,-2491.28)">
            <g transform="matrix(1,0,0,1,1.27979,0)">
                <path d="M130.01,497.682L127.501,489.177L130.076,489.177L131.239,494.409L131.305,494.409L132.684,489.177L134.711,489.177L136.089,494.426L136.156,494.426L137.318,489.177L139.893,489.177L137.385,497.682L135.176,497.682L133.73,492.931L133.664,492.931L132.219,497.682L130.01,497.682Z" style="fill-rule:nonzero;"/>
            </g>
            <g transform="matrix(0.965247,0,0,0.97332,5.59241,13.1643)">
                <path d="M148.182,492.366L145.84,492.366C145.824,492.172 145.78,491.996 145.709,491.839C145.639,491.681 145.542,491.544 145.419,491.43C145.295,491.315 145.147,491.226 144.972,491.164C144.798,491.101 144.6,491.07 144.378,491.07C143.991,491.07 143.663,491.164 143.396,491.353C143.129,491.541 142.927,491.811 142.79,492.162C142.653,492.514 142.584,492.936 142.584,493.429C142.584,493.95 142.654,494.385 142.794,494.735C142.934,495.085 143.137,495.348 143.402,495.524C143.668,495.7 143.988,495.788 144.362,495.788C144.575,495.788 144.766,495.761 144.935,495.707C145.104,495.653 145.25,495.575 145.375,495.472C145.5,495.37 145.601,495.246 145.68,495.101C145.759,494.955 145.812,494.791 145.84,494.609L148.182,494.625C148.155,494.985 148.054,495.351 147.879,495.724C147.705,496.096 147.458,496.439 147.138,496.753C146.818,497.068 146.423,497.32 145.952,497.511C145.482,497.702 144.935,497.798 144.312,497.798C143.531,497.798 142.831,497.63 142.213,497.295C141.594,496.96 141.105,496.468 140.747,495.817C140.388,495.166 140.209,494.37 140.209,493.429C140.209,492.482 140.392,491.684 140.757,491.035C141.122,490.386 141.615,489.894 142.235,489.561C142.856,489.227 143.548,489.06 144.312,489.06C144.849,489.06 145.343,489.134 145.794,489.28C146.246,489.427 146.642,489.641 146.982,489.922C147.323,490.203 147.597,490.548 147.804,490.958C148.012,491.368 148.138,491.837 148.182,492.366Z" style="fill-rule:nonzero;"/>
            </g>
            <path d="M149.229,497.682L149.229,489.177L152.9,489.177C153.531,489.177 154.084,489.291 154.557,489.521C155.03,489.751 155.399,490.082 155.662,490.514C155.925,490.946 156.056,491.463 156.056,492.067C156.056,492.676 155.921,493.19 155.651,493.608C155.381,494.026 155.003,494.341 154.517,494.555C154.032,494.768 153.465,494.874 152.817,494.874L150.624,494.874L150.624,493.08L152.352,493.08C152.623,493.08 152.855,493.046 153.047,492.979C153.24,492.911 153.388,492.802 153.492,492.653C153.596,492.503 153.647,492.308 153.647,492.067C153.647,491.823 153.596,491.625 153.492,491.471C153.388,491.317 153.24,491.204 153.047,491.131C152.855,491.057 152.623,491.02 152.352,491.02L151.538,491.02L151.538,497.682L149.229,497.682ZM154.212,493.778L156.338,497.682L153.83,497.682L151.754,493.778L154.212,493.778Z" style="fill-rule:nonzero;"/>
            <path d="M157.036,497.682L157.036,489.177L163.166,489.177L163.166,491.037L159.345,491.037L159.345,492.499L162.85,492.499L162.85,494.359L159.345,494.359L159.345,495.821L163.149,495.821L163.149,497.682L157.036,497.682Z" style="fill-rule:nonzero;"/>
            <g transform="matrix(1,0,0,1,-0.163957,0)">
                <path d="M167.013,496.054L166.521,497.682L164.03,497.682L166.837,489.177L169.993,489.177L172.8,497.682L170.309,497.682L169.817,496.054L167.013,496.054ZM169.296,494.326L168.448,491.519L168.382,491.519L167.534,494.326L169.296,494.326Z"/>
            </g>
            <g transform="matrix(1,0,0,1,-1.37474,0)">
                <path d="M172.385,491.037L172.385,489.177L179.777,489.177L179.777,491.037L177.219,491.037L177.219,497.682L174.943,497.682L174.943,491.037L172.385,491.037Z" style="fill-rule:nonzero;"/>
            </g>
            <g transform="matrix(1,0,0,1,-1.71437,0)">
                <path d="M180.641,497.682L180.641,489.177L186.77,489.177L186.77,491.037L182.95,491.037L182.95,492.499L186.455,492.499L186.455,494.359L182.95,494.359L182.95,495.821L186.754,495.821L186.754,497.682L180.641,497.682Z" style="fill-rule:nonzero;"/>
            </g>
        </g>
        <g transform="matrix(3.2392,0,0,3.2392,17.8412,-747.167)">
            <g transform="matrix(11.6944,0,0,11.6944,127.302,497.682)">
                <path d="M0.439,-0.5C0.437,-0.524 0.428,-0.542 0.412,-0.555C0.397,-0.569 0.373,-0.575 0.341,-0.575C0.321,-0.575 0.304,-0.573 0.291,-0.568C0.278,-0.563 0.269,-0.557 0.262,-0.548C0.256,-0.54 0.253,-0.531 0.253,-0.52C0.252,-0.511 0.254,-0.503 0.258,-0.496C0.261,-0.489 0.267,-0.483 0.275,-0.477C0.283,-0.472 0.294,-0.467 0.306,-0.462C0.319,-0.458 0.334,-0.454 0.351,-0.45L0.411,-0.438C0.451,-0.429 0.485,-0.418 0.514,-0.404C0.542,-0.39 0.566,-0.373 0.584,-0.355C0.602,-0.336 0.616,-0.315 0.624,-0.291C0.633,-0.268 0.638,-0.242 0.638,-0.214C0.638,-0.167 0.626,-0.126 0.602,-0.093C0.578,-0.06 0.544,-0.035 0.501,-0.017C0.457,-0 0.404,0.009 0.342,0.009C0.279,0.009 0.224,-0.001 0.177,-0.02C0.13,-0.038 0.094,-0.067 0.068,-0.106C0.042,-0.145 0.029,-0.195 0.028,-0.256L0.216,-0.256C0.217,-0.233 0.223,-0.215 0.233,-0.2C0.243,-0.184 0.257,-0.173 0.275,-0.165C0.293,-0.157 0.314,-0.153 0.339,-0.153C0.361,-0.153 0.378,-0.156 0.392,-0.161C0.407,-0.166 0.417,-0.174 0.425,-0.183C0.432,-0.192 0.436,-0.203 0.436,-0.214C0.436,-0.226 0.432,-0.235 0.425,-0.244C0.418,-0.252 0.407,-0.26 0.391,-0.267C0.375,-0.273 0.354,-0.28 0.327,-0.286L0.254,-0.301C0.19,-0.315 0.139,-0.338 0.102,-0.371C0.065,-0.404 0.047,-0.449 0.047,-0.506C0.047,-0.552 0.059,-0.592 0.084,-0.627C0.109,-0.662 0.144,-0.689 0.188,-0.708C0.232,-0.728 0.283,-0.737 0.341,-0.737C0.4,-0.737 0.45,-0.727 0.493,-0.708C0.536,-0.688 0.569,-0.66 0.593,-0.625C0.616,-0.589 0.628,-0.548 0.628,-0.5L0.439,-0.5Z" style="fill:rgb(95,94,95);fill-rule:nonzero;"/>
            </g>
            <g transform="matrix(11.6944,0,0,11.6944,135.093,497.682)">
                <path d="M0.751,-0.364C0.751,-0.283 0.736,-0.214 0.704,-0.159C0.673,-0.103 0.63,-0.061 0.577,-0.033C0.523,-0.004 0.464,0.01 0.398,0.01C0.331,0.01 0.272,-0.004 0.218,-0.033C0.165,-0.062 0.122,-0.104 0.091,-0.16C0.06,-0.215 0.044,-0.283 0.044,-0.364C0.044,-0.445 0.06,-0.513 0.091,-0.568C0.122,-0.624 0.165,-0.666 0.218,-0.694C0.272,-0.723 0.331,-0.737 0.398,-0.737C0.464,-0.737 0.523,-0.723 0.577,-0.694C0.63,-0.666 0.673,-0.624 0.704,-0.568C0.736,-0.513 0.751,-0.445 0.751,-0.364ZM0.548,-0.364C0.548,-0.407 0.543,-0.444 0.531,-0.474C0.52,-0.504 0.503,-0.527 0.48,-0.542C0.458,-0.558 0.43,-0.565 0.398,-0.565C0.365,-0.565 0.338,-0.558 0.315,-0.542C0.293,-0.527 0.276,-0.504 0.264,-0.474C0.253,-0.444 0.247,-0.407 0.247,-0.364C0.247,-0.32 0.253,-0.283 0.264,-0.253C0.276,-0.223 0.293,-0.201 0.315,-0.185C0.338,-0.17 0.365,-0.162 0.398,-0.162C0.43,-0.162 0.458,-0.17 0.48,-0.185C0.503,-0.201 0.52,-0.223 0.531,-0.253C0.543,-0.283 0.548,-0.32 0.548,-0.364Z" style="fill:rgb(95,94,95);fill-rule:nonzero;"/>
            </g>
            <g transform="matrix(11.6944,0,0,11.6944,144.395,497.682)">
                <path d="M0.047,-0L0.047,-0.727L0.558,-0.727L0.558,-0.568L0.244,-0.568L0.244,-0.443L0.527,-0.443L0.527,-0.284L0.244,-0.284L0.244,-0L0.047,-0Z" style="fill:rgb(95,94,95);fill-rule:nonzero;"/>
            </g>
            <g transform="matrix(11.6944,0,0,11.6944,151.222,497.682)">
                <path d="M0.027,-0.568L0.027,-0.727L0.659,-0.727L0.659,-0.568L0.44,-0.568L0.44,-0L0.246,-0L0.246,-0.568L0.027,-0.568Z" style="fill:rgb(95,94,95);fill-rule:nonzero;"/>
            </g>
            <g transform="matrix(11.6944,0,0,11.6944,159.245,497.682)">
                <path d="M0.232,-0L0.017,-0.727L0.237,-0.727L0.337,-0.28L0.342,-0.28L0.46,-0.727L0.634,-0.727L0.751,-0.278L0.757,-0.278L0.857,-0.727L1.077,-0.727L0.862,-0L0.673,-0L0.55,-0.406L0.544,-0.406L0.42,-0L0.232,-0Z" style="fill:rgb(95,94,95);fill-rule:nonzero;"/>
            </g>
            <g transform="matrix(11.6944,0,0,11.6944,171.372,497.682)">
                <path d="M0.236,-0L0.023,-0L0.263,-0.727L0.533,-0.727L0.773,-0L0.56,-0L0.401,-0.527L0.395,-0.527L0.236,-0ZM0.196,-0.287L0.597,-0.287L0.597,-0.139L0.196,-0.139L0.196,-0.287Z" style="fill:rgb(95,94,95);fill-rule:nonzero;"/>
            </g>
            <g transform="matrix(11.6944,0,0,11.6944,180.674,497.682)">
                <path d="M0.047,-0L0.047,-0.727L0.361,-0.727C0.415,-0.727 0.462,-0.717 0.502,-0.698C0.543,-0.678 0.574,-0.65 0.597,-0.613C0.619,-0.576 0.631,-0.532 0.631,-0.48C0.631,-0.428 0.619,-0.384 0.596,-0.348C0.573,-0.313 0.541,-0.286 0.499,-0.267C0.458,-0.249 0.409,-0.24 0.354,-0.24L0.166,-0.24L0.166,-0.393L0.314,-0.393C0.337,-0.393 0.357,-0.396 0.373,-0.402C0.39,-0.408 0.403,-0.417 0.411,-0.43C0.42,-0.443 0.425,-0.46 0.425,-0.48C0.425,-0.501 0.42,-0.518 0.411,-0.531C0.403,-0.544 0.39,-0.554 0.373,-0.56C0.357,-0.566 0.337,-0.57 0.314,-0.57L0.244,-0.57L0.244,-0L0.047,-0ZM0.473,-0.334L0.655,-0L0.44,-0L0.263,-0.334L0.473,-0.334Z" style="fill:rgb(95,94,95);fill-rule:nonzero;"/>
            </g>
            <g transform="matrix(11.6944,0,0,11.6944,188.481,497.682)">
                <path d="M0.047,-0L0.047,-0.727L0.571,-0.727L0.571,-0.568L0.244,-0.568L0.244,-0.443L0.544,-0.443L0.544,-0.284L0.244,-0.284L0.244,-0.159L0.57,-0.159L0.57,-0L0.047,-0Z" style="fill:rgb(95,94,95);fill-rule:nonzero;"/>
            </g>
            <g transform="matrix(11.6944,0,0,11.6944,195.757,497.682)">
            </g>
        </g>
    </g>
</svg>
