<?xml version="1.0" encoding="UTF-8" standalone="no"?>
<!DOCTYPE svg PUBLIC "-//W3C//DTD SVG 1.1//EN" "http://www.w3.org/Graphics/SVG/1.1/DTD/svg11.dtd">
<svg width="100%" height="100%" viewBox="0 0 892 890" version="1.1" xmlns="http://www.w3.org/2000/svg" xmlns:xlink="http://www.w3.org/1999/xlink" xml:space="preserve" xmlns:serif="http://www.serif.com/" style="fill-rule:evenodd;clip-rule:evenodd;stroke-linejoin:round;stroke-miterlimit:2;">
    <g transform="matrix(1,0,0,1,-2894,-1518.93)">
        <g transform="matrix(1,0,0,1,2740,1362.82)">
            <g transform="matrix(1,0,0,1,88,88.0001)">
                <g transform="matrix(7.14214,-9.71128e-16,-6.55995e-16,-5.9474,-790.125,3574.75)">
                    <path d="M155.695,483.076L244.534,483.076L244.512,440.283L120.059,440L120,515.31L155.695,515.31L155.695,483.076Z" style="fill:rgb(0,183,255);"/>
                </g>
                <g transform="matrix(7.14214,-9.71128e-16,-6.55995e-16,-5.9474,-756.936,2922.86)">
                    <path d="M240,405.363L204.252,405.413L204.271,436.973L115.223,436.973L115.353,480L240,480L240,405.363Z" style="fill:rgb(255,89,126);"/>
                </g>
                <g transform="matrix(8.59832,0,0,8.59832,-3109.58,-4478.54)">
                    <g transform="matrix(12,0,0,12,403.32,595.768)">
                        <path d="M0.439,-0.5C0.437,-0.524 0.428,-0.542 0.412,-0.555C0.397,-0.569 0.373,-0.575 0.341,-0.575C0.321,-0.575 0.304,-0.573 0.291,-0.568C0.278,-0.563 0.269,-0.557 0.262,-0.548C0.256,-0.54 0.253,-0.531 0.253,-0.52C0.252,-0.511 0.254,-0.503 0.258,-0.496C0.261,-0.489 0.267,-0.483 0.275,-0.477C0.283,-0.472 0.294,-0.467 0.306,-0.462C0.319,-0.458 0.334,-0.454 0.351,-0.45L0.411,-0.438C0.451,-0.429 0.485,-0.418 0.514,-0.404C0.542,-0.39 0.566,-0.373 0.584,-0.355C0.602,-0.336 0.616,-0.315 0.624,-0.291C0.633,-0.268 0.638,-0.242 0.638,-0.214C0.638,-0.167 0.626,-0.126 0.602,-0.093C0.578,-0.06 0.544,-0.035 0.501,-0.017C0.457,-0 0.404,0.009 0.342,0.009C0.279,0.009 0.224,-0.001 0.177,-0.02C0.13,-0.038 0.094,-0.067 0.068,-0.106C0.042,-0.145 0.029,-0.195 0.028,-0.256L0.216,-0.256C0.217,-0.233 0.223,-0.215 0.233,-0.2C0.243,-0.184 0.257,-0.173 0.275,-0.165C0.293,-0.157 0.314,-0.153 0.339,-0.153C0.361,-0.153 0.378,-0.156 0.392,-0.161C0.407,-0.166 0.417,-0.174 0.425,-0.183C0.432,-0.192 0.436,-0.203 0.436,-0.214C0.436,-0.226 0.432,-0.235 0.425,-0.244C0.418,-0.252 0.407,-0.26 0.391,-0.267C0.375,-0.273 0.354,-0.28 0.327,-0.286L0.254,-0.301C0.19,-0.315 0.139,-0.338 0.102,-0.371C0.065,-0.404 0.047,-0.449 0.047,-0.506C0.047,-0.552 0.059,-0.592 0.084,-0.627C0.109,-0.662 0.144,-0.689 0.188,-0.708C0.232,-0.728 0.283,-0.737 0.341,-0.737C0.4,-0.737 0.45,-0.727 0.493,-0.708C0.536,-0.688 0.569,-0.66 0.593,-0.625C0.616,-0.589 0.628,-0.548 0.628,-0.5L0.439,-0.5Z" style="fill:rgb(140,115,124);fill-rule:nonzero;"/>
                    </g>
                    <g transform="matrix(12,0,0,12,411.315,595.768)">
                        <path d="M0.751,-0.364C0.751,-0.283 0.736,-0.214 0.704,-0.159C0.673,-0.103 0.63,-0.061 0.577,-0.033C0.523,-0.004 0.464,0.01 0.398,0.01C0.331,0.01 0.272,-0.004 0.218,-0.033C0.165,-0.062 0.122,-0.104 0.091,-0.16C0.06,-0.215 0.044,-0.283 0.044,-0.364C0.044,-0.445 0.06,-0.513 0.091,-0.568C0.122,-0.624 0.165,-0.666 0.218,-0.694C0.272,-0.723 0.331,-0.737 0.398,-0.737C0.464,-0.737 0.523,-0.723 0.577,-0.694C0.63,-0.666 0.673,-0.624 0.704,-0.568C0.736,-0.513 0.751,-0.445 0.751,-0.364ZM0.548,-0.364C0.548,-0.407 0.543,-0.444 0.531,-0.474C0.52,-0.504 0.503,-0.527 0.48,-0.542C0.458,-0.558 0.43,-0.565 0.398,-0.565C0.365,-0.565 0.338,-0.558 0.315,-0.542C0.293,-0.527 0.276,-0.504 0.264,-0.474C0.253,-0.444 0.247,-0.407 0.247,-0.364C0.247,-0.32 0.253,-0.283 0.264,-0.253C0.276,-0.223 0.293,-0.201 0.315,-0.185C0.338,-0.17 0.365,-0.162 0.398,-0.162C0.43,-0.162 0.458,-0.17 0.48,-0.185C0.503,-0.201 0.52,-0.223 0.531,-0.253C0.543,-0.283 0.548,-0.32 0.548,-0.364Z" style="fill:rgb(140,115,124);fill-rule:nonzero;"/>
                    </g>
                    <g transform="matrix(12,0,0,12,420.86,595.768)">
                        <path d="M0.047,-0L0.047,-0.727L0.558,-0.727L0.558,-0.568L0.244,-0.568L0.244,-0.443L0.527,-0.443L0.527,-0.284L0.244,-0.284L0.244,-0L0.047,-0Z" style="fill:rgb(140,115,124);fill-rule:nonzero;"/>
                    </g>
                    <g transform="matrix(12,0,0,12,427.866,595.768)">
                        <path d="M0.027,-0.568L0.027,-0.727L0.659,-0.727L0.659,-0.568L0.44,-0.568L0.44,-0L0.246,-0L0.246,-0.568L0.027,-0.568Z" style="fill:rgb(140,115,124);fill-rule:nonzero;"/>
                    </g>
                    <g transform="matrix(12,0,0,12,436.099,595.768)">
                        <path d="M0.232,-0L0.017,-0.727L0.237,-0.727L0.337,-0.28L0.342,-0.28L0.46,-0.727L0.634,-0.727L0.751,-0.278L0.757,-0.278L0.857,-0.727L1.077,-0.727L0.862,-0L0.673,-0L0.55,-0.406L0.544,-0.406L0.42,-0L0.232,-0Z" style="fill:rgb(140,115,124);fill-rule:nonzero;"/>
                    </g>
                    <g transform="matrix(12,0,0,12,448.542,595.768)">
                        <path d="M0.236,-0L0.023,-0L0.263,-0.727L0.533,-0.727L0.773,-0L0.56,-0L0.401,-0.527L0.395,-0.527L0.236,-0ZM0.196,-0.287L0.597,-0.287L0.597,-0.139L0.196,-0.139L0.196,-0.287Z" style="fill:rgb(140,115,124);fill-rule:nonzero;"/>
                    </g>
                    <g transform="matrix(12,0,0,12,458.087,595.768)">
                        <path d="M0.047,-0L0.047,-0.727L0.361,-0.727C0.415,-0.727 0.462,-0.717 0.502,-0.698C0.543,-0.678 0.574,-0.65 0.597,-0.613C0.619,-0.576 0.631,-0.532 0.631,-0.48C0.631,-0.428 0.619,-0.384 0.596,-0.348C0.573,-0.313 0.541,-0.286 0.499,-0.267C0.458,-0.249 0.409,-0.24 0.354,-0.24L0.166,-0.24L0.166,-0.393L0.314,-0.393C0.337,-0.393 0.357,-0.396 0.373,-0.402C0.39,-0.408 0.403,-0.417 0.411,-0.43C0.42,-0.443 0.425,-0.46 0.425,-0.48C0.425,-0.501 0.42,-0.518 0.411,-0.531C0.403,-0.544 0.39,-0.554 0.373,-0.56C0.357,-0.566 0.337,-0.57 0.314,-0.57L0.244,-0.57L0.244,-0L0.047,-0ZM0.473,-0.334L0.655,-0L0.44,-0L0.263,-0.334L0.473,-0.334Z" style="fill:rgb(140,115,124);fill-rule:nonzero;"/>
                    </g>
                    <g transform="matrix(12,0,0,12,466.099,595.768)">
                        <path d="M0.047,-0L0.047,-0.727L0.571,-0.727L0.571,-0.568L0.244,-0.568L0.244,-0.443L0.544,-0.443L0.544,-0.284L0.244,-0.284L0.244,-0.159L0.57,-0.159L0.57,-0L0.047,-0Z" style="fill:rgb(140,115,124);fill-rule:nonzero;"/>
                    </g>
                    <g transform="matrix(12,0,0,12,473.565,595.768)">
                    </g>
                </g>
                <g transform="matrix(9.79687,0,0,9.79687,-3887.28,-5375.46)">
                    <g transform="matrix(12,0,0,12,403.32,595.768)">
                        <path d="M0.232,-0L0.017,-0.727L0.237,-0.727L0.337,-0.28L0.342,-0.28L0.46,-0.727L0.634,-0.727L0.751,-0.278L0.757,-0.278L0.857,-0.727L1.077,-0.727L0.862,-0L0.673,-0L0.55,-0.406L0.544,-0.406L0.42,-0L0.232,-0Z" style="fill-rule:nonzero;"/>
                    </g>
                    <g transform="matrix(12,0,0,12,416.036,595.768)">
                        <path d="M0.726,-0.455L0.526,-0.455C0.524,-0.471 0.52,-0.486 0.514,-0.5C0.508,-0.513 0.5,-0.525 0.49,-0.535C0.479,-0.544 0.466,-0.552 0.451,-0.557C0.436,-0.563 0.42,-0.565 0.401,-0.565C0.367,-0.565 0.339,-0.557 0.317,-0.541C0.294,-0.525 0.276,-0.502 0.265,-0.472C0.253,-0.442 0.247,-0.406 0.247,-0.364C0.247,-0.319 0.253,-0.282 0.265,-0.252C0.277,-0.222 0.294,-0.2 0.317,-0.184C0.34,-0.169 0.367,-0.162 0.399,-0.162C0.417,-0.162 0.434,-0.164 0.448,-0.169C0.463,-0.173 0.475,-0.18 0.486,-0.189C0.496,-0.198 0.505,-0.208 0.512,-0.221C0.519,-0.233 0.523,-0.247 0.526,-0.263L0.726,-0.261C0.723,-0.231 0.715,-0.199 0.7,-0.167C0.685,-0.136 0.664,-0.106 0.637,-0.079C0.609,-0.052 0.575,-0.031 0.535,-0.015C0.495,0.002 0.448,0.01 0.395,0.01C0.328,0.01 0.268,-0.004 0.215,-0.033C0.162,-0.062 0.121,-0.104 0.09,-0.159C0.059,-0.215 0.044,-0.283 0.044,-0.364C0.044,-0.445 0.06,-0.513 0.091,-0.568C0.122,-0.624 0.164,-0.666 0.217,-0.694C0.27,-0.723 0.33,-0.737 0.395,-0.737C0.441,-0.737 0.483,-0.731 0.522,-0.718C0.56,-0.706 0.594,-0.688 0.623,-0.664C0.652,-0.64 0.676,-0.61 0.694,-0.575C0.711,-0.54 0.722,-0.5 0.726,-0.455Z" style="fill-rule:nonzero;"/>
                    </g>
                    <g transform="matrix(12,0,0,12,425.258,595.768)">
                        <path d="M0.047,-0L0.047,-0.727L0.361,-0.727C0.415,-0.727 0.462,-0.717 0.502,-0.698C0.543,-0.678 0.574,-0.65 0.597,-0.613C0.619,-0.576 0.631,-0.532 0.631,-0.48C0.631,-0.428 0.619,-0.384 0.596,-0.348C0.573,-0.313 0.541,-0.286 0.499,-0.267C0.458,-0.249 0.409,-0.24 0.354,-0.24L0.166,-0.24L0.166,-0.393L0.314,-0.393C0.337,-0.393 0.357,-0.396 0.373,-0.402C0.39,-0.408 0.403,-0.417 0.411,-0.43C0.42,-0.443 0.425,-0.46 0.425,-0.48C0.425,-0.501 0.42,-0.518 0.411,-0.531C0.403,-0.544 0.39,-0.554 0.373,-0.56C0.357,-0.566 0.337,-0.57 0.314,-0.57L0.244,-0.57L0.244,-0L0.047,-0ZM0.473,-0.334L0.655,-0L0.44,-0L0.263,-0.334L0.473,-0.334Z" style="fill-rule:nonzero;"/>
                    </g>
                    <g transform="matrix(12,0,0,12,433.269,595.768)">
                        <path d="M0.047,-0L0.047,-0.727L0.571,-0.727L0.571,-0.568L0.244,-0.568L0.244,-0.443L0.544,-0.443L0.544,-0.284L0.244,-0.284L0.244,-0.159L0.57,-0.159L0.57,-0L0.047,-0Z" style="fill-rule:nonzero;"/>
                    </g>
                    <g transform="matrix(12,0,0,12,440.735,595.768)">
                        <path d="M0.236,-0L0.023,-0L0.263,-0.727L0.533,-0.727L0.773,-0L0.56,-0L0.401,-0.527L0.395,-0.527L0.236,-0ZM0.196,-0.287L0.597,-0.287L0.597,-0.139L0.196,-0.139L0.196,-0.287Z" style="fill-rule:nonzero;"/>
                    </g>
                    <g transform="matrix(12,0,0,12,449.258,595.768)">
                        <path d="M0.027,-0.568L0.027,-0.727L0.659,-0.727L0.659,-0.568L0.44,-0.568L0.44,-0L0.246,-0L0.246,-0.568L0.027,-0.568Z" style="fill-rule:nonzero;"/>
                    </g>
                    <g transform="matrix(12,0,0,12,457.491,595.768)">
                        <path d="M0.047,-0L0.047,-0.727L0.571,-0.727L0.571,-0.568L0.244,-0.568L0.244,-0.443L0.544,-0.443L0.544,-0.284L0.244,-0.284L0.244,-0.159L0.57,-0.159L0.57,-0L0.047,-0Z" style="fill-rule:nonzero;"/>
                    </g>
                    <g transform="matrix(12,0,0,12,464.957,595.768)">
                    </g>
                </g>
            </g>
        </g>
    </g>
</svg>
