<?xml version="1.0" encoding="UTF-8" standalone="no"?>
<!DOCTYPE svg PUBLIC "-//W3C//DTD SVG 1.1//EN" "http://www.w3.org/Graphics/SVG/1.1/DTD/svg11.dtd">
<svg width="100%" height="100%" viewBox="0 0 543 153" version="1.1" xmlns="http://www.w3.org/2000/svg" xmlns:xlink="http://www.w3.org/1999/xlink" xml:space="preserve" xmlns:serif="http://www.serif.com/" style="fill-rule:evenodd;clip-rule:evenodd;stroke-linejoin:round;stroke-miterlimit:2;">
    <g transform="matrix(0.838614,0,0,0.838614,-834.125,-574.539)">
        <path d="M1085.35,685.105C1135.4,685.105 1176.05,725.746 1176.05,775.804C1176.05,825.862 1135.4,866.503 1085.35,866.503C1035.29,866.503 994.647,825.862 994.647,775.804C994.647,725.746 1035.29,685.105 1085.35,685.105ZM1014.47,735.414L1042.54,825.821L1063.46,825.821C1066.43,825.821 1068.35,824.31 1069.22,821.288L1082.3,776.389C1082.93,774.355 1083.5,772.335 1084,770.33C1084.49,768.325 1084.94,766.305 1085.35,764.271C1085.75,766.247 1086.22,768.223 1086.74,770.199C1087.26,772.175 1087.82,774.181 1088.4,776.215L1101.3,821.288C1101.77,822.915 1102.4,824.078 1103.22,824.775C1104.03,825.473 1105.02,825.821 1106.18,825.821L1128.15,825.821L1156.23,735.414L1135.65,735.414C1133.91,735.414 1132.35,735.849 1130.99,736.721C1129.62,737.593 1128.79,738.726 1128.5,740.121L1118.91,780.661C1118.15,783.858 1117.44,786.895 1116.78,789.772C1116.11,792.649 1115.54,795.54 1115.08,798.446C1114.32,795.482 1113.52,792.547 1112.68,789.641C1111.84,786.735 1111.01,783.741 1110.19,780.661L1099.38,740.034C1099.03,738.697 1098.18,737.579 1096.81,736.678C1095.44,735.777 1093.8,735.326 1091.88,735.326L1079.85,735.326C1078.11,735.326 1076.57,735.777 1075.23,736.678C1073.9,737.579 1073.05,738.697 1072.7,740.034L1061.37,780.661C1060.5,783.8 1059.61,786.807 1058.71,789.684C1057.81,792.561 1056.95,795.424 1056.14,798.272C1055.67,795.424 1055.15,792.547 1054.57,789.641C1053.99,786.735 1053.35,783.741 1052.65,780.661L1043.59,740.121C1043.3,738.726 1042.45,737.593 1041.06,736.721C1039.66,735.849 1038.01,735.414 1036.09,735.414L1014.47,735.414Z" style="fill:rgb(13,121,242);"/>
    </g>
    <g transform="matrix(1.17245,0,0,1.17245,-411.781,-619.756)">
        <path d="M515.374,579.981C514.791,580.689 514.228,581.252 513.687,581.668C513.145,582.085 512.374,582.293 511.374,582.293C510.416,582.293 509.551,582.064 508.78,581.606C508.009,581.148 507.145,580.637 506.187,580.075C505.228,579.512 504.103,579.002 502.812,578.543C501.52,578.085 499.916,577.856 497.999,577.856C495.624,577.856 493.572,578.293 491.843,579.168C490.114,580.043 488.687,581.293 487.562,582.918C486.437,584.543 485.603,586.533 485.062,588.887C484.52,591.241 484.249,593.898 484.249,596.856C484.249,603.064 485.447,607.835 487.843,611.168C490.239,614.502 493.541,616.168 497.749,616.168C499.999,616.168 501.78,615.887 503.093,615.325C504.405,614.762 505.52,614.137 506.437,613.45C507.353,612.762 508.197,612.127 508.968,611.543C509.739,610.96 510.707,610.668 511.874,610.668C513.416,610.668 514.582,611.231 515.374,612.356L520.999,619.293C518.999,621.585 516.895,623.45 514.687,624.887C512.478,626.325 510.218,627.45 507.905,628.262C505.593,629.075 503.27,629.637 500.937,629.95C498.603,630.262 496.332,630.418 494.124,630.418C490.166,630.418 486.384,629.668 482.78,628.168C479.176,626.668 476.009,624.491 473.28,621.637C470.551,618.783 468.384,615.273 466.78,611.106C465.176,606.939 464.374,602.189 464.374,596.856C464.374,592.189 465.072,587.825 466.468,583.762C467.864,579.7 469.926,576.179 472.655,573.2C475.384,570.22 478.759,567.877 482.78,566.168C486.801,564.46 491.457,563.606 496.749,563.606C501.832,563.606 506.291,564.418 510.124,566.043C513.957,567.668 517.416,570.043 520.499,573.168L515.374,579.981Z" style="fill:rgb(35,31,32);fill-rule:nonzero;"/>
        <g transform="matrix(1,0,0,1,-4.26459,0)">
            <path d="M529.374,629.418L529.374,564.606L540.874,564.606C541.832,564.606 542.634,564.689 543.28,564.856C543.926,565.023 544.468,565.283 544.905,565.637C545.343,565.991 545.676,566.46 545.905,567.043C546.134,567.627 546.332,568.335 546.499,569.168L547.562,575.231C549.937,571.564 552.603,568.668 555.562,566.543C558.52,564.418 561.749,563.356 565.249,563.356C568.207,563.356 570.582,564.064 572.374,565.481L569.874,579.731C569.707,580.606 569.374,581.22 568.874,581.575C568.374,581.929 567.707,582.106 566.874,582.106C566.166,582.106 565.332,582.012 564.374,581.825C563.416,581.637 562.207,581.543 560.749,581.543C555.666,581.543 551.666,584.252 548.749,589.668L548.749,629.418L529.374,629.418Z" style="fill:rgb(35,31,32);fill-rule:nonzero;"/>
        </g>
        <g transform="matrix(1,0,0,1,-9.3821,0)">
            <path d="M608.749,563.606C613.041,563.606 616.968,564.273 620.53,565.606C624.093,566.939 627.155,568.877 629.718,571.418C632.28,573.96 634.28,577.075 635.718,580.762C637.155,584.45 637.874,588.627 637.874,593.293C637.874,594.752 637.812,595.939 637.687,596.856C637.562,597.773 637.332,598.502 636.999,599.043C636.666,599.585 636.218,599.96 635.655,600.168C635.093,600.377 634.374,600.481 633.499,600.481L596.124,600.481C596.749,605.898 598.395,609.825 601.062,612.262C603.728,614.7 607.166,615.918 611.374,615.918C613.624,615.918 615.562,615.648 617.187,615.106C618.812,614.564 620.259,613.96 621.53,613.293C622.801,612.627 623.968,612.023 625.03,611.481C626.093,610.939 627.207,610.668 628.374,610.668C629.916,610.668 631.082,611.231 631.874,612.356L637.499,619.293C635.499,621.585 633.343,623.45 631.03,624.887C628.718,626.325 626.343,627.45 623.905,628.262C621.468,629.075 619.03,629.637 616.593,629.95C614.155,630.262 611.832,630.418 609.624,630.418C605.082,630.418 600.822,629.679 596.843,628.2C592.864,626.72 589.384,624.523 586.405,621.606C583.426,618.689 581.072,615.064 579.343,610.731C577.614,606.398 576.749,601.356 576.749,595.606C576.749,591.273 577.489,587.168 578.968,583.293C580.447,579.418 582.572,576.023 585.343,573.106C588.114,570.189 591.468,567.877 595.405,566.168C599.343,564.46 603.791,563.606 608.749,563.606ZM609.124,576.981C605.416,576.981 602.52,578.033 600.437,580.137C598.353,582.241 596.978,585.273 596.312,589.231L620.499,589.231C620.499,587.689 620.301,586.189 619.905,584.731C619.509,583.273 618.864,581.97 617.968,580.825C617.072,579.679 615.895,578.752 614.437,578.043C612.978,577.335 611.207,576.981 609.124,576.981Z" style="fill:rgb(35,31,32);fill-rule:nonzero;"/>
        </g>
        <g transform="matrix(1,0,0,1,-9.3821,0)">
            <path d="M693.749,629.418C691.916,629.418 690.53,629.168 689.593,628.668C688.655,628.168 687.874,627.127 687.249,625.543L685.874,621.981C684.249,623.356 682.687,624.564 681.187,625.606C679.687,626.648 678.134,627.533 676.53,628.262C674.926,628.991 673.218,629.533 671.405,629.887C669.593,630.241 667.582,630.418 665.374,630.418C662.416,630.418 659.728,630.033 657.312,629.262C654.895,628.491 652.843,627.356 651.155,625.856C649.468,624.356 648.166,622.491 647.249,620.262C646.332,618.033 645.874,615.46 645.874,612.543C645.874,610.252 646.457,607.898 647.624,605.481C648.791,603.064 650.812,600.866 653.687,598.887C656.562,596.908 660.437,595.252 665.312,593.918C670.187,592.585 676.332,591.835 683.749,591.668L683.749,588.918C683.749,585.127 682.968,582.387 681.405,580.7C679.843,579.012 677.624,578.168 674.749,578.168C672.457,578.168 670.582,578.418 669.124,578.918C667.666,579.418 666.364,579.981 665.218,580.606C664.072,581.231 662.957,581.793 661.874,582.293C660.791,582.793 659.499,583.043 657.999,583.043C656.666,583.043 655.53,582.72 654.593,582.075C653.655,581.429 652.916,580.627 652.374,579.668L648.874,573.606C652.791,570.148 657.134,567.575 661.905,565.887C666.676,564.2 671.791,563.356 677.249,563.356C681.166,563.356 684.697,563.991 687.843,565.262C690.989,566.533 693.655,568.304 695.843,570.575C698.03,572.845 699.707,575.543 700.874,578.668C702.041,581.793 702.624,585.21 702.624,588.918L702.624,629.418L693.749,629.418ZM671.499,617.606C673.999,617.606 676.187,617.168 678.062,616.293C679.937,615.418 681.832,614.002 683.749,612.043L683.749,603.043C679.874,603.21 676.687,603.543 674.187,604.043C671.687,604.543 669.707,605.168 668.249,605.918C666.791,606.668 665.78,607.523 665.218,608.481C664.655,609.439 664.374,610.481 664.374,611.606C664.374,613.814 664.978,615.366 666.187,616.262C667.395,617.158 669.166,617.606 671.499,617.606Z" style="fill:rgb(35,31,32);fill-rule:nonzero;"/>
        </g>
        <g transform="matrix(1,0,0,1,-9.3821,0)">
            <path d="M739.124,630.418C736.041,630.418 733.322,629.97 730.968,629.075C728.614,628.179 726.634,626.908 725.03,625.262C723.426,623.616 722.207,621.627 721.374,619.293C720.541,616.96 720.124,614.356 720.124,611.481L720.124,577.981L714.624,577.981C713.624,577.981 712.77,577.658 712.062,577.012C711.353,576.366 710.999,575.418 710.999,574.168L710.999,566.606L721.312,564.606L725.124,548.793C725.624,546.793 727.041,545.793 729.374,545.793L739.499,545.793L739.499,564.731L755.249,564.731L755.249,577.981L739.499,577.981L739.499,610.168C739.499,611.668 739.864,612.908 740.593,613.887C741.322,614.866 742.374,615.356 743.749,615.356C744.457,615.356 745.051,615.283 745.53,615.137C746.009,614.991 746.426,614.825 746.78,614.637C747.134,614.45 747.468,614.283 747.78,614.137C748.093,613.991 748.457,613.918 748.874,613.918C749.457,613.918 749.926,614.054 750.28,614.325C750.634,614.595 750.999,615.023 751.374,615.606L757.249,624.793C754.749,626.668 751.937,628.075 748.812,629.012C745.687,629.95 742.457,630.418 739.124,630.418Z" style="fill:rgb(35,31,32);fill-rule:nonzero;"/>
        </g>
        <g transform="matrix(1,0,0,1,-9.3821,0)">
            <path d="M794.124,563.606C798.416,563.606 802.343,564.273 805.905,565.606C809.468,566.939 812.53,568.877 815.093,571.418C817.655,573.96 819.655,577.075 821.093,580.762C822.53,584.45 823.249,588.627 823.249,593.293C823.249,594.752 823.187,595.939 823.062,596.856C822.937,597.773 822.707,598.502 822.374,599.043C822.041,599.585 821.593,599.96 821.03,600.168C820.468,600.377 819.749,600.481 818.874,600.481L781.499,600.481C782.124,605.898 783.77,609.825 786.437,612.262C789.103,614.7 792.541,615.918 796.749,615.918C798.999,615.918 800.937,615.648 802.562,615.106C804.187,614.564 805.634,613.96 806.905,613.293C808.176,612.627 809.343,612.023 810.405,611.481C811.468,610.939 812.582,610.668 813.749,610.668C815.291,610.668 816.457,611.231 817.249,612.356L822.874,619.293C820.874,621.585 818.718,623.45 816.405,624.887C814.093,626.325 811.718,627.45 809.28,628.262C806.843,629.075 804.405,629.637 801.968,629.95C799.53,630.262 797.207,630.418 794.999,630.418C790.457,630.418 786.197,629.679 782.218,628.2C778.239,626.72 774.759,624.523 771.78,621.606C768.801,618.689 766.447,615.064 764.718,610.731C762.989,606.398 762.124,601.356 762.124,595.606C762.124,591.273 762.864,587.168 764.343,583.293C765.822,579.418 767.947,576.023 770.718,573.106C773.489,570.189 776.843,567.877 780.78,566.168C784.718,564.46 789.166,563.606 794.124,563.606ZM794.499,576.981C790.791,576.981 787.895,578.033 785.812,580.137C783.728,582.241 782.353,585.273 781.687,589.231L805.874,589.231C805.874,587.689 805.676,586.189 805.28,584.731C804.884,583.273 804.239,581.97 803.343,580.825C802.447,579.679 801.27,578.752 799.812,578.043C798.353,577.335 796.582,576.981 794.499,576.981Z" style="fill:rgb(35,31,32);fill-rule:nonzero;"/>
        </g>
    </g>
</svg>
