<svg width="89" height="18" viewBox="0 0 89 18" fill="none" xmlns="http://www.w3.org/2000/svg">
<path d="M37.9148 2.82024C37.2587 2.13792 36.486 1.59207 35.6258 1.21301C34.7511 0.818779 33.8034 0.621666 32.8557 0.621666C31.9518 0.606504 31.0625 0.773289 30.2314 1.10687C29.4004 1.44044 28.6423 1.94081 27.9862 2.56247L26.8344 1.19784C26.7032 1.04622 26.5283 0.970403 26.3387 0.970403C25.9743 0.970403 25.6827 1.28882 25.6827 1.65272V17.0579C25.6827 17.3915 25.9305 17.6947 26.2659 17.7402H29.0651C29.4296 17.7402 29.7212 17.4218 29.7212 17.0579V8.18779C29.7212 7.76324 29.8086 7.33868 29.969 6.94445C30.1294 6.56539 30.3481 6.21665 30.6251 5.92857C31.2083 5.32206 32.0101 4.97332 32.8412 4.98848C33.2494 4.98848 33.6576 5.07946 34.0221 5.24625C34.7656 5.57983 35.3488 6.20149 35.655 6.97478C35.8008 7.35385 35.8737 7.76323 35.8737 8.17262V17.0427C35.8737 17.4218 36.1653 17.725 36.5297 17.725H39.329C39.6935 17.725 39.9851 17.4066 39.9851 17.0427V8.17262C39.9851 7.17189 39.7955 6.17117 39.4165 5.24625C39.052 4.32133 38.5417 3.51772 37.9148 2.82024ZM69.5958 0.970403H58.603C58.2385 0.970403 57.9469 1.28882 57.9469 1.65272V4.54877C57.9469 4.92783 58.2385 5.23109 58.603 5.23109H59.3319C59.6964 5.23109 59.988 5.53434 59.988 5.9134V10.2347C59.988 11.2355 60.1775 12.2362 60.5566 13.1459C61.3001 14.9351 62.6706 16.3756 64.391 17.1489C65.2803 17.5431 66.228 17.7402 67.1902 17.7402H69.6541C70.0186 17.7402 70.3102 17.4218 70.3102 17.0579V14.1618C70.3102 13.7828 70.0186 13.4795 69.6541 13.4795H67.2048C66.782 13.4795 66.3738 13.3886 65.9947 13.2218C65.6302 13.055 65.2949 12.8124 65.0033 12.5243C64.7117 12.221 64.493 11.8723 64.3472 11.4932C64.1869 11.099 64.0994 10.6593 64.114 10.2196V5.92857C64.114 5.57983 64.3618 5.29174 64.6971 5.24625H69.6104C69.9749 5.24625 70.2665 4.92784 70.2665 4.56393V1.68305C70.2373 1.28882 69.9457 0.985566 69.5958 0.970403ZM87.4847 0.667152C87.2952 0.667152 87.1057 0.758128 86.989 0.909754L86.0122 2.12276C85.779 2.42601 85.3561 2.45634 85.0791 2.21374C84.8459 2.00146 84.598 1.80435 84.3356 1.60723C83.8982 1.28882 83.4317 1.00073 82.9506 0.758128C82.4694 0.515527 81.9737 0.318412 81.4634 0.197112C80.9532 0.0606484 80.4283 0 79.9035 0C78.7954 0 77.7165 0.212274 76.696 0.651989C75.7046 1.07654 74.8298 1.69821 74.0717 2.48666C73.3136 3.29028 72.7158 4.26068 72.3076 5.3069C71.8702 6.44409 71.6661 7.6571 71.6661 8.88527C71.6515 10.1741 71.8556 11.4326 72.3076 12.6304C72.7012 13.6766 73.3136 14.6319 74.0863 15.4203C74.8298 16.1785 75.7192 16.7698 76.7106 17.1489C77.7311 17.5583 78.81 17.7554 79.918 17.7554C80.4283 17.7554 80.9532 17.6796 81.4489 17.5431C81.9592 17.4066 82.4548 17.2247 82.936 16.9821C83.4171 16.7395 83.869 16.4666 84.3064 16.1481C84.5543 15.9662 84.7876 15.7842 85.0208 15.5871C85.3124 15.3445 85.7498 15.4052 85.9539 15.7236L86.9307 17.1337C87.2952 17.6796 88.1117 17.4066 88.1117 16.7395V1.34947C88.1408 0.970403 87.8492 0.667152 87.4847 0.667152ZM83.6649 10.5835C83.4608 11.1142 83.1692 11.5994 82.7902 12.0391C82.4257 12.4636 81.9737 12.8124 81.4926 13.055C80.9969 13.2976 80.4575 13.434 79.9035 13.434C79.364 13.434 78.8246 13.3279 78.3143 13.1308C77.8186 12.9337 77.3812 12.6456 77.0167 12.2514C76.6377 11.842 76.3461 11.3568 76.1565 10.8109C75.9379 10.1741 75.8212 9.52209 75.8504 8.83978C75.8358 8.17262 75.9524 7.50547 76.1711 6.88381C76.3607 6.36828 76.6668 5.89824 77.0313 5.50401C77.3958 5.10978 77.8332 4.8217 78.3289 4.62458C78.8392 4.42747 79.3786 4.32133 79.918 4.3365C80.4721 4.3365 81.0115 4.4578 81.5072 4.71556C81.9883 4.95816 82.4257 5.27657 82.7902 5.68596C83.1692 6.11052 83.4608 6.61088 83.6649 7.14157C84.1023 8.2636 84.1023 9.4766 83.6649 10.5835ZM4.13433 0.940081H1.3205C0.956017 0.940081 0.664429 1.24333 0.664429 1.6224V17.0579C0.664429 17.437 0.956017 17.7402 1.3205 17.7402H4.13433C4.49881 17.7402 4.7904 17.4218 4.7904 17.0579V1.6224C4.7904 1.2585 4.49881 0.940081 4.13433 0.940081ZM15.6812 2.04695C16.0165 1.60723 15.7249 0.955244 15.1855 0.940081H11.978C11.7885 0.940081 11.599 1.03105 11.4823 1.18268L5.15488 8.8701C4.93619 9.12787 4.93619 9.50693 5.15488 9.76469L11.5552 17.4673C11.6865 17.6189 11.8614 17.7099 12.0509 17.7099H15.2584C15.7978 17.6947 16.0894 17.0427 15.7687 16.603L10.039 9.81018C9.82029 9.55242 9.82029 9.17335 10.039 8.91559L15.6812 2.04695ZM21.8483 0.940081C21.6588 0.940081 21.4692 1.01589 21.3526 1.16752L21.2214 1.31915L18.5533 4.48812C18.4513 4.60942 18.393 4.77621 18.393 4.92783V17.0579C18.393 17.437 18.6846 17.7402 19.049 17.7402H21.8337C22.1982 17.7402 22.4898 17.4218 22.4898 17.0579V1.6224C22.4752 1.2585 22.1982 0.955244 21.8483 0.940081ZM55.3809 8.80945C54.9144 8.35458 54.3604 8.00584 53.7626 7.76324C53.1357 7.52064 52.4505 7.39933 51.7798 7.39933H47.508C47.231 7.39933 46.9686 7.27804 46.7791 7.08092C46.6041 6.86865 46.5166 6.59572 46.5166 6.32279C46.5166 5.71629 46.9978 5.21592 47.5809 5.21592H55.2497C55.6142 5.21592 55.9058 4.89751 55.9058 4.53361V1.68305C55.9058 1.30398 55.6142 1.00073 55.2497 1.00073H47.4935C46.7936 0.985568 46.0938 1.13719 45.4523 1.42528C44.2422 1.97113 43.2946 2.98703 42.7843 4.24552C42.5219 4.91267 42.3907 5.61015 42.3907 6.33795C42.3907 7.05059 42.5219 7.76324 42.7989 8.41523C43.2946 9.68888 44.2422 10.7199 45.4523 11.281C46.0793 11.569 46.7645 11.7055 47.4497 11.7055H51.8673C52.3192 11.6903 52.7129 12.0542 52.7566 12.5243C52.8004 13.055 52.4067 13.5099 51.8964 13.5099H43.0467C42.6823 13.5099 42.3907 13.8131 42.3907 14.1922V17.0579C42.3907 17.437 42.6823 17.7402 43.0467 17.7402H51.7798C53.1357 17.7402 54.4333 17.1792 55.3809 16.1785C55.8329 15.6933 56.1974 15.1171 56.4452 14.4803C56.7222 13.8283 56.8534 13.1156 56.8534 12.403C56.8534 11.7055 56.7222 11.0232 56.4452 10.3864C56.1974 9.79502 55.8329 9.26433 55.3809 8.80945Z" fill="#738C88"/>
</svg>
