<svg width="114" height="30" viewBox="0 0 114 30" fill="none" xmlns="http://www.w3.org/2000/svg">
<path d="M15.8992 0.00992132L25.6992 0L9.25749 15.0969L4.97249 19.0114L0.0971069 14.527L15.8992 0.00992132ZM15.808 13.4897C15.9352 13.3353 16.1692 13.4114 16.3468 13.3916L25.6908 13.3938L17.1747 21.2095L12.2742 16.735L15.808 13.4897Z" fill="#738C88"/>
<path d="M39.4733 6.30664L50.1565 6.30995L50.1553 8.2424C47.3606 8.2424 44.5647 8.23468 41.7688 8.2457C41.5552 8.31074 41.656 8.55657 41.632 8.7076L41.6404 13.9053C41.7112 14.1004 41.98 14.0067 42.1456 14.0309L49.3165 14.0276V15.9579C47.087 15.9568 44.8587 15.9568 42.6292 15.9579C42.298 15.9568 41.9632 15.938 41.6356 15.9898L41.6104 23.3272C40.8917 23.3007 40.1741 23.325 39.4553 23.3106L39.4541 6.61861L39.4733 6.30664ZM52.7471 6.30995H54.9406L54.9418 17.8583L54.9178 23.2963C54.2039 23.2842 53.4899 23.2809 52.7771 23.2985C52.7219 23.0295 52.7447 22.7562 52.7447 22.485L52.7471 6.30995ZM74.2166 7.74192L76.4173 7.74302L76.4209 11.1604C77.4972 11.1846 78.5796 11.1163 79.6535 11.1945C79.6235 11.8075 79.6487 12.4204 79.6367 13.0333C78.5664 13.0355 77.4972 13.0432 76.4281 13.0289L76.4197 19.8349C76.4425 20.4654 76.5889 21.2272 77.256 21.5524C78.018 21.9503 78.954 21.7629 79.6751 21.3793V23.3592C78.8808 23.6899 77.9748 23.7295 77.1216 23.6226C75.9193 23.454 74.7673 22.701 74.4038 21.6064C74.1626 21.0067 74.2178 20.3596 74.213 19.7335L74.2082 13.1049L74.1542 13.0487C73.3946 13.0112 72.6326 13.0542 71.8719 13.03C71.8767 12.406 71.8455 11.7821 71.8887 11.1593C72.6614 11.1471 73.4378 11.1912 74.2094 11.1372L74.2166 7.74192ZM83.5138 7.73531C84.2457 7.75846 84.9777 7.72759 85.7085 7.75074L85.7589 7.80145C85.7864 8.92366 85.7217 10.0492 85.7877 11.1692C86.8304 11.1515 87.8732 11.1659 88.9147 11.1604L88.9219 13.019C87.8732 13.0553 86.8208 13.0333 85.7721 13.0278L85.7601 19.9517C85.7589 20.5547 85.9484 21.268 86.5832 21.5645C87.362 21.9547 88.3063 21.7541 89.0299 21.3551L89.0275 23.3459C88.2559 23.6656 87.386 23.7273 86.5532 23.6392C85.4721 23.5069 84.4137 22.9458 83.9061 22.0363C83.6614 21.5601 83.5246 21.0332 83.5018 20.5073V13.0355C82.7422 13.0344 81.9838 13.0377 81.2255 13.0355L81.2303 11.1537C81.9778 11.1725 82.7254 11.1482 83.473 11.1714C83.5522 10.0293 83.467 8.87956 83.5138 7.73531ZM94.1957 11.2243C95.7148 10.6456 97.4679 10.6345 99.0195 11.1196C100.797 11.6829 102.172 13.1071 102.676 14.7596C103.006 15.6757 102.992 16.649 102.946 17.6015L92.5002 17.6114C92.5866 18.6333 92.9189 19.675 93.6917 20.4423C94.7896 21.6185 96.6796 22.0551 98.2755 21.5932C99.395 21.29 100.269 20.4985 100.843 19.5891C101.479 19.8503 102.097 20.148 102.731 20.4158C101.865 21.9327 100.289 23.1376 98.4375 23.4639C96.9172 23.7251 95.254 23.7318 93.8597 23.0417C92.0502 22.216 90.8046 20.5349 90.4494 18.727C90.1915 17.338 90.2719 15.8686 90.8406 14.5501C91.437 13.1027 92.6429 11.8493 94.1957 11.2243ZM95.0224 12.9671C93.7445 13.5095 92.9213 14.7144 92.6645 15.9579L100.675 15.9347C100.548 15.1223 100.234 14.2966 99.5858 13.709C98.4507 12.5912 96.5104 12.373 95.0224 12.9671ZM107.701 13.127C108.537 11.2607 111.107 10.2807 113.138 11.0623V13.2405C112.285 12.9319 111.328 12.7412 110.427 12.9848C109.196 13.321 108.285 14.3297 107.936 15.4397C107.696 16.1894 107.786 16.972 107.796 17.7404C107.702 18.7347 107.843 19.7302 107.772 20.7245C107.829 21.5832 107.721 22.442 107.801 23.3018C107.054 23.3349 106.308 23.2996 105.563 23.3228C105.52 20.7311 105.557 18.1383 105.545 15.5456L105.562 11.1813C106.261 11.1989 106.962 11.1791 107.663 11.1945C107.726 11.8383 107.585 12.4854 107.701 13.127ZM58.0869 11.1571C58.8309 11.1857 59.5808 11.1163 60.3212 11.1934L60.3104 18.4183C60.3032 19.3013 60.44 20.2659 61.1048 20.9516C61.9627 21.8247 63.4159 21.9845 64.5894 21.6395C66.1577 21.1236 67.2521 19.5979 67.1885 18.0722L67.2125 11.1571L69.4528 11.1615L69.4396 23.293C68.7292 23.282 68.02 23.293 67.3109 23.2853L67.3025 21.559C66.8429 22.0892 66.3605 22.6261 65.7018 22.9601C64.353 23.7417 62.6419 23.8453 61.1312 23.4451C60.1568 23.1751 59.3084 22.5478 58.8201 21.7277C58.2405 20.8259 58.0941 19.7599 58.0605 18.7325L58.0869 11.1571Z" fill="#738C88" fill-opacity="0.54"/>
<path d="M7.38916 21.2173L12.2741 16.735L17.1747 21.2096L17.1951 21.2294L12.2753 25.7072L7.38916 21.2173Z" fill="#738C88"/>
<path d="M12.2754 25.7072L17.1951 21.2294L25.6944 29.0452C22.4929 29.0518 19.2926 29.0429 16.0924 29.0496C15.91 29.087 15.7972 28.9338 15.6808 28.839L12.2754 25.7072Z" fill="#738C88"/>
</svg>
