<svg width="159" height="33" viewBox="0 0 159 33" fill="none" xmlns="http://www.w3.org/2000/svg">
<path d="M90.56 22.8937H90.308C89.0122 22.8937 88.8322 22.5697 88.8322 20.9139V13.1029H90.56C94.3033 13.1029 94.9874 15.8383 94.9874 17.9621C94.9874 20.1579 94.3033 22.8937 90.56 22.8937ZM75.3701 17.8899V13.1029H76.8457C78.4654 13.1029 79.1856 14.2185 79.1856 15.5143C79.1856 16.7743 78.4654 17.8899 76.8457 17.8899H75.3701ZM90.452 12.0231H84.0088V12.7067C86.0244 12.7067 86.3482 13.1387 86.3482 15.6945V20.3021C86.3482 22.8577 86.0244 23.3257 84.0088 23.3257C82.4612 23.1097 81.4172 22.2815 79.9772 20.6979L78.3218 18.8983C80.5532 18.5021 81.741 17.0983 81.741 15.5143C81.741 13.5349 80.0495 12.0231 76.8818 12.0231H70.5465V12.7067C72.5621 12.7067 72.8861 13.1387 72.8861 15.6945V20.3021C72.8861 22.8577 72.5621 23.3257 70.5465 23.3257V24.0093H77.7096V23.3257C75.694 23.3257 75.3701 22.8577 75.3701 20.3021V19.0063H75.9818L79.9772 24.0093H90.452C95.5995 24.0093 97.831 21.2739 97.831 17.9979C97.831 14.7227 95.5995 12.0231 90.452 12.0231Z" fill="#ffffff"/>
<path d="M50.4978 19.2223L52.9814 11.8785C53.7015 9.75507 53.3776 9.14329 51.0738 9.14329V8.4231H57.8411V9.14329C55.5734 9.14329 55.0335 9.68312 54.1335 12.3109L50.0297 24.6214H49.562L45.8902 13.3547L42.147 24.6214H41.6788L37.6834 12.3109C36.8196 9.68312 36.2436 9.14329 34.1558 9.14329V8.4231H42.147V9.14329C40.023 9.14329 39.447 9.64708 40.2032 11.8785L42.6146 19.2223L46.2502 8.4231H46.9344L50.4978 19.2223Z" fill="#ffffff"/>
<path d="M62.7355 12.6711C59.4242 12.6711 58.2721 15.6585 58.2721 17.998C58.2721 20.374 59.4242 23.3257 62.7355 23.3257C66.0835 23.3257 67.2351 20.374 67.2351 17.998C67.2351 15.6585 66.0835 12.6711 62.7355 12.6711ZM62.7355 24.4774C58.7763 24.4774 55.5364 21.5618 55.5364 17.998C55.5364 14.4707 58.7763 11.5547 62.7355 11.5547C66.6953 11.5547 69.9347 14.4707 69.9347 17.998C69.9347 21.5618 66.6953 24.4774 62.7355 24.4774Z" fill="#ffffff"/>
<path d="M105.929 9.71889H103.878V15.9823H105.929C107.945 15.9823 108.881 14.5786 108.881 12.8869C108.881 11.1593 107.945 9.71889 105.929 9.71889ZM106.721 23.2895V24.0092H98.4785V23.2895C100.89 23.2895 101.322 22.6777 101.322 19.0778V13.3189C101.322 9.71889 100.89 9.14329 98.4785 9.14329V8.4231H105.929C109.637 8.4231 111.689 10.3311 111.689 12.8869C111.689 15.3706 109.637 17.3143 105.929 17.3143H103.878V19.0778C103.878 22.6777 104.31 23.2895 106.721 23.2895Z" fill="#ffffff"/>
<path d="M117.34 17.8899V13.1029H118.816C120.436 13.1029 121.156 14.2185 121.156 15.5143C121.156 16.7743 120.436 17.8899 118.816 17.8899H117.34ZM136.417 20.6261L136.237 21.2739C135.913 22.4617 135.517 22.8937 132.962 22.8937H132.458C130.586 22.8937 130.262 22.4617 130.262 19.9059V18.2504C133.07 18.2504 133.286 18.5021 133.286 20.3739H133.97V15.0105H133.286C133.286 16.8823 133.07 17.134 130.262 17.134V13.1029H132.242C134.797 13.1029 135.193 13.5349 135.517 14.7227L135.697 15.4063H136.273L136.021 12.0231H125.439V12.7067C127.454 12.7067 127.778 13.1386 127.778 15.6945V20.3021C127.778 22.6399 127.503 23.2289 125.914 23.3127C124.403 23.0822 123.366 22.2583 121.947 20.6979L120.291 18.8983C122.523 18.5021 123.711 17.0983 123.711 15.5143C123.711 13.5349 122.02 12.0231 118.852 12.0231H112.517V12.7067C114.532 12.7067 114.856 13.1386 114.856 15.6945V20.3021C114.856 22.8575 114.532 23.3257 112.517 23.3257V24.0093H119.68V23.3257C117.664 23.3257 117.34 22.8575 117.34 20.3021V19.0063H117.952L121.947 24.0093H136.741L136.957 20.6261H136.417Z" fill="#ffffff"/>
<path d="M143.725 24.4774C142.285 24.4774 141.025 23.7215 140.485 23.2534C140.305 23.4337 139.981 23.9736 139.909 24.4774H139.225V19.5102H139.945C140.233 21.8858 141.889 23.2896 144.013 23.2896C145.164 23.2896 146.1 22.6417 146.1 21.5618C146.1 20.6261 145.272 19.9059 143.797 19.2223L141.745 18.2505C140.305 17.5661 139.225 16.3783 139.225 14.7947C139.225 13.0669 140.845 11.5913 143.077 11.5913C144.265 11.5913 145.272 12.0233 145.884 12.5269C146.064 12.3829 146.244 11.9867 146.353 11.5547H147.036V15.8026H146.28C146.028 14.1106 145.092 12.7069 143.185 12.7069C142.177 12.7069 141.241 13.2829 141.241 14.1829C141.241 15.1185 141.997 15.6224 143.725 16.4144L145.704 17.3862C147.432 18.2139 148.116 19.5463 148.116 20.6261C148.116 22.8938 146.136 24.4774 143.725 24.4774Z" fill="#ffffff"/>
<path d="M154.609 24.4774C153.169 24.4774 151.909 23.7215 151.369 23.2534C151.189 23.4337 150.865 23.9736 150.793 24.4774H150.109V19.5102H150.829C151.117 21.8858 152.773 23.2896 154.897 23.2896C156.048 23.2896 156.984 22.6417 156.984 21.5618C156.984 20.6261 156.156 19.9059 154.681 19.2223L152.629 18.2505C151.189 17.5661 150.109 16.3783 150.109 14.7947C150.109 13.0669 151.729 11.5913 153.961 11.5913C155.149 11.5913 156.156 12.0233 156.768 12.5269C156.948 12.3829 157.128 11.9867 157.236 11.5547H157.92V15.8026H157.164C156.912 14.1106 155.976 12.7069 154.069 12.7069C153.061 12.7069 152.125 13.2829 152.125 14.1829C152.125 15.1185 152.881 15.6224 154.609 16.4144L156.588 17.3862C158.316 18.2139 159 19.5463 159 20.6261C159 22.8938 157.02 24.4774 154.609 24.4774Z" fill="#ffffff"/>
<path d="M16.3376 0C7.3915 0 0.139221 7.25228 0.139221 16.1983C0.139221 25.1444 7.3915 32.3967 16.3376 32.3967C25.2836 32.3967 32.5359 25.1444 32.5359 16.1983C32.5359 7.25228 25.2836 0 16.3376 0ZM16.3376 0.971948C18.3935 0.971948 20.3875 1.3743 22.2641 2.16808C23.166 2.54954 24.0361 3.02179 24.8501 3.57173C25.6566 4.11662 26.415 4.74233 27.1042 5.43166C27.7936 6.12086 28.4193 6.87928 28.9642 7.68576C29.5141 8.49974 29.9863 9.36984 30.3678 10.2718C31.1616 12.1483 31.5639 14.1423 31.5639 16.1983C31.5639 18.2543 31.1616 20.2483 30.3678 22.1249C29.9863 23.0268 29.5141 23.8969 28.9642 24.7109C28.4193 25.5174 27.7936 26.2758 27.1042 26.965C26.415 27.6543 25.6566 28.28 24.8501 28.8249C24.0361 29.3749 23.166 29.8471 22.2641 30.2286C20.3875 31.0224 18.3935 31.4247 16.3376 31.4247C14.2816 31.4247 12.2876 31.0224 10.4111 30.2286C9.50906 29.8471 8.63896 29.3749 7.82498 28.8249C7.0185 28.28 6.26008 27.6543 5.57089 26.965C4.88155 26.2758 4.25584 25.5174 3.71095 24.7109C3.16115 23.8969 2.68876 23.0268 2.3073 22.1249C1.51352 20.2483 1.11117 18.2543 1.11117 16.1983C1.11117 14.1423 1.51352 12.1483 2.3073 10.2718C2.68876 9.36984 3.16115 8.49974 3.71095 7.68576C4.25584 6.87928 4.88155 6.12086 5.57089 5.43166C6.26008 4.74233 7.0185 4.11662 7.82498 3.57173C8.63896 3.02179 9.50906 2.54954 10.4111 2.16808C12.2876 1.3743 14.2816 0.971948 16.3376 0.971948Z" fill="#ffffff"/>
<path d="M28.1831 9.72221C28.241 10.1521 28.2739 10.6133 28.2739 11.1102C28.2739 12.4794 28.0173 14.0192 27.247 15.9448L23.1243 27.8651C27.1374 25.5254 29.8362 21.1777 29.8362 16.1979C29.8362 13.851 29.2365 11.6447 28.1831 9.72221ZM16.5747 17.3786L12.524 29.147C13.7338 29.5028 15.0127 29.6969 16.3376 29.6969C17.9095 29.6969 19.4175 29.4256 20.8205 28.9317C20.7843 28.8739 20.751 28.8126 20.7235 28.7456L16.5747 17.3786ZM25.4503 15.517C25.4503 13.8482 24.8508 12.6933 24.3375 11.7944C23.6532 10.682 23.0115 9.74091 23.0115 8.62847C23.0115 7.38784 23.9523 6.2328 25.2783 6.2328C25.3382 6.2328 25.3949 6.24004 25.453 6.24372C23.0515 4.04329 19.8518 2.69971 16.3376 2.69971C11.6214 2.69971 7.47287 5.11955 5.05904 8.78371C5.37606 8.79367 5.67465 8.80009 5.92791 8.80009C7.33948 8.80009 9.52558 8.62847 9.52558 8.62847C10.2529 8.58588 10.3389 9.6549 9.61187 9.74091C9.61187 9.74091 8.88035 9.82652 8.06704 9.86911L12.9825 24.4905L15.937 15.6312L13.834 9.86911C13.1067 9.82652 12.4182 9.74091 12.4182 9.74091C11.6905 9.69791 11.7759 8.58588 12.5038 8.62847C12.5038 8.62847 14.7325 8.80009 16.0589 8.80009C17.4705 8.80009 19.657 8.62847 19.657 8.62847C20.3845 8.58588 20.4701 9.6549 19.7429 9.74091C19.7429 9.74091 19.0107 9.82652 18.1982 9.86911L23.0763 24.3793L24.4689 19.9667C25.0876 18.0383 25.4503 16.6721 25.4503 15.517ZM2.83894 16.1979C2.83894 21.5407 5.94375 26.1582 10.447 28.346L4.00777 10.7044C3.25877 12.383 2.83894 14.2408 2.83894 16.1979Z" fill="#ffffff"/>
</svg>
