<svg xmlns="http://www.w3.org/2000/svg" xml:space="preserve" style="fill-rule:evenodd;clip-rule:evenodd;stroke-linejoin:round;stroke-miterlimit:2" viewBox="0 0 302 67"><g transform="matrix(.96744 0 0 .75335 9.72 120.724)"><path d="M-10.048-160.25h311.715v88.207H-10.048z" style="fill:none"/><clipPath id="a"><path d="M-10.048-160.25h311.715v88.207H-10.048z"/></clipPath><g clip-path="url(#a)"><g transform="matrix(.492 0 0 .63182 59.28 -202.086)"><clipPath id="b"><path d="M-28.681 108.503v56.115c0 15.485-12.572 28.057-28.057 28.057h-56.115c-15.485 0-28.057-12.572-28.057-28.057v-56.115c0-15.485 12.572-28.057 28.057-28.057h56.115c15.485 0 28.057 12.572 28.057 28.057Z"/></clipPath><g clip-path="url(#b)"><path d="M43.32 18.903h40.592v9.946H43.32z" style="fill:#2477b9" transform="matrix(2.68405 4.10823 -1.99769 1.30516 -154.61 -205.6)"/><path d="M43.32 18.903h40.592v9.946H43.32z" style="fill:#339b72" transform="matrix(2.68405 4.10823 -1.84434 1.20497 -177.38 -190.725)"/><path d="M43.32 18.903h40.592v9.946H43.32z" style="fill:#c3bca4" transform="matrix(2.68405 4.10823 -1.84434 1.20497 -195.722 -178.741)"/><path d="M43.32 18.903h40.592v9.946H43.32z" style="fill:#c6ba53" transform="matrix(2.68405 4.10823 -1.84434 1.20497 -214.066 -166.756)"/><path d="M43.32 18.903h40.592v9.946H43.32z" style="fill:#c8822e" transform="matrix(2.68405 4.10823 -1.84434 1.20497 -232.41 -154.771)"/><path d="M43.32 18.903h40.592v9.946H43.32z" style="fill:#c03b96" transform="matrix(2.68405 4.10823 -1.84434 1.20497 -250.753 -142.787)"/><path d="M43.32 18.903h40.592v9.946H43.32z" style="fill:#a52532" transform="matrix(2.68405 4.10823 -1.84434 1.20497 -269.096 -130.803)"/><path d="M43.32 18.903h40.592v9.946H43.32z" style="fill:#222f53" transform="matrix(2.68405 4.10823 -1.84434 1.20497 -287.438 -118.82)"/><path d="M11.742 10.725 14.955-.016c.144-.48.578-.808 1.07-.808h6.266c.492 0 .926.328 1.07.809l3.213 10.774L29.271.033a1.122 1.122 0 0 1 1.083-.857h7.961c.361 0 .7.178.91.477.21.3.265.684.149 1.032l-7.756 23.162a1.12 1.12 0 0 1-1.059.772h-6.831c-.474 0-.897-.305-1.054-.762l-3.517-10.181-3.516 10.181a1.12 1.12 0 0 1-1.055.762H7.755a1.12 1.12 0 0 1-1.058-.772L-1.058.685A1.158 1.158 0 0 1-.91-.347c.21-.299.549-.477.91-.477h7.961c.51 0 .955.352 1.083.856l2.698 10.693Z" style="fill:#fff" transform="matrix(2.21277 0 0 2.11671 -127.187 111.377)"/></g></g><path d="M191.225 123.904a1.37 1.37 0 0 1-.216.216.48.48 0 0 1-.296.08.632.632 0 0 1-.332-.088l-.332-.196a2.568 2.568 0 0 0-.432-.196 1.855 1.855 0 0 0-.616-.088c-.304 0-.567.056-.788.168a1.454 1.454 0 0 0-.548.48 2.19 2.19 0 0 0-.32.764c-.07.301-.104.641-.104 1.02 0 .795.153 1.405.46 1.832.306.427.729.64 1.268.64.288 0 .516-.036.684-.108a2.09 2.09 0 0 0 .428-.24l.324-.244a.594.594 0 0 1 .372-.112c.197 0 .346.072.448.216l.72.888a3.945 3.945 0 0 1-.808.716 4.06 4.06 0 0 1-.868.432 4.491 4.491 0 0 1-.892.216c-.299.04-.59.06-.872.06a3.74 3.74 0 0 1-1.452-.288 3.552 3.552 0 0 1-1.216-.836 3.988 3.988 0 0 1-.832-1.348c-.206-.533-.308-1.141-.308-1.824 0-.597.089-1.156.268-1.676.178-.52.442-.971.792-1.352a3.685 3.685 0 0 1 1.296-.9c.514-.219 1.11-.328 1.788-.328.65 0 1.221.104 1.712.312.49.208.933.512 1.328.912l-.656.872ZM193.017 130.232v-8.296h1.472c.122 0 .225.011.308.032a.545.545 0 0 1 .208.1.428.428 0 0 1 .128.18c.029.075.054.165.076.272l.136.776c.304-.469.645-.84 1.024-1.112a2.08 2.08 0 0 1 1.24-.408c.378 0 .682.091.912.272l-.32 1.824c-.022.112-.064.191-.128.236a.438.438 0 0 1-.256.068 1.69 1.69 0 0 1-.32-.036 2.488 2.488 0 0 0-.464-.036c-.651 0-1.163.347-1.536 1.04v5.088h-2.48ZM203.177 121.808c.549 0 1.052.085 1.508.256.456.171.848.419 1.176.744.328.325.584.724.768 1.196.184.472.276 1.007.276 1.604 0 .187-.008.339-.024.456a.733.733 0 0 1-.088.28.34.34 0 0 1-.172.144.798.798 0 0 1-.276.04h-4.784c.08.693.29 1.196.632 1.508.341.312.781.468 1.32.468.288 0 .536-.035.744-.104.208-.069.393-.147.556-.232.162-.085.312-.163.448-.232a.932.932 0 0 1 .428-.104c.197 0 .346.072.448.216l.72.888a3.695 3.695 0 0 1-.828.716c-.296.184-.6.328-.912.432a4.943 4.943 0 0 1-.936.216c-.312.04-.61.06-.892.06a4.661 4.661 0 0 1-1.636-.284 3.75 3.75 0 0 1-1.336-.844 3.962 3.962 0 0 1-.904-1.392c-.222-.555-.332-1.2-.332-1.936 0-.555.094-1.08.284-1.576.189-.496.461-.931.816-1.304a3.888 3.888 0 0 1 1.288-.888c.504-.219 1.073-.328 1.708-.328Zm.048 1.712c-.475 0-.846.135-1.112.404-.267.269-.443.657-.528 1.164h3.096c0-.197-.026-.389-.076-.576a1.413 1.413 0 0 0-.248-.5 1.27 1.27 0 0 0-.452-.356 1.544 1.544 0 0 0-.68-.136ZM214.057 130.232c-.235 0-.412-.032-.532-.096-.12-.064-.22-.197-.3-.4l-.176-.456a7.908 7.908 0 0 1-.6.464 3.818 3.818 0 0 1-.596.34 2.954 2.954 0 0 1-.656.208 4.07 4.07 0 0 1-.772.068c-.379 0-.723-.049-1.032-.148a2.152 2.152 0 0 1-.788-.436 1.916 1.916 0 0 1-.5-.716 2.57 2.57 0 0 1-.176-.988c0-.293.074-.595.224-.904.149-.309.408-.591.776-.844.368-.253.864-.465 1.488-.636.624-.171 1.41-.267 2.36-.288v-.352c0-.485-.1-.836-.3-1.052-.2-.216-.484-.324-.852-.324-.294 0-.534.032-.72.096a3.195 3.195 0 0 0-.5.216c-.147.08-.29.152-.428.216a1.177 1.177 0 0 1-.496.096.747.747 0 0 1-.436-.124.918.918 0 0 1-.284-.308l-.448-.776a5.03 5.03 0 0 1 1.668-.988 5.843 5.843 0 0 1 1.964-.324c.501 0 .953.081 1.356.244.402.163.744.389 1.024.68.28.291.494.636.644 1.036.149.4.224.837.224 1.312v5.184h-1.136Zm-2.848-1.512c.32 0 .6-.056.84-.168.24-.112.482-.293.728-.544v-1.152a8.189 8.189 0 0 0-1.224.128c-.32.064-.574.144-.76.24-.187.096-.316.205-.388.328a.777.777 0 0 0-.108.4c0 .283.077.481.232.596.154.115.381.172.68.172ZM219.865 130.36c-.395 0-.743-.057-1.044-.172a2.065 2.065 0 0 1-.76-.488 2.063 2.063 0 0 1-.468-.764 2.95 2.95 0 0 1-.16-1v-4.288h-.704a.467.467 0 0 1-.328-.124c-.091-.083-.136-.204-.136-.364v-.968l1.32-.256.488-2.024c.064-.256.245-.384.544-.384h1.296v2.424h2.016v1.696h-2.016v4.12a.77.77 0 0 0 .14.476.473.473 0 0 0 .404.188.789.789 0 0 0 .388-.092 3.05 3.05 0 0 1 .128-.064.321.321 0 0 1 .14-.028.29.29 0 0 1 .18.052.65.65 0 0 1 .14.164l.752 1.176c-.32.24-.68.42-1.08.54-.4.12-.814.18-1.24.18ZM226.905 121.808c.549 0 1.052.085 1.508.256.456.171.848.419 1.176.744.328.325.584.724.768 1.196.184.472.276 1.007.276 1.604 0 .187-.008.339-.024.456a.733.733 0 0 1-.088.28.34.34 0 0 1-.172.144.798.798 0 0 1-.276.04h-4.784c.08.693.29 1.196.632 1.508.341.312.781.468 1.32.468.288 0 .536-.035.744-.104.208-.069.393-.147.556-.232.162-.085.312-.163.448-.232a.932.932 0 0 1 .428-.104c.197 0 .346.072.448.216l.72.888a3.695 3.695 0 0 1-.828.716c-.296.184-.6.328-.912.432a4.943 4.943 0 0 1-.936.216c-.312.04-.61.06-.892.06a4.661 4.661 0 0 1-1.636-.284 3.75 3.75 0 0 1-1.336-.844 3.962 3.962 0 0 1-.904-1.392c-.222-.555-.332-1.2-.332-1.936 0-.555.094-1.08.284-1.576.189-.496.461-.931.816-1.304a3.888 3.888 0 0 1 1.288-.888c.504-.219 1.073-.328 1.708-.328Zm.048 1.712c-.475 0-.846.135-1.112.404-.267.269-.443.657-.528 1.164h3.096c0-.197-.026-.389-.076-.576a1.413 1.413 0 0 0-.248-.5 1.27 1.27 0 0 0-.452-.356 1.544 1.544 0 0 0-.68-.136Z" style="fill-rule:nonzero" transform="matrix(4.08704 0 0 5.2485 -643.569 -787.592)"/><path d="m75.987-125.045 4.606-22.272c.103-.5.458-.85.865-.85H89.4c.407 0 .762.35.865.85l4.605 22.345 3.876-22.301c.088-.522.452-.895.873-.895h10.09c.281 0 .547.172.716.46.17.289.224.661.144 1.004l-9.83 42.49c-.112.485-.461.817-.86.817h-8.658c-.395 0-.741-.328-.856-.81l-4.938-20.684-4.935 20.684c-.114.482-.464.81-.856.81h-8.658c-.398 0-.748-.332-.86-.818l-9.829-42.489a1.395 1.395 0 0 1 .143-1.004c.17-.288.436-.46.716-.46h10.09c.419 0 .782.373.874.895l3.875 22.228Z"/><path d="M202.057 170.938a1.963 1.963 0 0 0-.64-.736c-.267-.181-.592-.272-.976-.272-.181 0-.365.022-.552.064-.187.043-.355.11-.504.2a1.13 1.13 0 0 0-.36.344.916.916 0 0 0-.136.512c0 .352.123.608.368.768.245.16.613.299 1.104.416l1.072.256c.523.118.957.355 1.304.712.347.358.52.803.52 1.336 0 .406-.083.755-.248 1.048a2.111 2.111 0 0 1-.656.72 2.792 2.792 0 0 1-.936.408 4.498 4.498 0 0 1-1.072.128 3.936 3.936 0 0 1-1.608-.328c-.496-.218-.92-.594-1.272-1.128l.912-.624c.213.342.483.614.808.816.325.203.712.304 1.16.304.213 0 .427-.024.64-.072.213-.048.403-.122.568-.224.165-.101.299-.232.4-.392.101-.16.152-.346.152-.56 0-.373-.139-.642-.416-.808a3.649 3.649 0 0 0-1.008-.392l-1.024-.24a6.755 6.755 0 0 1-.52-.16 2.417 2.417 0 0 1-.64-.336 2.013 2.013 0 0 1-.536-.584c-.149-.24-.224-.536-.224-.888 0-.384.077-.72.232-1.008a2 2 0 0 1 .624-.704c.261-.181.557-.317.888-.408.331-.09.672-.136 1.024-.136a3.5 3.5 0 0 1 1.456.304c.448.203.795.55 1.04 1.04l-.944.624ZM211.321 172.906c0-.416-.067-.805-.2-1.168a2.675 2.675 0 0 0-1.456-1.576 2.87 2.87 0 0 0-1.176-.232 2.87 2.87 0 0 0-1.176.232c-.347.155-.64.366-.88.632-.24.267-.427.582-.56.944-.133.363-.2.752-.2 1.168 0 .416.067.806.2 1.168.133.363.32.678.56.944.24.267.533.478.88.632.347.155.739.232 1.176.232.437 0 .829-.077 1.176-.232.347-.154.643-.365.888-.632.245-.266.435-.581.568-.944.133-.362.2-.752.2-1.168Zm1.152 0c0 .566-.099 1.088-.296 1.568-.197.48-.472.896-.824 1.248a3.75 3.75 0 0 1-1.256.824 4.216 4.216 0 0 1-1.608.296 4.174 4.174 0 0 1-1.592-.296 3.75 3.75 0 0 1-1.256-.824 3.767 3.767 0 0 1-.824-1.248 4.088 4.088 0 0 1-.296-1.568c0-.565.099-1.088.296-1.568.197-.48.472-.896.824-1.248a3.766 3.766 0 0 1 1.256-.824 4.193 4.193 0 0 1 1.592-.296c.587 0 1.123.099 1.608.296.485.198.904.472 1.256.824s.627.768.824 1.248c.197.48.296 1.003.296 1.568ZM217.881 170.122h-1.776v6.528h-1.056v-6.528h-1.584v-.96h1.584v-2.048c0-.992.229-1.698.688-2.12.459-.421 1.067-.632 1.824-.632.149 0 .301.011.456.032.155.022.307.048.456.08l-.192.96a4.638 4.638 0 0 0-.4-.08 2.775 2.775 0 0 0-.416-.032c-.288 0-.523.048-.704.144a.992.992 0 0 0-.416.408c-.096.176-.16.382-.192.616a5.583 5.583 0 0 0-.048.752v1.92h1.776v.96ZM223.001 170.122h-2.16v4.416c0 .278.027.504.08.68a.956.956 0 0 0 .224.408.771.771 0 0 0 .344.2 1.6 1.6 0 0 0 .44.056c.181 0 .368-.026.56-.08.192-.053.368-.122.528-.208l.048.976c-.395.182-.869.272-1.424.272-.203 0-.413-.026-.632-.08a1.473 1.473 0 0 1-.6-.304 1.671 1.671 0 0 1-.448-.608c-.117-.256-.176-.592-.176-1.008v-4.72h-1.584v-.96h1.584v-2.112h1.056v2.112h2.16v.96ZM224.761 169.162l1.728 6.08h.032l2-6.08h1.088l2 6.08h.032l1.728-6.08h1.248l-2.368 7.488h-1.184l-1.984-6.144h-.032l-1.984 6.144h-1.184l-2.368-7.488h1.248ZM240.249 172.922c-.267 0-.6.014-1 .04-.4.027-.784.091-1.152.192a2.549 2.549 0 0 0-.944.472c-.261.214-.392.507-.392.88 0 .246.051.456.152.632s.237.32.408.432c.171.112.36.192.568.24.208.048.419.072.632.072.384 0 .717-.064 1-.192.283-.128.52-.301.712-.52.192-.218.333-.474.424-.768.091-.293.136-.605.136-.936v-.544h-.544Zm.544-.864v-.192c0-1.29-.64-1.936-1.92-1.936a3.31 3.31 0 0 0-2.288.88l-.64-.752c.704-.725 1.76-1.088 3.168-1.088.363 0 .712.054 1.048.16.336.107.627.27.872.488.245.219.443.494.592.824.149.331.224.726.224 1.184v3.344c0 .288.013.59.04.904.027.315.056.574.088.776h-1.024a5.962 5.962 0 0 1-.072-.592 8.332 8.332 0 0 1-.024-.624h-.032c-.309.502-.675.862-1.096 1.08-.421.219-.936.328-1.544.328a3.38 3.38 0 0 1-.96-.136 2.435 2.435 0 0 1-.824-.416 2.108 2.108 0 0 1-.576-.688 2.005 2.005 0 0 1-.216-.952c0-.608.157-1.085.472-1.432a2.897 2.897 0 0 1 1.184-.776c.475-.17.981-.277 1.52-.32a19.2 19.2 0 0 1 1.48-.064h.528ZM244.409 171.498c0-.33-.008-.666-.024-1.008a52.272 52.272 0 0 1-.04-1.328h1.04v1.392h.032c.075-.202.181-.397.32-.584a2.493 2.493 0 0 1 1.192-.864c.261-.09.557-.136.888-.136.299 0 .56.032.784.096l-.208 1.04c-.139-.053-.341-.08-.608-.08-.405 0-.752.078-1.04.232a2.31 2.31 0 0 0-.72.592 2.565 2.565 0 0 0-.56 1.576v4.224h-1.056v-5.152ZM255.145 172.33c0-.714-.213-1.293-.64-1.736-.427-.442-1.024-.664-1.792-.664-.341 0-.672.067-.992.2-.32.134-.6.312-.84.536-.24.224-.432.48-.576.768a1.981 1.981 0 0 0-.216.896h5.056Zm-5.088.864c.032.374.123.726.272 1.056a2.769 2.769 0 0 0 1.44 1.424c.32.139.667.208 1.04.208.565 0 1.053-.13 1.464-.392.411-.261.723-.562.936-.904l.816.672c-.448.566-.941.971-1.48 1.216a4.128 4.128 0 0 1-1.736.368 3.97 3.97 0 0 1-1.544-.296 3.605 3.605 0 0 1-1.224-.824 3.904 3.904 0 0 1-.808-1.248 4.088 4.088 0 0 1-.296-1.568c0-.565.096-1.088.288-1.568.192-.48.459-.896.8-1.248a3.682 3.682 0 0 1 2.688-1.12 3.66 3.66 0 0 1 1.52.304c.448.203.824.472 1.128.808.304.336.536.731.696 1.184.16.454.24.936.24 1.448v.48h-6.24ZM263.305 172.906c0 .416.067.806.2 1.168.133.363.323.678.568.944.245.267.541.478.888.632.347.155.739.232 1.176.232.427 0 .824-.077 1.192-.232a2.93 2.93 0 0 0 .952-.632c.267-.266.475-.581.624-.944.149-.362.224-.752.224-1.168 0-.416-.075-.805-.224-1.168a2.858 2.858 0 0 0-1.576-1.576 3.056 3.056 0 0 0-1.192-.232 2.87 2.87 0 0 0-1.176.232 2.675 2.675 0 0 0-1.456 1.576c-.133.363-.2.752-.2 1.168Zm6.832 3.744h-1.056v-1.248h-.032a2.741 2.741 0 0 1-.608.656c-.235.182-.48.331-.736.448-.256.118-.52.203-.792.256a4.216 4.216 0 0 1-2.384-.216 3.75 3.75 0 0 1-1.256-.824 3.767 3.767 0 0 1-.824-1.248 4.088 4.088 0 0 1-.296-1.568c0-.565.099-1.088.296-1.568.197-.48.472-.896.824-1.248a3.766 3.766 0 0 1 1.256-.824 4.235 4.235 0 0 1 2.384-.216c.272.054.536.139.792.256.256.118.501.267.736.448.235.182.437.4.608.656h.032v-5.856h1.056v12.096ZM278.265 172.33c0-.714-.213-1.293-.64-1.736-.427-.442-1.024-.664-1.792-.664-.341 0-.672.067-.992.2-.32.134-.6.312-.84.536-.24.224-.432.48-.576.768a1.981 1.981 0 0 0-.216.896h5.056Zm-5.088.864c.032.374.123.726.272 1.056a2.769 2.769 0 0 0 1.44 1.424c.32.139.667.208 1.04.208.565 0 1.053-.13 1.464-.392.411-.261.723-.562.936-.904l.816.672c-.448.566-.941.971-1.48 1.216a4.128 4.128 0 0 1-1.736.368 3.97 3.97 0 0 1-1.544-.296 3.605 3.605 0 0 1-1.224-.824 3.904 3.904 0 0 1-.808-1.248 4.088 4.088 0 0 1-.296-1.568c0-.565.096-1.088.288-1.568.192-.48.459-.896.8-1.248a3.682 3.682 0 0 1 2.688-1.12 3.66 3.66 0 0 1 1.52.304c.448.203.824.472 1.128.808.304.336.536.731.696 1.184.16.454.24.936.24 1.448v.48h-6.24ZM284.633 176.65h-1.184l-3.04-7.488h1.264l2.384 6.304h.032l2.384-6.304h1.2l-3.04 7.488ZM294.873 172.33c0-.714-.213-1.293-.64-1.736-.427-.442-1.024-.664-1.792-.664-.341 0-.672.067-.992.2-.32.134-.6.312-.84.536-.24.224-.432.48-.576.768a1.981 1.981 0 0 0-.216.896h5.056Zm-5.088.864c.032.374.123.726.272 1.056a2.769 2.769 0 0 0 1.44 1.424c.32.139.667.208 1.04.208.565 0 1.053-.13 1.464-.392.411-.261.723-.562.936-.904l.816.672c-.448.566-.941.971-1.48 1.216a4.128 4.128 0 0 1-1.736.368 3.97 3.97 0 0 1-1.544-.296 3.605 3.605 0 0 1-1.224-.824 3.904 3.904 0 0 1-.808-1.248 4.088 4.088 0 0 1-.296-1.568c0-.565.096-1.088.288-1.568.192-.48.459-.896.8-1.248a3.682 3.682 0 0 1 2.688-1.12 3.66 3.66 0 0 1 1.52.304c.448.203.824.472 1.128.808.304.336.536.731.696 1.184.16.454.24.936.24 1.448v.48h-6.24ZM298.185 164.554h1.056v12.096h-1.056zM308.201 172.906c0-.416-.067-.805-.2-1.168a2.675 2.675 0 0 0-1.456-1.576 2.87 2.87 0 0 0-1.176-.232 2.87 2.87 0 0 0-1.176.232c-.347.155-.64.366-.88.632-.24.267-.427.582-.56.944-.133.363-.2.752-.2 1.168 0 .416.067.806.2 1.168.133.363.32.678.56.944.24.267.533.478.88.632.347.155.739.232 1.176.232.437 0 .829-.077 1.176-.232.347-.154.643-.365.888-.632.245-.266.435-.581.568-.944.133-.362.2-.752.2-1.168Zm1.152 0c0 .566-.099 1.088-.296 1.568-.197.48-.472.896-.824 1.248a3.75 3.75 0 0 1-1.256.824 4.216 4.216 0 0 1-1.608.296 4.174 4.174 0 0 1-1.592-.296 3.75 3.75 0 0 1-1.256-.824 3.767 3.767 0 0 1-.824-1.248 4.088 4.088 0 0 1-.296-1.568c0-.565.099-1.088.296-1.568.197-.48.472-.896.824-1.248a3.766 3.766 0 0 1 1.256-.824 4.193 4.193 0 0 1 1.592-.296c.587 0 1.123.099 1.608.296.485.198.904.472 1.256.824s.627.768.824 1.248c.197.48.296 1.003.296 1.568ZM318.105 172.906c0-.416-.067-.805-.2-1.168a2.675 2.675 0 0 0-1.456-1.576 2.87 2.87 0 0 0-1.176-.232c-.437 0-.837.078-1.2.232a2.98 2.98 0 0 0-.944.632 2.858 2.858 0 0 0-.624.944 3.045 3.045 0 0 0-.224 1.168c0 .416.075.806.224 1.168.149.363.357.678.624.944.267.267.581.478.944.632.363.155.763.232 1.2.232.437 0 .829-.077 1.176-.232.347-.154.643-.365.888-.632.245-.266.435-.581.568-.944.133-.362.2-.752.2-1.168Zm-6.832-3.744h1.056v1.248h.032a2.76 2.76 0 0 1 .608-.656c.235-.181.48-.33.736-.448.256-.117.52-.202.792-.256a4.235 4.235 0 0 1 2.384.216c.485.198.904.472 1.256.824s.627.768.824 1.248c.197.48.296 1.003.296 1.568 0 .566-.099 1.088-.296 1.568-.197.48-.472.896-.824 1.248a3.75 3.75 0 0 1-1.256.824 4.216 4.216 0 0 1-2.384.216 3.471 3.471 0 0 1-.792-.256 3.736 3.736 0 0 1-.736-.448 2.741 2.741 0 0 1-.608-.656h-.032v5.856h-1.056v-12.096ZM321.049 170.826c0-.277-.008-.554-.024-.832a47.097 47.097 0 0 0-.056-.832h1.136v1.136h.032a2.486 2.486 0 0 1 1.064-.992 3.03 3.03 0 0 1 1.352-.336c.203 0 .419.022.648.064.229.043.451.12.664.232.213.112.413.27.6.472.187.203.344.464.472.784.213-.48.552-.858 1.016-1.136a2.788 2.788 0 0 1 1.448-.416c.96 0 1.669.254 2.128.76.459.507.688 1.23.688 2.168v4.752h-1.056v-4.368c0-.757-.133-1.338-.4-1.744-.267-.405-.763-.608-1.488-.608-.395 0-.725.078-.992.232-.267.155-.483.36-.648.616a2.728 2.728 0 0 0-.36.872 4.513 4.513 0 0 0-.112 1.016v3.984h-1.056v-4.368c0-.757-.133-1.338-.4-1.744-.267-.405-.763-.608-1.488-.608-.064 0-.211.022-.44.064-.229.043-.467.16-.712.352-.245.192-.467.48-.664.864s-.296.918-.296 1.6v3.84h-1.056v-5.824ZM340.505 172.33c0-.714-.213-1.293-.64-1.736-.427-.442-1.024-.664-1.792-.664-.341 0-.672.067-.992.2-.32.134-.6.312-.84.536-.24.224-.432.48-.576.768a1.981 1.981 0 0 0-.216.896h5.056Zm-5.088.864c.032.374.123.726.272 1.056a2.769 2.769 0 0 0 1.44 1.424c.32.139.667.208 1.04.208.565 0 1.053-.13 1.464-.392.411-.261.723-.562.936-.904l.816.672c-.448.566-.941.971-1.48 1.216a4.128 4.128 0 0 1-1.736.368 3.97 3.97 0 0 1-1.544-.296 3.605 3.605 0 0 1-1.224-.824 3.904 3.904 0 0 1-.808-1.248 4.088 4.088 0 0 1-.296-1.568c0-.565.096-1.088.288-1.568.192-.48.459-.896.8-1.248a3.682 3.682 0 0 1 2.688-1.12 3.66 3.66 0 0 1 1.52.304c.448.203.824.472 1.128.808.304.336.536.731.696 1.184.16.454.24.936.24 1.448v.48h-6.24ZM344.585 169.162c.021.203.035.403.04.6.005.198.008.398.008.6h.032c.117-.202.267-.389.448-.56.181-.17.384-.317.608-.44.224-.122.461-.218.712-.288.251-.069.499-.104.744-.104.96 0 1.669.254 2.128.76.459.507.688 1.23.688 2.168v4.752h-1.056v-4.144c0-.832-.144-1.469-.432-1.912-.288-.442-.821-.664-1.6-.664-.053 0-.203.022-.448.064-.245.043-.504.16-.776.352-.272.192-.515.48-.728.864-.213.384-.32.918-.32 1.6v3.84h-1.056v-5.84c0-.202-.008-.458-.024-.768a37.222 37.222 0 0 0-.056-.88h1.088ZM356.345 170.122h-2.16v4.416c0 .278.027.504.08.68a.956.956 0 0 0 .224.408.771.771 0 0 0 .344.2 1.6 1.6 0 0 0 .44.056c.181 0 .368-.026.56-.08.192-.053.368-.122.528-.208l.048.976c-.395.182-.869.272-1.424.272-.203 0-.413-.026-.632-.08a1.473 1.473 0 0 1-.6-.304 1.671 1.671 0 0 1-.448-.608c-.117-.256-.176-.592-.176-1.008v-4.72h-1.584v-.96h1.584v-2.112h1.056v2.112h2.16v.96Z" style="fill-rule:nonzero" transform="matrix(1.12922 0 0 1.45013 -162.73 -336.65)"/></g></g></svg>