<?xml version="1.0" encoding="UTF-8" standalone="no"?>
<!DOCTYPE svg PUBLIC "-//W3C//DTD SVG 1.1//EN" "http://www.w3.org/Graphics/SVG/1.1/DTD/svg11.dtd">
<svg width="100%" height="100%" viewBox="0 0 1831 330" version="1.1" xmlns="http://www.w3.org/2000/svg" xmlns:xlink="http://www.w3.org/1999/xlink" xml:space="preserve" xmlns:serif="http://www.serif.com/" style="fill-rule:evenodd;clip-rule:evenodd;stroke-linejoin:round;stroke-miterlimit:2;">
    <g transform="matrix(1,0,0,1,-169.485,-160)">
        <g transform="matrix(1,0,0,0.543307,2740,0)">
            <g transform="matrix(2.64883,-6.62915e-16,-2.43291e-16,-4.05983,-2888.03,2688.21)">
                <path d="M155.695,483.076L244.534,483.076L244.512,440.283L120.059,440L120,515.31L155.695,515.31L155.695,483.076Z" style="fill:rgb(0,183,255);"/>
            </g>
        </g>
        <g transform="matrix(1,0,0,0.543307,2740,0)">
            <g transform="matrix(2.64883,-6.62915e-16,-2.43291e-16,-4.05983,-2875.72,2243.21)">
                <path d="M240,405.363L204.252,405.413L204.271,436.973L115.223,436.973L115.353,480L240,480L240,405.363Z" style="fill:rgb(255,89,126);"/>
            </g>
        </g>
        <g transform="matrix(1,0,0,0.543307,2740,0)">
            <g transform="matrix(11.308,0,0,20.8132,-6751.81,-11500.5)">
                <path d="M408.587,589.768C408.565,589.484 408.459,589.262 408.27,589.103C408.081,588.944 407.795,588.865 407.411,588.865C407.167,588.865 406.967,588.894 406.813,588.952C406.658,589.01 406.543,589.089 406.469,589.189C406.396,589.288 406.357,589.402 406.354,589.529C406.349,589.635 406.368,589.729 406.412,589.813C406.456,589.897 406.526,589.972 406.623,590.039C406.719,590.105 406.843,590.166 406.994,590.22C407.144,590.274 407.323,590.322 407.531,590.365L408.246,590.518C408.729,590.62 409.143,590.755 409.487,590.923C409.83,591.091 410.112,591.287 410.33,591.513C410.549,591.739 410.71,591.993 410.814,592.274C410.918,592.555 410.971,592.862 410.974,593.194C410.971,593.768 410.827,594.254 410.543,594.652C410.259,595.049 409.854,595.352 409.327,595.559C408.8,595.767 408.167,595.87 407.428,595.87C406.67,595.87 406.009,595.758 405.445,595.534C404.881,595.309 404.443,594.963 404.132,594.496C403.821,594.029 403.664,593.43 403.661,592.7L405.911,592.7C405.925,592.967 405.992,593.191 406.112,593.373C406.231,593.555 406.399,593.693 406.616,593.787C406.834,593.88 407.093,593.927 407.394,593.927C407.647,593.927 407.859,593.896 408.029,593.833C408.2,593.771 408.329,593.684 408.417,593.574C408.505,593.463 408.55,593.336 408.553,593.194C408.55,593.061 408.507,592.944 408.423,592.843C408.339,592.742 408.202,592.651 408.012,592.57C407.822,592.489 407.565,592.413 407.241,592.342L406.371,592.154C405.599,591.987 404.99,591.706 404.545,591.313C404.101,590.919 403.88,590.382 403.883,589.7C403.88,589.146 404.028,588.661 404.328,588.245C404.628,587.828 405.044,587.504 405.577,587.271C406.109,587.038 406.721,586.922 407.411,586.922C408.116,586.922 408.725,587.039 409.239,587.275C409.754,587.511 410.151,587.843 410.43,588.27C410.71,588.698 410.852,589.197 410.854,589.768L408.587,589.768Z" style="fill:rgb(115,116,117);fill-rule:nonzero;"/>
                <path d="M420.332,591.404C420.332,592.376 420.143,593.195 419.765,593.861C419.387,594.527 418.877,595.032 418.235,595.374C417.593,595.716 416.877,595.887 416.087,595.887C415.292,595.887 414.574,595.715 413.933,595.37C413.293,595.024 412.784,594.519 412.408,593.853C412.031,593.186 411.843,592.37 411.843,591.404C411.843,590.433 412.031,589.614 412.408,588.948C412.784,588.282 413.293,587.777 413.933,587.435C414.574,587.093 415.292,586.922 416.087,586.922C416.877,586.922 417.593,587.093 418.235,587.435C418.877,587.777 419.387,588.282 419.765,588.948C420.143,589.614 420.332,590.433 420.332,591.404ZM417.894,591.404C417.894,590.882 417.825,590.441 417.688,590.081C417.55,589.722 417.347,589.449 417.078,589.263C416.81,589.077 416.479,588.984 416.087,588.984C415.695,588.984 415.365,589.077 415.097,589.263C414.828,589.449 414.625,589.722 414.487,590.081C414.349,590.441 414.281,590.882 414.281,591.404C414.281,591.927 414.349,592.368 414.487,592.728C414.625,593.087 414.828,593.36 415.097,593.546C415.365,593.732 415.695,593.825 416.087,593.825C416.479,593.825 416.81,593.732 417.078,593.546C417.347,593.36 417.55,593.087 417.688,592.728C417.825,592.368 417.894,591.927 417.894,591.404Z" style="fill:rgb(115,116,117);fill-rule:nonzero;"/>
                <path d="M421.423,595.768L421.423,587.041L427.559,587.041L427.559,588.95L423.792,588.95L423.792,590.45L427.184,590.45L427.184,592.359L423.792,592.359L423.792,595.768L421.423,595.768Z" style="fill:rgb(115,116,117);fill-rule:nonzero;"/>
                <path d="M428.19,588.95L428.19,587.041L435.775,587.041L435.775,588.95L433.15,588.95L433.15,595.768L430.815,595.768L430.815,588.95L428.19,588.95Z" style="fill:rgb(115,116,117);fill-rule:nonzero;"/>
                <path d="M438.877,595.768L436.303,587.041L438.945,587.041L440.138,592.41L440.207,592.41L441.621,587.041L443.701,587.041L445.116,592.427L445.184,592.427L446.377,587.041L449.019,587.041L446.445,595.768L444.178,595.768L442.695,590.893L442.627,590.893L441.144,595.768L438.877,595.768Z" style="fill:rgb(115,116,117);fill-rule:nonzero;"/>
                <path d="M451.876,594.098L451.371,595.768L448.815,595.768L451.695,587.041L454.934,587.041L457.815,595.768L455.258,595.768L454.754,594.098L451.876,594.098ZM454.218,592.325L453.349,589.444L453.281,589.444L452.411,592.325L454.218,592.325Z" style="fill:rgb(115,116,117);"/>
                <path d="M461.019,592.887L461.019,595.768L458.65,595.768L458.65,587.041L462.417,587.041C463.065,587.041 463.631,587.159 464.117,587.395C464.603,587.63 464.981,587.97 465.251,588.413C465.521,588.856 465.656,589.387 465.656,590.007C465.656,590.632 465.517,591.159 465.24,591.588C464.981,591.989 464.626,592.298 464.173,592.515L465.945,595.768L463.371,595.768L461.839,592.887L461.019,592.887ZM461.019,591.047L461.854,591.047C462.133,591.047 462.371,591.012 462.568,590.942C462.766,590.873 462.918,590.761 463.024,590.608C463.131,590.454 463.184,590.254 463.184,590.007C463.184,589.757 463.131,589.553 463.024,589.395C462.918,589.238 462.766,589.121 462.568,589.046C462.371,588.971 462.133,588.933 461.854,588.933L461.019,588.933L461.019,591.047Z" style="fill:rgb(115,116,117);"/>
                <path d="M466.661,595.768L466.661,587.041L472.951,587.041L472.951,588.95L469.031,588.95L469.031,590.45L472.627,590.45L472.627,592.359L469.031,592.359L469.031,593.859L472.934,593.859L472.934,595.768L466.661,595.768Z" style="fill:rgb(115,116,117);fill-rule:nonzero;"/>
            </g>
        </g>
        <g transform="matrix(1,0,0,0.543307,2740,0)">
            <g transform="matrix(23.7959,0,0,43.7982,-11789.4,-25416.8)">
                <path d="M406.099,595.768L403.525,587.041L406.167,587.041L407.36,592.41L407.428,592.41L408.843,587.041L410.923,587.041L412.337,592.427L412.406,592.427L413.599,587.041L416.241,587.041L413.667,595.768L411.4,595.768L409.917,590.893L409.849,590.893L408.366,595.768L406.099,595.768Z" style="fill-rule:nonzero;"/>
                <g transform="matrix(1,0,0,0.986692,0,7.93006)">
                    <path d="M424.746,590.314L422.343,590.314C422.326,590.115 422.281,589.934 422.209,589.772C422.136,589.61 422.037,589.471 421.911,589.353C421.784,589.235 421.631,589.144 421.452,589.08C421.273,589.016 421.07,588.984 420.843,588.984C420.445,588.984 420.109,589.081 419.835,589.274C419.561,589.467 419.354,589.744 419.213,590.105C419.072,590.466 419.002,590.899 419.002,591.404C419.002,591.939 419.074,592.385 419.217,592.745C419.361,593.104 419.569,593.374 419.842,593.554C420.114,593.735 420.442,593.825 420.826,593.825C421.045,593.825 421.241,593.797 421.414,593.742C421.587,593.686 421.738,593.606 421.866,593.501C421.994,593.396 422.098,593.269 422.179,593.12C422.26,592.971 422.315,592.802 422.343,592.615L424.746,592.632C424.718,593.001 424.614,593.377 424.435,593.759C424.256,594.141 424.003,594.493 423.675,594.816C423.347,595.138 422.941,595.397 422.458,595.593C421.975,595.789 421.414,595.887 420.775,595.887C419.974,595.887 419.256,595.716 418.621,595.372C417.986,595.028 417.484,594.522 417.116,593.855C416.749,593.187 416.565,592.37 416.565,591.404C416.565,590.433 416.752,589.614 417.127,588.948C417.502,588.282 418.008,587.777 418.644,587.435C419.281,587.093 419.991,586.922 420.775,586.922C421.326,586.922 421.833,586.997 422.296,587.147C422.759,587.298 423.165,587.517 423.515,587.806C423.864,588.094 424.146,588.449 424.359,588.869C424.572,589.289 424.701,589.771 424.746,590.314Z" style="fill-rule:nonzero;"/>
                </g>
                <path d="M428.19,592.887L428.19,595.768L425.82,595.768L425.82,587.041L429.587,587.041C430.235,587.041 430.802,587.159 431.288,587.395C431.773,587.63 432.151,587.97 432.421,588.413C432.691,588.856 432.826,589.387 432.826,590.007C432.826,590.632 432.688,591.159 432.411,591.588C432.152,591.989 431.796,592.298 431.344,592.515L433.116,595.768L430.542,595.768L429.01,592.887L428.19,592.887ZM428.19,591.047L429.025,591.047C429.303,591.047 429.541,591.012 429.739,590.942C429.936,590.873 430.088,590.761 430.195,590.608C430.301,590.454 430.354,590.254 430.354,590.007C430.354,589.757 430.301,589.553 430.195,589.395C430.088,589.238 429.936,589.121 429.739,589.046C429.541,588.971 429.303,588.933 429.025,588.933L428.19,588.933L428.19,591.047Z"/>
                <path d="M433.832,595.768L433.832,587.041L440.121,587.041L440.121,588.95L436.201,588.95L436.201,590.45L439.798,590.45L439.798,592.359L436.201,592.359L436.201,593.859L440.104,593.859L440.104,595.768L433.832,595.768Z" style="fill-rule:nonzero;"/>
                <path d="M444.069,594.098L443.565,595.768L441.008,595.768L443.888,587.041L447.127,587.041L450.008,595.768L447.451,595.768L446.947,594.098L444.069,594.098ZM446.412,592.325L445.542,589.444L445.474,589.444L444.604,592.325L446.412,592.325Z"/>
                <path d="M449.582,588.95L449.582,587.041L457.167,587.041L457.167,588.95L454.542,588.95L454.542,595.768L452.207,595.768L452.207,588.95L449.582,588.95Z" style="fill-rule:nonzero;"/>
                <path d="M458.053,595.768L458.053,587.041L464.343,587.041L464.343,588.95L460.423,588.95L460.423,590.45L464.019,590.45L464.019,592.359L460.423,592.359L460.423,593.859L464.326,593.859L464.326,595.768L458.053,595.768Z" style="fill-rule:nonzero;"/>
            </g>
        </g>
    </g>
</svg>
