<?xml version="1.0" encoding="UTF-8" standalone="no"?>
<!DOCTYPE svg PUBLIC "-//W3C//DTD SVG 1.1//EN" "http://www.w3.org/Graphics/SVG/1.1/DTD/svg11.dtd">
<svg width="100%" height="100%" viewBox="0 0 100 100" version="1.1" xmlns="http://www.w3.org/2000/svg" xmlns:xlink="http://www.w3.org/1999/xlink" xml:space="preserve" xmlns:serif="http://www.serif.com/" style="fill-rule:evenodd;clip-rule:evenodd;stroke-linejoin:round;stroke-miterlimit:2;">
    <g transform="matrix(1,0,0,1,0,-173)">
        <g id="logo_mark" transform="matrix(1,0,0,1,0,-0.996205)">
            <rect x="0" y="173.996" width="99.957" height="99.957" style="fill:none;"/>
            <clipPath id="_clip1">
                <rect x="0" y="173.996" width="99.957" height="99.957"/>
            </clipPath>
            <g clip-path="url(#_clip1)">
                <g transform="matrix(0.551035,0,0,0.551035,-548.085,-203.521)">
                    <path d="M1085.35,685.105C1135.4,685.105 1176.05,725.746 1176.05,775.804C1176.05,825.862 1135.4,866.503 1085.35,866.503C1035.29,866.503 994.647,825.862 994.647,775.804C994.647,725.746 1035.29,685.105 1085.35,685.105ZM1014.47,735.414L1042.54,825.821L1063.46,825.821C1066.43,825.821 1068.35,824.31 1069.22,821.288L1082.3,776.389C1082.93,774.355 1083.5,772.335 1084,770.33C1084.49,768.325 1084.94,766.305 1085.35,764.271C1085.75,766.247 1086.22,768.223 1086.74,770.199C1087.26,772.175 1087.82,774.181 1088.4,776.215L1101.3,821.288C1101.77,822.915 1102.4,824.078 1103.22,824.775C1104.03,825.473 1105.02,825.821 1106.18,825.821L1128.15,825.821L1156.23,735.414L1135.65,735.414C1133.91,735.414 1132.35,735.849 1130.99,736.721C1129.62,737.593 1128.79,738.726 1128.5,740.121L1118.91,780.661C1118.15,783.858 1117.44,786.895 1116.78,789.772C1116.11,792.649 1115.54,795.54 1115.08,798.446C1114.32,795.482 1113.52,792.547 1112.68,789.641C1111.84,786.735 1111.01,783.741 1110.19,780.661L1099.38,740.034C1099.03,738.697 1098.18,737.579 1096.81,736.678C1095.44,735.777 1093.8,735.326 1091.88,735.326L1079.85,735.326C1078.11,735.326 1076.57,735.777 1075.23,736.678C1073.9,737.579 1073.05,738.697 1072.7,740.034L1061.37,780.661C1060.5,783.8 1059.61,786.807 1058.71,789.684C1057.81,792.561 1056.95,795.424 1056.14,798.272C1055.67,795.424 1055.15,792.547 1054.57,789.641C1053.99,786.735 1053.35,783.741 1052.65,780.661L1043.59,740.121C1043.3,738.726 1042.45,737.593 1041.06,736.721C1039.66,735.849 1038.01,735.414 1036.09,735.414L1014.47,735.414Z" style="fill:rgb(13,121,242);"/>
                </g>
            </g>
        </g>
    </g>
</svg>
