<?xml version="1.0" encoding="UTF-8" standalone="no"?>
<!DOCTYPE svg PUBLIC "-//W3C//DTD SVG 1.1//EN" "http://www.w3.org/Graphics/SVG/1.1/DTD/svg11.dtd">
<svg width="100%" height="100%" viewBox="0 0 117 82" version="1.1" xmlns="http://www.w3.org/2000/svg" xmlns:xlink="http://www.w3.org/1999/xlink" xml:space="preserve" xmlns:serif="http://www.serif.com/" style="fill-rule:evenodd;clip-rule:evenodd;stroke-linejoin:round;stroke-miterlimit:2;">
    <g transform="matrix(1,0,0,1,-140,-43.5763)">
        <g transform="matrix(1,0,0,1,-183.743,-140)">
            <g transform="matrix(1.3932,0,0,1.3932,-572.871,-271.118)">
                <path d="M686.601,326.367L696.198,341.5L710,341.5L700,326.367L686.601,326.367Z" style="fill:rgb(0,183,255);"/>
            </g>
            <g transform="matrix(-1.3932,-1.70618e-16,1.70618e-16,-1.3932,1336.57,680.437)">
                <path d="M686.601,326.367L696.198,341.5L710,341.5L700,326.367L686.601,326.367Z" style="fill:rgb(0,183,255);"/>
            </g>
            <g transform="matrix(1.3932,0,0,-1.3932,-572.871,680.437)">
                <path d="M686.601,326.367L696.198,341.5L710,341.5L700,326.367L686.601,326.367Z" style="fill:rgb(255,89,126);"/>
            </g>
            <g transform="matrix(-1.3932,-1.70618e-16,-1.70618e-16,1.3932,1336.57,-271.118)">
                <path d="M686.601,326.367L696.198,341.5L710,341.5L700,326.367L686.601,326.367Z" style="fill:rgb(255,89,126);"/>
            </g>
        </g>
        <g transform="matrix(2.30549,0,0,2.30549,-707.611,-431.069)">
            <g transform="matrix(9.94584,0,0,9.94584,367.48,234.687)">
                <path d="M0.232,-0L0.017,-0.727L0.237,-0.727L0.337,-0.28L0.342,-0.28L0.46,-0.727L0.634,-0.727L0.751,-0.278L0.757,-0.278L0.857,-0.727L1.077,-0.727L0.862,-0L0.673,-0L0.55,-0.406L0.544,-0.406L0.42,-0L0.232,-0Z" style="fill-rule:nonzero;"/>
            </g>
            <g transform="matrix(9.94584,0,0,9.94584,378.019,234.687)">
                <path d="M0.726,-0.455L0.526,-0.455C0.524,-0.471 0.52,-0.486 0.514,-0.5C0.508,-0.513 0.5,-0.525 0.49,-0.535C0.479,-0.544 0.466,-0.552 0.451,-0.557C0.436,-0.563 0.42,-0.565 0.401,-0.565C0.367,-0.565 0.339,-0.557 0.317,-0.541C0.294,-0.525 0.276,-0.502 0.265,-0.472C0.253,-0.442 0.247,-0.406 0.247,-0.364C0.247,-0.319 0.253,-0.282 0.265,-0.252C0.277,-0.222 0.294,-0.2 0.317,-0.184C0.34,-0.169 0.367,-0.162 0.399,-0.162C0.417,-0.162 0.434,-0.164 0.448,-0.169C0.463,-0.173 0.475,-0.18 0.486,-0.189C0.496,-0.198 0.505,-0.208 0.512,-0.221C0.519,-0.233 0.523,-0.247 0.526,-0.263L0.726,-0.261C0.723,-0.231 0.715,-0.199 0.7,-0.167C0.685,-0.136 0.664,-0.106 0.637,-0.079C0.609,-0.052 0.575,-0.031 0.535,-0.015C0.495,0.002 0.448,0.01 0.395,0.01C0.328,0.01 0.268,-0.004 0.215,-0.033C0.162,-0.062 0.121,-0.104 0.09,-0.159C0.059,-0.215 0.044,-0.283 0.044,-0.364C0.044,-0.445 0.06,-0.513 0.091,-0.568C0.122,-0.624 0.164,-0.666 0.217,-0.694C0.27,-0.723 0.33,-0.737 0.395,-0.737C0.441,-0.737 0.483,-0.731 0.522,-0.718C0.56,-0.706 0.594,-0.688 0.623,-0.664C0.652,-0.64 0.676,-0.61 0.694,-0.575C0.711,-0.54 0.722,-0.5 0.726,-0.455Z" style="fill-rule:nonzero;"/>
            </g>
            <g transform="matrix(9.94584,0,0,9.94584,385.662,234.687)">
                <path d="M0.047,-0L0.047,-0.727L0.361,-0.727C0.415,-0.727 0.462,-0.717 0.502,-0.698C0.543,-0.678 0.574,-0.65 0.597,-0.613C0.619,-0.576 0.631,-0.532 0.631,-0.48C0.631,-0.428 0.619,-0.384 0.596,-0.348C0.573,-0.313 0.541,-0.286 0.499,-0.267C0.458,-0.249 0.409,-0.24 0.354,-0.24L0.166,-0.24L0.166,-0.393L0.314,-0.393C0.337,-0.393 0.357,-0.396 0.373,-0.402C0.39,-0.408 0.403,-0.417 0.411,-0.43C0.42,-0.443 0.425,-0.46 0.425,-0.48C0.425,-0.501 0.42,-0.518 0.411,-0.531C0.403,-0.544 0.39,-0.554 0.373,-0.56C0.357,-0.566 0.337,-0.57 0.314,-0.57L0.244,-0.57L0.244,-0L0.047,-0ZM0.473,-0.334L0.655,-0L0.44,-0L0.263,-0.334L0.473,-0.334Z" style="fill-rule:nonzero;"/>
            </g>
            <g transform="matrix(9.94584,0,0,9.94584,392.302,234.687)">
                <path d="M0.047,-0L0.047,-0.727L0.571,-0.727L0.571,-0.568L0.244,-0.568L0.244,-0.443L0.544,-0.443L0.544,-0.284L0.244,-0.284L0.244,-0.159L0.57,-0.159L0.57,-0L0.047,-0Z" style="fill-rule:nonzero;"/>
            </g>
            <g transform="matrix(9.94584,0,0,9.94584,398.49,234.687)">
                <path d="M0.236,-0L0.023,-0L0.263,-0.727L0.533,-0.727L0.773,-0L0.56,-0L0.401,-0.527L0.395,-0.527L0.236,-0ZM0.196,-0.287L0.597,-0.287L0.597,-0.139L0.196,-0.139L0.196,-0.287Z" style="fill-rule:nonzero;"/>
            </g>
            <g transform="matrix(9.94584,0,0,9.94584,405.554,234.687)">
                <path d="M0.027,-0.568L0.027,-0.727L0.659,-0.727L0.659,-0.568L0.44,-0.568L0.44,-0L0.246,-0L0.246,-0.568L0.027,-0.568Z" style="fill-rule:nonzero;"/>
            </g>
            <g transform="matrix(9.94584,0,0,9.94584,412.378,234.687)">
                <path d="M0.047,-0L0.047,-0.727L0.571,-0.727L0.571,-0.568L0.244,-0.568L0.244,-0.443L0.544,-0.443L0.544,-0.284L0.244,-0.284L0.244,-0.159L0.57,-0.159L0.57,-0L0.047,-0Z" style="fill-rule:nonzero;"/>
            </g>
            <g transform="matrix(9.94584,0,0,9.94584,418.566,234.687)">
            </g>
        </g>
        <g transform="matrix(0.925871,0,0,0.925871,-59.8526,-144.764)">
            <g transform="matrix(11.6944,0,0,11.6944,215.676,289.218)">
                <path d="M0.503,-0.412L0.405,-0.395C0.402,-0.408 0.398,-0.42 0.392,-0.431C0.385,-0.442 0.375,-0.451 0.362,-0.458C0.349,-0.465 0.331,-0.468 0.309,-0.468C0.279,-0.468 0.252,-0.461 0.229,-0.448C0.206,-0.434 0.193,-0.416 0.19,-0.394C0.187,-0.377 0.191,-0.363 0.202,-0.352C0.214,-0.341 0.233,-0.332 0.262,-0.325L0.346,-0.305C0.394,-0.293 0.429,-0.275 0.45,-0.251C0.471,-0.227 0.478,-0.195 0.472,-0.155C0.466,-0.123 0.452,-0.094 0.429,-0.069C0.406,-0.044 0.377,-0.024 0.342,-0.01C0.306,0.004 0.266,0.011 0.223,0.011C0.161,0.011 0.113,-0.002 0.078,-0.028C0.044,-0.055 0.026,-0.092 0.025,-0.14L0.13,-0.156C0.132,-0.129 0.141,-0.109 0.159,-0.095C0.176,-0.081 0.2,-0.075 0.232,-0.074C0.267,-0.074 0.297,-0.082 0.321,-0.097C0.345,-0.112 0.358,-0.13 0.361,-0.152C0.364,-0.169 0.361,-0.183 0.35,-0.194C0.34,-0.205 0.322,-0.213 0.296,-0.219L0.208,-0.24C0.159,-0.251 0.124,-0.27 0.104,-0.296C0.083,-0.322 0.076,-0.354 0.083,-0.393C0.088,-0.425 0.102,-0.453 0.124,-0.477C0.146,-0.501 0.173,-0.519 0.207,-0.533C0.241,-0.546 0.278,-0.553 0.318,-0.553C0.378,-0.553 0.423,-0.54 0.452,-0.514C0.482,-0.489 0.499,-0.455 0.503,-0.412Z" style="fill:rgb(112,112,112);fill-rule:nonzero;"/>
            </g>
            <g transform="matrix(11.6944,0,0,11.6944,221.941,289.218)">
                <path d="M0.258,0.011C0.206,0.011 0.163,-0.001 0.128,-0.025C0.093,-0.049 0.069,-0.082 0.055,-0.125C0.041,-0.168 0.038,-0.218 0.047,-0.275C0.056,-0.331 0.075,-0.379 0.102,-0.421C0.129,-0.463 0.164,-0.495 0.205,-0.518C0.246,-0.541 0.292,-0.553 0.343,-0.553C0.395,-0.553 0.438,-0.541 0.473,-0.517C0.507,-0.493 0.532,-0.459 0.546,-0.416C0.56,-0.373 0.563,-0.323 0.554,-0.266C0.545,-0.21 0.526,-0.162 0.499,-0.12C0.471,-0.079 0.437,-0.046 0.396,-0.023C0.355,-0 0.309,0.011 0.258,0.011ZM0.264,-0.078C0.298,-0.078 0.328,-0.087 0.354,-0.105C0.379,-0.123 0.4,-0.147 0.416,-0.177C0.432,-0.207 0.443,-0.239 0.449,-0.275C0.454,-0.309 0.454,-0.341 0.449,-0.369C0.443,-0.398 0.431,-0.421 0.413,-0.438C0.395,-0.455 0.37,-0.464 0.337,-0.464C0.303,-0.464 0.273,-0.455 0.247,-0.437C0.222,-0.419 0.201,-0.394 0.185,-0.364C0.169,-0.334 0.158,-0.302 0.152,-0.266C0.147,-0.232 0.147,-0.201 0.152,-0.172C0.158,-0.144 0.17,-0.121 0.188,-0.104C0.206,-0.087 0.232,-0.078 0.264,-0.078Z" style="fill:rgb(112,112,112);fill-rule:nonzero;"/>
            </g>
            <g transform="matrix(11.6944,0,0,11.6944,228.985,289.218)">
                <path d="M0.377,-0.545L0.363,-0.46L0.054,-0.46L0.068,-0.545L0.377,-0.545ZM0.062,-0L0.163,-0.609C0.169,-0.643 0.181,-0.671 0.199,-0.694C0.218,-0.716 0.241,-0.733 0.267,-0.744C0.294,-0.756 0.321,-0.761 0.35,-0.761C0.371,-0.761 0.39,-0.76 0.404,-0.756C0.419,-0.753 0.429,-0.75 0.436,-0.747L0.397,-0.661C0.392,-0.662 0.386,-0.664 0.379,-0.666C0.372,-0.668 0.362,-0.669 0.351,-0.669C0.325,-0.669 0.306,-0.663 0.293,-0.65C0.28,-0.637 0.271,-0.619 0.266,-0.595L0.168,-0L0.062,-0Z" style="fill:rgb(112,112,112);fill-rule:nonzero;"/>
            </g>
            <g transform="matrix(11.6944,0,0,11.6944,233.302,289.218)">
                <path d="M0.372,-0.545L0.358,-0.46L0.06,-0.46L0.074,-0.545L0.372,-0.545ZM0.175,-0.676L0.281,-0.676L0.195,-0.16C0.192,-0.14 0.192,-0.124 0.197,-0.114C0.201,-0.103 0.208,-0.096 0.218,-0.093C0.227,-0.089 0.237,-0.087 0.249,-0.087C0.258,-0.087 0.265,-0.088 0.271,-0.089C0.278,-0.09 0.283,-0.091 0.287,-0.092L0.292,-0.004C0.285,-0.002 0.276,0.001 0.264,0.003C0.252,0.006 0.237,0.007 0.22,0.007C0.192,0.008 0.167,0.003 0.144,-0.008C0.122,-0.018 0.105,-0.035 0.094,-0.056C0.083,-0.078 0.08,-0.105 0.086,-0.138L0.175,-0.676Z" style="fill:rgb(112,112,112);fill-rule:nonzero;"/>
            </g>
            <g transform="matrix(11.6944,0,0,11.6944,237.651,289.218)">
                <path d="M0.144,-0L0.075,-0.545L0.184,-0.545L0.224,-0.145L0.23,-0.145L0.404,-0.545L0.513,-0.545L0.553,-0.147L0.559,-0.147L0.732,-0.545L0.841,-0.545L0.59,-0L0.482,-0L0.436,-0.394L0.428,-0.394L0.252,-0L0.144,-0Z" style="fill:rgb(112,112,112);fill-rule:nonzero;"/>
            </g>
            <g transform="matrix(11.6944,0,0,11.6944,247.299,289.218)">
                <path d="M0.183,0.012C0.149,0.012 0.119,0.006 0.093,-0.007C0.067,-0.02 0.048,-0.039 0.036,-0.064C0.023,-0.088 0.02,-0.118 0.026,-0.154C0.031,-0.185 0.042,-0.21 0.057,-0.23C0.072,-0.25 0.091,-0.266 0.113,-0.277C0.135,-0.289 0.158,-0.298 0.184,-0.304C0.21,-0.31 0.236,-0.314 0.263,-0.317C0.296,-0.321 0.322,-0.324 0.343,-0.327C0.364,-0.329 0.379,-0.333 0.39,-0.339C0.4,-0.345 0.407,-0.354 0.409,-0.366L0.409,-0.369C0.414,-0.4 0.409,-0.424 0.395,-0.441C0.382,-0.458 0.358,-0.466 0.324,-0.466C0.288,-0.466 0.258,-0.459 0.234,-0.443C0.21,-0.427 0.192,-0.41 0.181,-0.391L0.086,-0.413C0.103,-0.446 0.125,-0.473 0.151,-0.494C0.177,-0.514 0.206,-0.529 0.238,-0.539C0.269,-0.548 0.302,-0.553 0.334,-0.553C0.356,-0.553 0.379,-0.55 0.402,-0.545C0.426,-0.54 0.447,-0.53 0.466,-0.517C0.486,-0.503 0.5,-0.484 0.51,-0.459C0.519,-0.434 0.52,-0.402 0.514,-0.362L0.454,-0L0.35,-0L0.363,-0.074L0.359,-0.074C0.35,-0.061 0.337,-0.047 0.321,-0.034C0.305,-0.021 0.286,-0.01 0.263,-0.001C0.24,0.008 0.213,0.012 0.183,0.012ZM0.22,-0.073C0.249,-0.073 0.275,-0.079 0.298,-0.09C0.321,-0.102 0.339,-0.117 0.354,-0.136C0.368,-0.155 0.377,-0.175 0.38,-0.197L0.392,-0.267C0.388,-0.263 0.38,-0.26 0.368,-0.257C0.357,-0.254 0.345,-0.251 0.331,-0.249C0.317,-0.246 0.303,-0.244 0.29,-0.242C0.276,-0.241 0.265,-0.239 0.257,-0.238C0.236,-0.235 0.216,-0.231 0.198,-0.225C0.18,-0.219 0.165,-0.21 0.153,-0.198C0.141,-0.187 0.133,-0.172 0.13,-0.153C0.126,-0.127 0.132,-0.107 0.149,-0.093C0.166,-0.08 0.189,-0.073 0.22,-0.073Z" style="fill:rgb(112,112,112);fill-rule:nonzero;"/>
            </g>
            <g transform="matrix(11.6944,0,0,11.6944,253.956,289.218)">
                <path d="M0.026,-0L0.117,-0.545L0.22,-0.545L0.205,-0.459L0.211,-0.459C0.225,-0.488 0.247,-0.511 0.275,-0.528C0.303,-0.545 0.333,-0.554 0.365,-0.554C0.372,-0.554 0.38,-0.554 0.388,-0.553C0.397,-0.553 0.404,-0.552 0.41,-0.551L0.393,-0.449C0.389,-0.451 0.381,-0.452 0.371,-0.454C0.36,-0.455 0.349,-0.456 0.338,-0.456C0.313,-0.456 0.29,-0.451 0.268,-0.44C0.247,-0.43 0.229,-0.415 0.215,-0.397C0.2,-0.378 0.191,-0.357 0.187,-0.333L0.132,-0L0.026,-0Z" style="fill:rgb(112,112,112);fill-rule:nonzero;"/>
            </g>
            <g transform="matrix(11.6944,0,0,11.6944,258.265,289.218)">
                <path d="M0.26,0.011C0.206,0.011 0.162,-0 0.127,-0.024C0.092,-0.047 0.068,-0.079 0.054,-0.121C0.04,-0.163 0.038,-0.213 0.047,-0.269C0.056,-0.325 0.075,-0.374 0.103,-0.417C0.131,-0.46 0.165,-0.493 0.207,-0.517C0.249,-0.541 0.295,-0.553 0.346,-0.553C0.377,-0.553 0.406,-0.547 0.433,-0.537C0.46,-0.527 0.484,-0.511 0.503,-0.489C0.522,-0.468 0.535,-0.439 0.543,-0.405C0.55,-0.37 0.55,-0.328 0.542,-0.278L0.536,-0.241L0.102,-0.241L0.114,-0.32L0.444,-0.32C0.449,-0.348 0.447,-0.373 0.44,-0.395C0.432,-0.416 0.419,-0.433 0.401,-0.446C0.383,-0.459 0.36,-0.465 0.332,-0.465C0.304,-0.465 0.277,-0.457 0.253,-0.442C0.228,-0.427 0.207,-0.409 0.191,-0.386C0.174,-0.363 0.164,-0.339 0.16,-0.314L0.147,-0.241C0.141,-0.202 0.142,-0.17 0.151,-0.146C0.159,-0.122 0.174,-0.104 0.195,-0.093C0.217,-0.082 0.243,-0.077 0.275,-0.077C0.296,-0.077 0.315,-0.08 0.333,-0.085C0.35,-0.091 0.366,-0.1 0.38,-0.111C0.393,-0.123 0.405,-0.137 0.414,-0.155L0.511,-0.136C0.498,-0.107 0.48,-0.081 0.455,-0.059C0.431,-0.037 0.402,-0.02 0.369,-0.007C0.336,0.005 0.3,0.011 0.26,0.011Z" style="fill:rgb(112,112,112);fill-rule:nonzero;"/>
            </g>
            <g transform="matrix(11.6944,0,0,11.6944,265.149,289.218)">
            </g>
            <g transform="matrix(11.6944,0,0,11.6944,268.246,289.218)">
                <path d="M0.229,0.011C0.185,0.011 0.148,-0.001 0.117,-0.023C0.086,-0.046 0.065,-0.078 0.052,-0.12C0.039,-0.162 0.038,-0.213 0.047,-0.272C0.057,-0.331 0.076,-0.381 0.103,-0.423C0.129,-0.465 0.162,-0.497 0.2,-0.519C0.238,-0.541 0.279,-0.553 0.323,-0.553C0.357,-0.553 0.383,-0.547 0.402,-0.536C0.421,-0.524 0.435,-0.511 0.444,-0.496C0.453,-0.481 0.46,-0.468 0.464,-0.457L0.47,-0.457L0.515,-0.727L0.622,-0.727L0.501,-0L0.397,-0L0.412,-0.085L0.403,-0.085C0.394,-0.073 0.383,-0.06 0.368,-0.045C0.354,-0.03 0.335,-0.017 0.313,-0.006C0.29,0.005 0.263,0.011 0.229,0.011ZM0.265,-0.08C0.296,-0.08 0.323,-0.088 0.347,-0.104C0.372,-0.12 0.392,-0.143 0.408,-0.172C0.424,-0.201 0.436,-0.234 0.442,-0.273C0.448,-0.311 0.448,-0.344 0.442,-0.372C0.435,-0.401 0.422,-0.423 0.403,-0.439C0.384,-0.454 0.359,-0.462 0.328,-0.462C0.297,-0.462 0.269,-0.454 0.245,-0.437C0.221,-0.421 0.202,-0.398 0.187,-0.37C0.172,-0.341 0.161,-0.309 0.155,-0.273C0.149,-0.236 0.149,-0.203 0.155,-0.174C0.16,-0.145 0.172,-0.122 0.191,-0.105C0.209,-0.088 0.234,-0.08 0.265,-0.08Z" style="fill:rgb(112,112,112);fill-rule:nonzero;"/>
            </g>
            <g transform="matrix(11.6944,0,0,11.6944,275.568,289.218)">
                <path d="M0.26,0.011C0.206,0.011 0.162,-0 0.127,-0.024C0.092,-0.047 0.068,-0.079 0.054,-0.121C0.04,-0.163 0.038,-0.213 0.047,-0.269C0.056,-0.325 0.075,-0.374 0.103,-0.417C0.131,-0.46 0.165,-0.493 0.207,-0.517C0.249,-0.541 0.295,-0.553 0.346,-0.553C0.377,-0.553 0.406,-0.547 0.433,-0.537C0.46,-0.527 0.484,-0.511 0.503,-0.489C0.522,-0.468 0.535,-0.439 0.543,-0.405C0.55,-0.37 0.55,-0.328 0.542,-0.278L0.536,-0.241L0.102,-0.241L0.114,-0.32L0.444,-0.32C0.449,-0.348 0.447,-0.373 0.44,-0.395C0.432,-0.416 0.419,-0.433 0.401,-0.446C0.383,-0.459 0.36,-0.465 0.332,-0.465C0.304,-0.465 0.277,-0.457 0.253,-0.442C0.228,-0.427 0.207,-0.409 0.191,-0.386C0.174,-0.363 0.164,-0.339 0.16,-0.314L0.147,-0.241C0.141,-0.202 0.142,-0.17 0.151,-0.146C0.159,-0.122 0.174,-0.104 0.195,-0.093C0.217,-0.082 0.243,-0.077 0.275,-0.077C0.296,-0.077 0.315,-0.08 0.333,-0.085C0.35,-0.091 0.366,-0.1 0.38,-0.111C0.393,-0.123 0.405,-0.137 0.414,-0.155L0.511,-0.136C0.498,-0.107 0.48,-0.081 0.455,-0.059C0.431,-0.037 0.402,-0.02 0.369,-0.007C0.336,0.005 0.3,0.011 0.26,0.011Z" style="fill:rgb(112,112,112);fill-rule:nonzero;"/>
            </g>
            <g transform="matrix(11.6944,0,0,11.6944,282.252,289.218)">
                <path d="M0.584,-0.545L0.295,-0L0.181,-0L0.074,-0.545L0.184,-0.545L0.252,-0.126L0.257,-0.126L0.465,-0.545L0.584,-0.545Z" style="fill:rgb(112,112,112);fill-rule:nonzero;"/>
            </g>
            <g transform="matrix(11.6944,0,0,11.6944,288.644,289.218)">
                <path d="M0.26,0.011C0.206,0.011 0.162,-0 0.127,-0.024C0.092,-0.047 0.068,-0.079 0.054,-0.121C0.04,-0.163 0.038,-0.213 0.047,-0.269C0.056,-0.325 0.075,-0.374 0.103,-0.417C0.131,-0.46 0.165,-0.493 0.207,-0.517C0.249,-0.541 0.295,-0.553 0.346,-0.553C0.377,-0.553 0.406,-0.547 0.433,-0.537C0.46,-0.527 0.484,-0.511 0.503,-0.489C0.522,-0.468 0.535,-0.439 0.543,-0.405C0.55,-0.37 0.55,-0.328 0.542,-0.278L0.536,-0.241L0.102,-0.241L0.114,-0.32L0.444,-0.32C0.449,-0.348 0.447,-0.373 0.44,-0.395C0.432,-0.416 0.419,-0.433 0.401,-0.446C0.383,-0.459 0.36,-0.465 0.332,-0.465C0.304,-0.465 0.277,-0.457 0.253,-0.442C0.228,-0.427 0.207,-0.409 0.191,-0.386C0.174,-0.363 0.164,-0.339 0.16,-0.314L0.147,-0.241C0.141,-0.202 0.142,-0.17 0.151,-0.146C0.159,-0.122 0.174,-0.104 0.195,-0.093C0.217,-0.082 0.243,-0.077 0.275,-0.077C0.296,-0.077 0.315,-0.08 0.333,-0.085C0.35,-0.091 0.366,-0.1 0.38,-0.111C0.393,-0.123 0.405,-0.137 0.414,-0.155L0.511,-0.136C0.498,-0.107 0.48,-0.081 0.455,-0.059C0.431,-0.037 0.402,-0.02 0.369,-0.007C0.336,0.005 0.3,0.011 0.26,0.011Z" style="fill:rgb(112,112,112);fill-rule:nonzero;"/>
            </g>
            <g transform="matrix(11.6944,0,0,11.6944,295.528,289.218)">
                <path d="M0.253,-0.727L0.132,-0L0.026,-0L0.147,-0.727L0.253,-0.727Z" style="fill:rgb(112,112,112);fill-rule:nonzero;"/>
            </g>
            <g transform="matrix(11.6944,0,0,11.6944,298.438,289.218)">
                <path d="M0.258,0.011C0.206,0.011 0.163,-0.001 0.128,-0.025C0.093,-0.049 0.069,-0.082 0.055,-0.125C0.041,-0.168 0.038,-0.218 0.047,-0.275C0.056,-0.331 0.075,-0.379 0.102,-0.421C0.129,-0.463 0.164,-0.495 0.205,-0.518C0.246,-0.541 0.292,-0.553 0.343,-0.553C0.395,-0.553 0.438,-0.541 0.473,-0.517C0.507,-0.493 0.532,-0.459 0.546,-0.416C0.56,-0.373 0.563,-0.323 0.554,-0.266C0.545,-0.21 0.526,-0.162 0.499,-0.12C0.471,-0.079 0.437,-0.046 0.396,-0.023C0.355,-0 0.309,0.011 0.258,0.011ZM0.264,-0.078C0.298,-0.078 0.328,-0.087 0.354,-0.105C0.379,-0.123 0.4,-0.147 0.416,-0.177C0.432,-0.207 0.443,-0.239 0.449,-0.275C0.454,-0.309 0.454,-0.341 0.449,-0.369C0.443,-0.398 0.431,-0.421 0.413,-0.438C0.395,-0.455 0.37,-0.464 0.337,-0.464C0.303,-0.464 0.273,-0.455 0.247,-0.437C0.222,-0.419 0.201,-0.394 0.185,-0.364C0.169,-0.334 0.158,-0.302 0.152,-0.266C0.147,-0.232 0.147,-0.201 0.152,-0.172C0.158,-0.144 0.17,-0.121 0.188,-0.104C0.206,-0.087 0.232,-0.078 0.264,-0.078Z" style="fill:rgb(112,112,112);fill-rule:nonzero;"/>
            </g>
            <g transform="matrix(11.6944,0,0,11.6944,305.482,289.218)">
                <path d="M-0.008,0.205L0.118,-0.545L0.221,-0.545L0.207,-0.457L0.216,-0.457C0.224,-0.468 0.235,-0.481 0.249,-0.496C0.263,-0.511 0.281,-0.524 0.304,-0.536C0.326,-0.547 0.355,-0.553 0.388,-0.553C0.432,-0.553 0.47,-0.541 0.5,-0.519C0.531,-0.497 0.553,-0.465 0.566,-0.423C0.579,-0.381 0.58,-0.331 0.571,-0.272C0.561,-0.213 0.543,-0.162 0.516,-0.12C0.489,-0.078 0.457,-0.046 0.419,-0.023C0.381,-0.001 0.34,0.011 0.296,0.011C0.262,0.011 0.236,0.005 0.217,-0.006C0.198,-0.017 0.184,-0.03 0.175,-0.045C0.165,-0.06 0.158,-0.073 0.154,-0.085L0.147,-0.085L0.099,0.205L-0.008,0.205ZM0.177,-0.273C0.17,-0.234 0.17,-0.201 0.177,-0.172C0.183,-0.143 0.195,-0.12 0.214,-0.104C0.232,-0.088 0.257,-0.08 0.287,-0.08C0.319,-0.08 0.347,-0.088 0.371,-0.105C0.395,-0.122 0.415,-0.145 0.43,-0.174C0.446,-0.203 0.457,-0.236 0.463,-0.273C0.469,-0.309 0.469,-0.341 0.463,-0.37C0.457,-0.398 0.445,-0.421 0.426,-0.437C0.408,-0.454 0.382,-0.462 0.35,-0.462C0.32,-0.462 0.292,-0.454 0.268,-0.439C0.244,-0.423 0.225,-0.401 0.209,-0.372C0.194,-0.344 0.183,-0.311 0.177,-0.273Z" style="fill:rgb(112,112,112);fill-rule:nonzero;"/>
            </g>
            <g transform="matrix(11.6944,0,0,11.6944,312.709,289.218)">
                <path d="M0.026,-0L0.117,-0.545L0.219,-0.545L0.204,-0.457L0.211,-0.457C0.228,-0.487 0.25,-0.51 0.279,-0.527C0.307,-0.544 0.34,-0.553 0.376,-0.553C0.412,-0.553 0.441,-0.544 0.463,-0.527C0.485,-0.51 0.499,-0.487 0.506,-0.457L0.512,-0.457C0.53,-0.486 0.554,-0.509 0.586,-0.527C0.617,-0.544 0.652,-0.553 0.692,-0.553C0.741,-0.553 0.778,-0.537 0.805,-0.506C0.831,-0.475 0.839,-0.428 0.829,-0.366L0.768,-0L0.661,-0L0.721,-0.356C0.727,-0.393 0.721,-0.42 0.704,-0.436C0.687,-0.453 0.664,-0.461 0.636,-0.461C0.601,-0.461 0.573,-0.45 0.55,-0.429C0.527,-0.408 0.513,-0.381 0.508,-0.348L0.45,-0L0.344,-0L0.405,-0.362C0.409,-0.392 0.404,-0.416 0.389,-0.434C0.373,-0.452 0.351,-0.461 0.321,-0.461C0.301,-0.461 0.281,-0.455 0.263,-0.445C0.244,-0.434 0.228,-0.42 0.214,-0.401C0.201,-0.382 0.193,-0.361 0.189,-0.336L0.132,-0L0.026,-0Z" style="fill:rgb(112,112,112);fill-rule:nonzero;"/>
            </g>
            <g transform="matrix(11.6944,0,0,11.6944,323.041,289.218)">
                <path d="M0.26,0.011C0.206,0.011 0.162,-0 0.127,-0.024C0.092,-0.047 0.068,-0.079 0.054,-0.121C0.04,-0.163 0.038,-0.213 0.047,-0.269C0.056,-0.325 0.075,-0.374 0.103,-0.417C0.131,-0.46 0.165,-0.493 0.207,-0.517C0.249,-0.541 0.295,-0.553 0.346,-0.553C0.377,-0.553 0.406,-0.547 0.433,-0.537C0.46,-0.527 0.484,-0.511 0.503,-0.489C0.522,-0.468 0.535,-0.439 0.543,-0.405C0.55,-0.37 0.55,-0.328 0.542,-0.278L0.536,-0.241L0.102,-0.241L0.114,-0.32L0.444,-0.32C0.449,-0.348 0.447,-0.373 0.44,-0.395C0.432,-0.416 0.419,-0.433 0.401,-0.446C0.383,-0.459 0.36,-0.465 0.332,-0.465C0.304,-0.465 0.277,-0.457 0.253,-0.442C0.228,-0.427 0.207,-0.409 0.191,-0.386C0.174,-0.363 0.164,-0.339 0.16,-0.314L0.147,-0.241C0.141,-0.202 0.142,-0.17 0.151,-0.146C0.159,-0.122 0.174,-0.104 0.195,-0.093C0.217,-0.082 0.243,-0.077 0.275,-0.077C0.296,-0.077 0.315,-0.08 0.333,-0.085C0.35,-0.091 0.366,-0.1 0.38,-0.111C0.393,-0.123 0.405,-0.137 0.414,-0.155L0.511,-0.136C0.498,-0.107 0.48,-0.081 0.455,-0.059C0.431,-0.037 0.402,-0.02 0.369,-0.007C0.336,0.005 0.3,0.011 0.26,0.011Z" style="fill:rgb(112,112,112);fill-rule:nonzero;"/>
            </g>
            <g transform="matrix(11.6944,0,0,11.6944,329.925,289.218)">
                <path d="M0.186,-0.324L0.132,-0L0.026,-0L0.117,-0.545L0.219,-0.545L0.204,-0.457L0.211,-0.457C0.228,-0.486 0.252,-0.509 0.282,-0.526C0.312,-0.544 0.347,-0.553 0.388,-0.553C0.425,-0.553 0.456,-0.545 0.481,-0.529C0.507,-0.514 0.525,-0.491 0.535,-0.46C0.546,-0.43 0.547,-0.392 0.54,-0.347L0.482,-0L0.375,-0L0.431,-0.334C0.438,-0.374 0.432,-0.405 0.416,-0.427C0.399,-0.449 0.373,-0.461 0.336,-0.461C0.312,-0.461 0.289,-0.455 0.268,-0.444C0.247,-0.434 0.229,-0.418 0.215,-0.398C0.201,-0.378 0.191,-0.353 0.186,-0.324Z" style="fill:rgb(112,112,112);fill-rule:nonzero;"/>
            </g>
            <g transform="matrix(11.6944,0,0,11.6944,336.912,289.218)">
                <path d="M0.372,-0.545L0.358,-0.46L0.06,-0.46L0.074,-0.545L0.372,-0.545ZM0.175,-0.676L0.281,-0.676L0.195,-0.16C0.192,-0.14 0.192,-0.124 0.197,-0.114C0.201,-0.103 0.208,-0.096 0.218,-0.093C0.227,-0.089 0.237,-0.087 0.249,-0.087C0.258,-0.087 0.265,-0.088 0.271,-0.089C0.278,-0.09 0.283,-0.091 0.287,-0.092L0.292,-0.004C0.285,-0.002 0.276,0.001 0.264,0.003C0.252,0.006 0.237,0.007 0.22,0.007C0.192,0.008 0.167,0.003 0.144,-0.008C0.122,-0.018 0.105,-0.035 0.094,-0.056C0.083,-0.078 0.08,-0.105 0.086,-0.138L0.175,-0.676Z" style="fill:rgb(112,112,112);fill-rule:nonzero;"/>
            </g>
            <g transform="matrix(11.6944,0,0,11.6944,341.261,289.218)">
            </g>
        </g>
    </g>
</svg>
