<?xml version="1.0" encoding="UTF-8" standalone="no"?>
<!DOCTYPE svg PUBLIC "-//W3C//DTD SVG 1.1//EN" "http://www.w3.org/Graphics/SVG/1.1/DTD/svg11.dtd">
<svg width="100%" height="100%" viewBox="0 0 117 83" version="1.1" xmlns="http://www.w3.org/2000/svg" xmlns:xlink="http://www.w3.org/1999/xlink" xml:space="preserve" xmlns:serif="http://www.serif.com/" style="fill-rule:evenodd;clip-rule:evenodd;stroke-linejoin:round;stroke-miterlimit:2;">
    <g transform="matrix(1,0,0,1,-140,-43.5763)">
        <g transform="matrix(1,0,0,1,-183.743,-140)">
            <g transform="matrix(1.3932,0,0,1.3932,-572.871,-271.118)">
                <path d="M686.601,326.367L696.198,341.5L710,341.5L700,326.367L686.601,326.367Z" style="fill:rgb(0,227,253);"/>
            </g>
            <g transform="matrix(-1.3932,-1.70618e-16,1.70618e-16,-1.3932,1336.57,680.437)">
                <path d="M686.601,326.367L696.198,341.5L710,341.5L700,326.367L686.601,326.367Z" style="fill:rgb(0,227,253);"/>
            </g>
            <g transform="matrix(1.3932,0,0,-1.3932,-572.871,680.437)">
                <path d="M686.601,326.367L696.198,341.5L710,341.5L700,326.367L686.601,326.367Z" style="fill:rgb(255,89,126);"/>
            </g>
            <g transform="matrix(-1.3932,-1.70618e-16,-1.70618e-16,1.3932,1336.57,-271.118)">
                <path d="M686.601,326.367L696.198,341.5L710,341.5L700,326.367L686.601,326.367Z" style="fill:rgb(255,89,126);"/>
            </g>
        </g>
        <g transform="matrix(2.30549,0,0,2.30549,-707.611,-431.069)">
            <g transform="matrix(9.94584,0,0,9.94584,367.48,234.687)">
                <path d="M0.232,-0L0.017,-0.727L0.237,-0.727L0.337,-0.28L0.342,-0.28L0.46,-0.727L0.634,-0.727L0.751,-0.278L0.757,-0.278L0.857,-0.727L1.077,-0.727L0.862,-0L0.673,-0L0.55,-0.406L0.544,-0.406L0.42,-0L0.232,-0Z" style="fill-rule:nonzero;"/>
            </g>
            <g transform="matrix(9.94584,0,0,9.94584,378.019,234.687)">
                <path d="M0.726,-0.455L0.526,-0.455C0.524,-0.471 0.52,-0.486 0.514,-0.5C0.508,-0.513 0.5,-0.525 0.49,-0.535C0.479,-0.544 0.466,-0.552 0.451,-0.557C0.436,-0.563 0.42,-0.565 0.401,-0.565C0.367,-0.565 0.339,-0.557 0.317,-0.541C0.294,-0.525 0.276,-0.502 0.265,-0.472C0.253,-0.442 0.247,-0.406 0.247,-0.364C0.247,-0.319 0.253,-0.282 0.265,-0.252C0.277,-0.222 0.294,-0.2 0.317,-0.184C0.34,-0.169 0.367,-0.162 0.399,-0.162C0.417,-0.162 0.434,-0.164 0.448,-0.169C0.463,-0.173 0.475,-0.18 0.486,-0.189C0.496,-0.198 0.505,-0.208 0.512,-0.221C0.519,-0.233 0.523,-0.247 0.526,-0.263L0.726,-0.261C0.723,-0.231 0.715,-0.199 0.7,-0.167C0.685,-0.136 0.664,-0.106 0.637,-0.079C0.609,-0.052 0.575,-0.031 0.535,-0.015C0.495,0.002 0.448,0.01 0.395,0.01C0.328,0.01 0.268,-0.004 0.215,-0.033C0.162,-0.062 0.121,-0.104 0.09,-0.159C0.059,-0.215 0.044,-0.283 0.044,-0.364C0.044,-0.445 0.06,-0.513 0.091,-0.568C0.122,-0.624 0.164,-0.666 0.217,-0.694C0.27,-0.723 0.33,-0.737 0.395,-0.737C0.441,-0.737 0.483,-0.731 0.522,-0.718C0.56,-0.706 0.594,-0.688 0.623,-0.664C0.652,-0.64 0.676,-0.61 0.694,-0.575C0.711,-0.54 0.722,-0.5 0.726,-0.455Z" style="fill-rule:nonzero;"/>
            </g>
            <g transform="matrix(9.94584,0,0,9.94584,385.662,234.687)">
                <path d="M0.047,-0L0.047,-0.727L0.361,-0.727C0.415,-0.727 0.462,-0.717 0.502,-0.698C0.543,-0.678 0.574,-0.65 0.597,-0.613C0.619,-0.576 0.631,-0.532 0.631,-0.48C0.631,-0.428 0.619,-0.384 0.596,-0.348C0.573,-0.313 0.541,-0.286 0.499,-0.267C0.458,-0.249 0.409,-0.24 0.354,-0.24L0.166,-0.24L0.166,-0.393L0.314,-0.393C0.337,-0.393 0.357,-0.396 0.373,-0.402C0.39,-0.408 0.403,-0.417 0.411,-0.43C0.42,-0.443 0.425,-0.46 0.425,-0.48C0.425,-0.501 0.42,-0.518 0.411,-0.531C0.403,-0.544 0.39,-0.554 0.373,-0.56C0.357,-0.566 0.337,-0.57 0.314,-0.57L0.244,-0.57L0.244,-0L0.047,-0ZM0.473,-0.334L0.655,-0L0.44,-0L0.263,-0.334L0.473,-0.334Z" style="fill-rule:nonzero;"/>
            </g>
            <g transform="matrix(9.94584,0,0,9.94584,392.302,234.687)">
                <path d="M0.047,-0L0.047,-0.727L0.571,-0.727L0.571,-0.568L0.244,-0.568L0.244,-0.443L0.544,-0.443L0.544,-0.284L0.244,-0.284L0.244,-0.159L0.57,-0.159L0.57,-0L0.047,-0Z" style="fill-rule:nonzero;"/>
            </g>
            <g transform="matrix(9.94584,0,0,9.94584,398.49,234.687)">
                <path d="M0.236,-0L0.023,-0L0.263,-0.727L0.533,-0.727L0.773,-0L0.56,-0L0.401,-0.527L0.395,-0.527L0.236,-0ZM0.196,-0.287L0.597,-0.287L0.597,-0.139L0.196,-0.139L0.196,-0.287Z" style="fill-rule:nonzero;"/>
            </g>
            <g transform="matrix(9.94584,0,0,9.94584,405.554,234.687)">
                <path d="M0.027,-0.568L0.027,-0.727L0.659,-0.727L0.659,-0.568L0.44,-0.568L0.44,-0L0.246,-0L0.246,-0.568L0.027,-0.568Z" style="fill-rule:nonzero;"/>
            </g>
            <g transform="matrix(9.94584,0,0,9.94584,412.378,234.687)">
                <path d="M0.047,-0L0.047,-0.727L0.571,-0.727L0.571,-0.568L0.244,-0.568L0.244,-0.443L0.544,-0.443L0.544,-0.284L0.244,-0.284L0.244,-0.159L0.57,-0.159L0.57,-0L0.047,-0Z" style="fill-rule:nonzero;"/>
            </g>
            <g transform="matrix(9.94584,0,0,9.94584,418.566,234.687)">
            </g>
        </g>
        <g transform="matrix(0.221599,0,0,0.221599,17.9159,32.0927)">
            <path d="M571.449,391.923L567.685,392.988C567.448,392.361 567.102,391.748 566.646,391.15C566.19,390.553 565.572,390.058 564.791,389.668C564.009,389.277 563.009,389.082 561.79,389.082C560.121,389.082 558.733,389.464 557.626,390.227C556.519,390.991 555.966,391.958 555.966,393.13C555.966,394.172 556.345,394.994 557.102,395.598C557.86,396.202 559.044,396.705 560.654,397.107L564.702,398.102C567.14,398.694 568.957,399.596 570.153,400.809C571.348,402.023 571.946,403.582 571.946,405.488C571.946,407.051 571.499,408.447 570.606,409.678C569.712,410.91 568.466,411.88 566.868,412.59C565.27,413.301 563.412,413.656 561.293,413.656C558.511,413.656 556.209,413.052 554.386,411.845C552.563,410.637 551.409,408.874 550.923,406.553L554.901,405.559C555.28,407.027 555.999,408.128 557.058,408.862C558.118,409.596 559.505,409.963 561.222,409.963C563.175,409.963 564.729,409.545 565.883,408.711C567.037,407.876 567.614,406.873 567.614,405.701C567.614,404.754 567.282,403.958 566.62,403.313C565.957,402.668 564.939,402.186 563.566,401.866L559.02,400.801C556.522,400.209 554.691,399.288 553.525,398.04C552.359,396.791 551.776,395.225 551.776,393.343C551.776,391.804 552.211,390.443 553.081,389.259C553.951,388.076 555.14,387.146 556.65,386.472C558.159,385.797 559.872,385.46 561.79,385.46C564.489,385.46 566.611,386.052 568.155,387.235C569.7,388.419 570.798,389.981 571.449,391.923Z" style="fill:rgb(107,107,107);fill-rule:nonzero;"/>
            <path d="M589.347,413.656C586.885,413.656 584.727,413.07 582.875,411.898C581.022,410.726 579.578,409.087 578.542,406.98C577.507,404.873 576.989,402.41 576.989,399.593C576.989,396.752 577.507,394.272 578.542,392.154C579.578,390.035 581.022,388.389 582.875,387.218C584.727,386.046 586.885,385.46 589.347,385.46C591.809,385.46 593.966,386.046 595.819,387.218C597.671,388.389 599.115,390.035 600.151,392.154C601.187,394.272 601.705,396.752 601.705,399.593C601.705,402.41 601.187,404.873 600.151,406.98C599.115,409.087 597.671,410.726 595.819,411.898C593.966,413.07 591.809,413.656 589.347,413.656ZM589.347,409.892C591.217,409.892 592.756,409.412 593.963,408.453C595.171,407.494 596.064,406.234 596.644,404.671C597.224,403.109 597.514,401.416 597.514,399.593C597.514,397.77 597.224,396.072 596.644,394.497C596.064,392.923 595.171,391.651 593.963,390.68C592.756,389.709 591.217,389.224 589.347,389.224C587.477,389.224 585.938,389.709 584.73,390.68C583.523,391.651 582.629,392.923 582.049,394.497C581.469,396.072 581.179,397.77 581.179,399.593C581.179,401.416 581.469,403.109 582.049,404.671C582.629,406.234 583.523,407.494 584.73,408.453C585.938,409.412 587.477,409.892 589.347,409.892Z" style="fill:rgb(107,107,107);fill-rule:nonzero;"/>
            <path d="M620.242,385.815L620.242,389.366L605.54,389.366L605.54,385.815L620.242,385.815ZM609.943,413.088L609.943,382.051C609.943,380.488 610.31,379.186 611.044,378.144C611.778,377.103 612.731,376.321 613.903,375.801C615.075,375.28 616.312,375.019 617.614,375.019C618.644,375.019 619.484,375.102 620.135,375.268C620.786,375.434 621.272,375.588 621.591,375.73L620.384,379.352C620.171,379.281 619.878,379.192 619.505,379.085C619.132,378.979 618.644,378.926 618.04,378.926C616.655,378.926 615.658,379.275 615.048,379.973C614.439,380.672 614.134,381.695 614.134,383.045L614.134,413.088L609.943,413.088Z" style="fill:rgb(107,107,107);fill-rule:nonzero;"/>
            <path d="M637.997,385.815L637.997,389.366L623.864,389.366L623.864,385.815L637.997,385.815ZM627.983,379.281L632.173,379.281L632.173,405.275C632.173,406.459 632.348,407.344 632.697,407.93C633.046,408.515 633.496,408.906 634.047,409.101C634.597,409.297 635.18,409.394 635.796,409.394C636.257,409.394 636.636,409.368 636.932,409.314C637.228,409.261 637.465,409.217 637.642,409.181L638.495,412.945C638.21,413.052 637.814,413.162 637.305,413.274C636.796,413.386 636.151,413.443 635.37,413.443C634.186,413.443 633.029,413.188 631.898,412.679C630.768,412.17 629.833,411.395 629.093,410.353C628.353,409.311 627.983,407.998 627.983,406.411L627.983,379.281Z" style="fill:rgb(107,107,107);fill-rule:nonzero;"/>
            <path d="M650.497,413.088L642.188,385.815L646.591,385.815L652.486,406.695L652.77,406.695L658.594,385.815L663.068,385.815L668.821,406.624L669.105,406.624L675,385.815L679.404,385.815L671.094,413.088L666.975,413.088L661.009,392.136L660.583,392.136L654.617,413.088L650.497,413.088Z" style="fill:rgb(107,107,107);fill-rule:nonzero;"/>
            <path d="M692.969,413.727C691.241,413.727 689.672,413.398 688.264,412.741C686.855,412.084 685.736,411.131 684.908,409.883C684.079,408.634 683.665,407.122 683.665,405.346C683.665,403.784 683.973,402.514 684.588,401.537C685.204,400.561 686.026,399.794 687.056,399.238C688.086,398.682 689.225,398.265 690.474,397.986C691.723,397.708 692.981,397.486 694.247,397.32C695.905,397.107 697.251,396.945 698.287,396.832C699.323,396.72 700.08,396.527 700.56,396.255C701.039,395.983 701.279,395.509 701.279,394.835L701.279,394.693C701.279,392.941 700.802,391.579 699.849,390.609C698.896,389.638 697.455,389.153 695.526,389.153C693.525,389.153 691.957,389.591 690.821,390.467C689.684,391.343 688.885,392.278 688.423,393.272L684.446,391.852C685.156,390.195 686.106,388.901 687.296,387.972C688.486,387.043 689.788,386.392 691.202,386.019C692.617,385.646 694.011,385.46 695.384,385.46C696.26,385.46 697.269,385.563 698.411,385.77C699.553,385.978 700.66,386.401 701.731,387.04C702.803,387.679 703.693,388.644 704.404,389.934C705.114,391.224 705.469,392.953 705.469,395.119L705.469,413.088L701.279,413.088L701.279,409.394L701.066,409.394C700.781,409.986 700.308,410.619 699.645,411.294C698.982,411.969 698.1,412.543 696.999,413.017C695.899,413.49 694.555,413.727 692.969,413.727ZM693.608,409.963C695.265,409.963 696.665,409.637 697.807,408.986C698.95,408.335 699.814,407.494 700.4,406.465C700.986,405.435 701.279,404.352 701.279,403.215L701.279,399.38C701.101,399.593 700.713,399.786 700.116,399.957C699.518,400.129 698.831,400.277 698.056,400.401C697.281,400.525 696.529,400.632 695.801,400.721C695.073,400.809 694.484,400.883 694.034,400.943C692.945,401.085 691.93,401.313 690.989,401.626C690.048,401.94 689.291,402.407 688.716,403.029C688.142,403.65 687.855,404.494 687.855,405.559C687.855,407.015 688.397,408.113 689.48,408.853C690.563,409.593 691.939,409.963 693.608,409.963Z" style="fill:rgb(107,107,107);fill-rule:nonzero;"/>
            <path d="M713.139,413.088L713.139,385.815L717.188,385.815L717.188,389.934L717.472,389.934C717.969,388.585 718.869,387.49 720.171,386.649C721.473,385.809 722.941,385.389 724.574,385.389C724.882,385.389 725.267,385.395 725.728,385.406C726.19,385.418 726.539,385.436 726.776,385.46L726.776,389.721C726.634,389.686 726.311,389.629 725.808,389.552C725.305,389.475 724.775,389.437 724.219,389.437C722.893,389.437 721.712,389.712 720.677,390.263C719.641,390.813 718.824,391.571 718.226,392.535C717.629,393.5 717.33,394.598 717.33,395.829L717.33,413.088L713.139,413.088Z" style="fill:rgb(107,107,107);fill-rule:nonzero;"/>
            <path d="M742.33,413.656C739.702,413.656 737.438,413.073 735.538,411.907C733.638,410.741 732.176,409.107 731.153,407.006C730.129,404.905 729.617,402.458 729.617,399.664C729.617,396.871 730.129,394.406 731.153,392.269C732.176,390.132 733.609,388.463 735.449,387.262C737.29,386.06 739.441,385.46 741.904,385.46C743.324,385.46 744.727,385.696 746.112,386.17C747.497,386.643 748.757,387.41 749.894,388.469C751.03,389.529 751.936,390.928 752.61,392.669C753.285,394.409 753.622,396.551 753.622,399.096L753.622,400.872L732.6,400.872L732.6,397.249L749.361,397.249C749.361,395.711 749.056,394.338 748.447,393.13C747.837,391.923 746.973,390.97 745.854,390.271C744.736,389.573 743.419,389.224 741.904,389.224C740.235,389.224 738.793,389.635 737.58,390.458C736.367,391.281 735.435,392.349 734.784,393.663C734.133,394.977 733.807,396.385 733.807,397.889L733.807,400.303C733.807,402.363 734.165,404.106 734.881,405.532C735.597,406.959 736.595,408.042 737.873,408.782C739.151,409.522 740.637,409.892 742.33,409.892C743.431,409.892 744.428,409.735 745.322,409.421C746.215,409.107 746.988,408.634 747.639,408.001C748.29,407.367 748.793,406.577 749.148,405.63L753.196,406.767C752.77,408.14 752.054,409.344 751.048,410.38C750.042,411.416 748.799,412.22 747.319,412.795C745.839,413.369 744.176,413.656 742.33,413.656Z" style="fill:rgb(107,107,107);fill-rule:nonzero;"/>
            <path d="M784.375,413.656C782.102,413.656 780.096,413.079 778.356,411.925C776.616,410.77 775.255,409.137 774.272,407.024C773.29,404.911 772.798,402.41 772.798,399.522C772.798,396.658 773.29,394.172 774.272,392.065C775.255,389.958 776.622,388.33 778.374,387.182C780.126,386.034 782.15,385.46 784.446,385.46C786.222,385.46 787.627,385.753 788.663,386.339C789.699,386.925 790.492,387.587 791.042,388.327C791.593,389.067 792.022,389.674 792.33,390.147L792.685,390.147L792.685,376.724L796.875,376.724L796.875,413.088L792.827,413.088L792.827,408.897L792.33,408.897C792.022,409.394 791.584,410.019 791.016,410.77C790.448,411.522 789.637,412.191 788.583,412.777C787.53,413.363 786.127,413.656 784.375,413.656ZM784.943,409.892C786.624,409.892 788.045,409.451 789.205,408.569C790.365,407.687 791.247,406.462 791.85,404.893C792.454,403.325 792.756,401.511 792.756,399.451C792.756,397.415 792.46,395.631 791.868,394.098C791.276,392.565 790.4,391.369 789.24,390.511C788.08,389.653 786.648,389.224 784.943,389.224C783.168,389.224 781.691,389.677 780.513,390.582C779.336,391.488 778.454,392.713 777.868,394.258C777.282,395.802 776.989,397.534 776.989,399.451C776.989,401.392 777.288,403.153 777.885,404.733C778.483,406.314 779.371,407.568 780.549,408.498C781.727,409.427 783.191,409.892 784.943,409.892Z" style="fill:rgb(107,107,107);fill-rule:nonzero;"/>
            <path d="M816.548,413.656C813.921,413.656 811.657,413.073 809.757,411.907C807.857,410.741 806.395,409.107 805.371,407.006C804.347,404.905 803.835,402.458 803.835,399.664C803.835,396.871 804.347,394.406 805.371,392.269C806.395,390.132 807.827,388.463 809.668,387.262C811.509,386.06 813.66,385.46 816.122,385.46C817.543,385.46 818.946,385.696 820.33,386.17C821.715,386.643 822.976,387.41 824.112,388.469C825.249,389.529 826.154,390.928 826.829,392.669C827.504,394.409 827.841,396.551 827.841,399.096L827.841,400.872L806.818,400.872L806.818,397.249L823.58,397.249C823.58,395.711 823.275,394.338 822.665,393.13C822.056,391.923 821.192,390.97 820.073,390.271C818.954,389.573 817.638,389.224 816.122,389.224C814.453,389.224 813.012,389.635 811.799,390.458C810.586,391.281 809.653,392.349 809.002,393.663C808.351,394.977 808.026,396.385 808.026,397.889L808.026,400.303C808.026,402.363 808.384,404.106 809.1,405.532C809.816,406.959 810.813,408.042 812.092,408.782C813.37,409.522 814.856,409.892 816.548,409.892C817.649,409.892 818.647,409.735 819.54,409.421C820.434,409.107 821.206,408.634 821.857,408.001C822.508,407.367 823.012,406.577 823.367,405.63L827.415,406.767C826.989,408.14 826.273,409.344 825.267,410.38C824.26,411.416 823.017,412.22 821.538,412.795C820.058,413.369 818.395,413.656 816.548,413.656Z" style="fill:rgb(107,107,107);fill-rule:nonzero;"/>
            <path d="M855.682,385.815L845.597,413.088L841.335,413.088L831.25,385.815L835.796,385.815L843.324,407.548L843.608,407.548L851.137,385.815L855.682,385.815Z" style="fill:rgb(107,107,107);fill-rule:nonzero;"/>
            <path d="M871.662,413.656C869.034,413.656 866.77,413.073 864.871,411.907C862.971,410.741 861.509,409.107 860.485,407.006C859.461,404.905 858.949,402.458 858.949,399.664C858.949,396.871 859.461,394.406 860.485,392.269C861.509,390.132 862.941,388.463 864.782,387.262C866.622,386.06 868.774,385.46 871.236,385.46C872.656,385.46 874.059,385.696 875.444,386.17C876.829,386.643 878.09,387.41 879.226,388.469C880.362,389.529 881.268,390.928 881.943,392.669C882.617,394.409 882.955,396.551 882.955,399.096L882.955,400.872L861.932,400.872L861.932,397.249L878.693,397.249C878.693,395.711 878.389,394.338 877.779,393.13C877.169,391.923 876.305,390.97 875.187,390.271C874.068,389.573 872.751,389.224 871.236,389.224C869.567,389.224 868.126,389.635 866.912,390.458C865.699,391.281 864.767,392.349 864.116,393.663C863.465,394.977 863.139,396.385 863.139,397.889L863.139,400.303C863.139,402.363 863.497,404.106 864.214,405.532C864.93,406.959 865.927,408.042 867.205,408.782C868.484,409.522 869.969,409.892 871.662,409.892C872.763,409.892 873.76,409.735 874.654,409.421C875.548,409.107 876.32,408.634 876.971,408.001C877.622,407.367 878.125,406.577 878.48,405.63L882.529,406.767C882.102,408.14 881.386,409.344 880.38,410.38C879.374,411.416 878.131,412.22 876.651,412.795C875.172,413.369 873.509,413.656 871.662,413.656Z" style="fill:rgb(107,107,107);fill-rule:nonzero;"/>
            <rect x="889.347" y="376.724" width="4.19" height="36.364" style="fill:rgb(107,107,107);fill-rule:nonzero;"/>
            <path d="M912.287,413.656C909.825,413.656 907.668,413.07 905.815,411.898C903.963,410.726 902.519,409.087 901.483,406.98C900.447,404.873 899.929,402.41 899.929,399.593C899.929,396.752 900.447,394.272 901.483,392.154C902.519,390.035 903.963,388.389 905.815,387.218C907.668,386.046 909.825,385.46 912.287,385.46C914.749,385.46 916.907,386.046 918.759,387.218C920.612,388.389 922.056,390.035 923.091,392.154C924.127,394.272 924.645,396.752 924.645,399.593C924.645,402.41 924.127,404.873 923.091,406.98C922.056,409.087 920.612,410.726 918.759,411.898C916.907,413.07 914.749,413.656 912.287,413.656ZM912.287,409.892C914.157,409.892 915.696,409.412 916.904,408.453C918.111,407.494 919.005,406.234 919.585,404.671C920.165,403.109 920.455,401.416 920.455,399.593C920.455,397.77 920.165,396.072 919.585,394.497C919.005,392.923 918.111,391.651 916.904,390.68C915.696,389.709 914.157,389.224 912.287,389.224C910.417,389.224 908.878,389.709 907.671,390.68C906.463,391.651 905.57,392.923 904.99,394.497C904.41,396.072 904.12,397.77 904.12,399.593C904.12,401.416 904.41,403.109 904.99,404.671C905.57,406.234 906.463,407.494 907.671,408.453C908.878,409.412 910.417,409.892 912.287,409.892Z" style="fill:rgb(107,107,107);fill-rule:nonzero;"/>
            <path d="M931.037,423.315L931.037,385.815L935.085,385.815L935.085,390.147L935.583,390.147C935.89,389.674 936.319,389.067 936.87,388.327C937.42,387.587 938.213,386.925 939.249,386.339C940.285,385.753 941.691,385.46 943.466,385.46C945.763,385.46 947.787,386.034 949.539,387.182C951.29,388.33 952.658,389.958 953.64,392.065C954.623,394.172 955.114,396.658 955.114,399.522C955.114,402.41 954.623,404.911 953.64,407.024C952.658,409.137 951.296,410.77 949.556,411.925C947.816,413.079 945.81,413.656 943.537,413.656C941.785,413.656 940.383,413.363 939.329,412.777C938.276,412.191 937.465,411.522 936.897,410.77C936.328,410.019 935.89,409.394 935.583,408.897L935.227,408.897L935.227,423.315L931.037,423.315ZM935.156,399.451C935.156,401.511 935.458,403.325 936.062,404.893C936.666,406.462 937.548,407.687 938.708,408.569C939.868,409.451 941.288,409.892 942.969,409.892C944.721,409.892 946.186,409.427 947.363,408.498C948.541,407.568 949.429,406.314 950.027,404.733C950.625,403.153 950.923,401.392 950.923,399.451C950.923,397.534 950.631,395.802 950.045,394.258C949.459,392.713 948.577,391.488 947.399,390.582C946.221,389.677 944.745,389.224 942.969,389.224C941.264,389.224 939.832,389.653 938.672,390.511C937.512,391.369 936.636,392.565 936.044,394.098C935.452,395.631 935.156,397.415 935.156,399.451Z" style="fill:rgb(107,107,107);fill-rule:nonzero;"/>
            <path d="M961.506,413.088L961.506,385.815L965.554,385.815L965.554,390.076L965.909,390.076C966.477,388.62 967.395,387.487 968.661,386.676C969.928,385.865 971.449,385.46 973.225,385.46C975.024,385.46 976.524,385.865 977.726,386.676C978.927,387.487 979.865,388.62 980.54,390.076L980.824,390.076C981.522,388.668 982.57,387.546 983.967,386.711C985.364,385.877 987.039,385.46 988.992,385.46C991.43,385.46 993.425,386.22 994.975,387.741C996.526,389.262 997.301,391.627 997.301,394.835L997.301,413.088L993.111,413.088L993.111,394.835C993.111,392.822 992.561,391.384 991.46,390.52C990.359,389.656 989.063,389.224 987.571,389.224C985.654,389.224 984.168,389.801 983.115,390.955C982.061,392.109 981.534,393.568 981.534,395.332L981.534,413.088L977.273,413.088L977.273,394.409C977.273,392.858 976.77,391.606 975.764,390.653C974.758,389.7 973.461,389.224 971.875,389.224C970.786,389.224 969.771,389.514 968.83,390.094C967.889,390.674 967.131,391.476 966.557,392.5C965.983,393.524 965.696,394.704 965.696,396.042L965.696,413.088L961.506,413.088Z" style="fill:rgb(107,107,107);fill-rule:nonzero;"/>
            <path d="M1016.41,413.656C1013.78,413.656 1011.51,413.073 1009.62,411.907C1007.72,410.741 1006.25,409.107 1005.23,407.006C1004.21,404.905 1003.69,402.458 1003.69,399.664C1003.69,396.871 1004.21,394.406 1005.23,392.269C1006.25,390.132 1007.69,388.463 1009.53,387.262C1011.37,386.06 1013.52,385.46 1015.98,385.46C1017.4,385.46 1018.8,385.696 1020.19,386.17C1021.57,386.643 1022.83,387.41 1023.97,388.469C1025.11,389.529 1026.01,390.928 1026.69,392.669C1027.36,394.409 1027.7,396.551 1027.7,399.096L1027.7,400.872L1006.68,400.872L1006.68,397.249L1023.44,397.249C1023.44,395.711 1023.13,394.338 1022.52,393.13C1021.91,391.923 1021.05,390.97 1019.93,390.271C1018.81,389.573 1017.5,389.224 1015.98,389.224C1014.31,389.224 1012.87,389.635 1011.66,390.458C1010.44,391.281 1009.51,392.349 1008.86,393.663C1008.21,394.977 1007.88,396.385 1007.88,397.889L1007.88,400.303C1007.88,402.363 1008.24,404.106 1008.96,405.532C1009.67,406.959 1010.67,408.042 1011.95,408.782C1013.23,409.522 1014.71,409.892 1016.41,409.892C1017.51,409.892 1018.5,409.735 1019.4,409.421C1020.29,409.107 1021.06,408.634 1021.72,408.001C1022.37,407.367 1022.87,406.577 1023.23,405.63L1027.27,406.767C1026.85,408.14 1026.13,409.344 1025.12,410.38C1024.12,411.416 1022.88,412.22 1021.4,412.795C1019.92,413.369 1018.25,413.656 1016.41,413.656Z" style="fill:rgb(107,107,107);fill-rule:nonzero;"/>
            <path d="M1038.28,396.681L1038.28,413.088L1034.09,413.088L1034.09,385.815L1038.14,385.815L1038.14,390.076L1038.5,390.076C1039.13,388.691 1040.1,387.576 1041.41,386.729C1042.71,385.883 1044.39,385.46 1046.45,385.46C1048.3,385.46 1049.91,385.836 1051.3,386.587C1052.68,387.339 1053.76,388.475 1054.53,389.996C1055.3,391.517 1055.68,393.438 1055.68,395.758L1055.68,413.088L1051.49,413.088L1051.49,396.042C1051.49,393.9 1050.93,392.228 1049.82,391.026C1048.71,389.825 1047.18,389.224 1045.24,389.224C1043.9,389.224 1042.71,389.514 1041.66,390.094C1040.62,390.674 1039.79,391.52 1039.19,392.633C1038.58,393.746 1038.28,395.095 1038.28,396.681Z" style="fill:rgb(107,107,107);fill-rule:nonzero;"/>
            <path d="M1075.21,385.815L1075.21,389.366L1061.08,389.366L1061.08,385.815L1075.21,385.815ZM1065.2,379.281L1069.39,379.281L1069.39,405.275C1069.39,406.459 1069.56,407.344 1069.91,407.93C1070.26,408.515 1070.71,408.906 1071.26,409.101C1071.81,409.297 1072.4,409.394 1073.01,409.394C1073.47,409.394 1073.85,409.368 1074.15,409.314C1074.44,409.261 1074.68,409.217 1074.86,409.181L1075.71,412.945C1075.43,413.052 1075.03,413.162 1074.52,413.274C1074.01,413.386 1073.37,413.443 1072.59,413.443C1071.4,413.443 1070.25,413.188 1069.11,412.679C1067.98,412.17 1067.05,411.395 1066.31,410.353C1065.57,409.311 1065.2,407.998 1065.2,406.411L1065.2,379.281Z" style="fill:rgb(107,107,107);fill-rule:nonzero;"/>
        </g>
    </g>
</svg>
