<?xml version="1.0" standalone="no"?>
<!DOCTYPE svg PUBLIC "-//W3C//DTD SVG 20010904//EN"
 "http://www.w3.org/TR/2001/REC-SVG-20010904/DTD/svg10.dtd">
<svg version="1.0" xmlns="http://www.w3.org/2000/svg"
 width="800.000000pt" height="800.000000pt" viewBox="0 0 800.000000 800.000000"
 preserveAspectRatio="xMidYMid meet">
<metadata>
Created by potrace 1.14, written by Peter Selinger 2001-2017
</metadata>
<g transform="translate(0.000000,800.000000) scale(0.100000,-0.100000)"
fill="#000000" stroke="none">
<path d="M3778 7995 c-2 -1 -43 -5 -93 -9 -85 -6 -106 -8 -215 -21 -52 -7
-268 -44 -290 -50 -8 -2 -26 -6 -40 -9 -139 -24 -455 -123 -640 -199 -140 -58
-160 -67 -290 -132 -399 -200 -717 -431 -1040 -755 -246 -246 -424 -474 -596
-760 -255 -424 -420 -860 -509 -1345 -17 -96 -19 -107 -39 -255 -27 -193 -27
-707 -1 -905 2 -16 7 -52 10 -80 7 -61 13 -95 25 -160 5 -27 12 -63 14 -80 45
-277 191 -707 345 -1015 101 -201 315 -549 386 -626 6 -6 21 -26 35 -44 110
-147 405 -459 539 -570 30 -25 59 -50 65 -55 30 -29 164 -130 266 -202 300
-210 640 -384 975 -500 142 -49 362 -112 450 -129 11 -2 31 -6 45 -9 33 -7 60
-12 101 -19 19 -3 45 -8 59 -11 14 -3 41 -7 60 -10 19 -2 51 -7 70 -10 128
-19 311 -29 535 -29 196 0 420 10 435 19 3 2 33 6 68 9 57 5 278 41 312 51 8
2 26 6 40 9 129 23 431 116 630 194 111 43 372 170 492 238 199 114 476 311
639 454 91 79 350 339 404 404 22 27 45 54 50 60 34 38 133 168 202 266 170
243 328 533 435 800 67 165 168 491 194 624 29 148 49 263 59 341 4 28 8 61
10 75 26 171 25 703 0 895 -2 17 -7 53 -10 80 -7 62 -13 96 -25 160 -5 28 -13
68 -16 90 -12 83 -86 360 -133 497 -202 599 -531 1125 -980 1568 -122 120
-241 229 -285 260 -12 8 -46 35 -77 61 -185 152 -561 378 -824 494 -232 103
-558 210 -760 251 -86 17 -186 36 -215 40 -19 2 -46 7 -60 9 -31 6 -164 22
-250 31 -64 6 -556 14 -562 9z m-1958 -2216 c53 -1 114 -8 140 -17 75 -25 148
-79 177 -129 10 -17 65 -243 87 -353 2 -14 18 -85 35 -159 17 -73 33 -143 35
-155 2 -11 11 -51 20 -87 8 -37 17 -78 20 -90 2 -13 12 -55 21 -94 9 -38 19
-81 21 -95 7 -38 44 -200 55 -245 6 -22 11 -47 13 -55 1 -8 10 -49 19 -90 104
-455 184 -832 223 -1055 17 -102 23 -127 27 -131 3 -4 192 624 247 826 10 36
30 108 45 160 15 52 28 102 30 110 2 8 43 152 90 320 48 168 95 337 105 375
10 39 28 104 40 145 12 41 28 98 35 125 74 273 146 517 158 541 37 70 118 127
212 149 71 16 665 13 725 -4 83 -24 134 -58 182 -122 27 -35 34 -56 228 -789
27 -102 83 -311 124 -465 41 -154 90 -341 110 -415 19 -74 60 -225 90 -335 31
-110 65 -236 77 -280 12 -44 25 -91 30 -105 4 -14 20 -71 35 -127 15 -57 30
-103 33 -103 4 0 21 75 39 168 18 92 62 291 98 442 36 151 67 282 69 290 2 8
19 83 39 165 19 83 66 283 105 445 38 162 97 412 131 555 34 143 63 267 65
275 47 211 64 262 102 305 40 46 117 86 192 100 32 6 962 7 968 1 3 -2 -1 -21
-7 -43 -6 -21 -17 -58 -25 -83 -7 -25 -38 -126 -69 -225 -32 -99 -75 -238 -97
-310 -45 -145 -107 -343 -149 -480 -70 -223 -94 -301 -96 -310 -1 -5 -36 -118
-77 -250 -41 -132 -107 -343 -147 -470 -39 -126 -92 -295 -117 -375 -42 -136
-54 -175 -102 -333 -11 -34 -43 -136 -71 -227 -29 -91 -60 -192 -70 -225 -10
-33 -48 -157 -85 -275 -37 -118 -78 -251 -92 -295 l-25 -81 -512 1 c-460 1
-514 2 -541 18 -78 43 -101 82 -148 242 -166 562 -641 2240 -653 2308 -2 17
-6 33 -8 36 -2 3 -7 24 -10 45 -10 62 -20 64 -30 6 -4 -19 -13 -64 -21 -100
-9 -36 -18 -76 -21 -90 -6 -29 -115 -413 -175 -615 -22 -77 -45 -153 -49 -170
-5 -16 -27 -93 -50 -170 -22 -77 -43 -147 -45 -155 -1 -8 -21 -76 -43 -150
-22 -74 -75 -254 -117 -400 -135 -465 -146 -504 -171 -583 -38 -122 -79 -175
-160 -208 -21 -9 -167 -13 -526 -14 -274 -1 -498 0 -498 2 0 2 -30 99 -66 216
-36 117 -97 311 -134 432 -38 121 -110 353 -160 515 -50 162 -100 322 -110
355 -10 33 -81 263 -158 510 -77 248 -150 482 -162 520 -12 39 -53 171 -92
295 -38 124 -78 252 -88 285 -10 33 -50 161 -88 285 -147 471 -172 553 -172
561 0 5 42 10 93 11 89 3 656 1 847 -3z"/>
</g>
</svg>
