<?xml version="1.0" standalone="no"?>
<!DOCTYPE svg PUBLIC "-//W3C//DTD SVG 20010904//EN"
 "http://www.w3.org/TR/2001/REC-SVG-20010904/DTD/svg10.dtd">
<svg version="1.0" xmlns="http://www.w3.org/2000/svg"
 width="892.000000pt" height="892.000000pt" viewBox="0 0 892.000000 892.000000"
 preserveAspectRatio="xMidYMid meet">
<metadata>
Created by potrace 1.14, written by Peter Selinger 2001-2017
</metadata>
<g transform="translate(0.000000,892.000000) scale(0.100000,-0.100000)"
fill="#000000" stroke="none">
<path d="M9 8693 c0 -120 -2 -696 -4 -1280 l-4 -1063 1297 0 c713 -1 2145 -2
3182 -3 l1885 -2 0 -937 0 -938 115 -1 c63 0 638 -1 1278 -2 l1162 -2 0 2222
0 2223 -4455 0 -4455 0 -1 -217z"/>
<path d="M11 2243 l2 -2242 3236 5 c1780 4 3782 7 4448 8 l1213 1 0 1275 0
1276 -3162 -1 c-1740 -1 -3168 1 -3175 3 -9 3 -12 215 -12 915 0 502 0 932 -1
957 l0 45 -1276 0 -1275 0 2 -2242z"/>
</g>
</svg>
