<svg xmlns="http://www.w3.org/2000/svg" xml:space="preserve" style="fill-rule:evenodd;clip-rule:evenodd;stroke-linejoin:round;stroke-miterlimit:2" viewBox="0 0 449 75"><path d="m158.808 104.584-10.724-36.363h11.008l4.972 22.372h.284l5.895-22.372h8.665l5.895 22.443h.284l4.971-22.443h11.009l-10.725 36.363h-9.446l-6.179-20.312h-.284l-6.179 20.312h-9.446ZM246.507 81.857h-10.014a6.961 6.961 0 0 0-.559-2.255 5.361 5.361 0 0 0-1.243-1.749 5.441 5.441 0 0 0-1.909-1.136c-.746-.266-1.592-.4-2.539-.4-1.657 0-3.057.403-4.199 1.208-1.143.805-2.007 1.959-2.593 3.462-.586 1.503-.879 3.309-.879 5.416 0 2.225.299 4.086.897 5.584.598 1.497 1.465 2.622 2.601 3.373 1.137.752 2.504 1.128 4.102 1.128.911 0 1.728-.116 2.45-.346a5.622 5.622 0 0 0 1.882-1.004 5.304 5.304 0 0 0 1.305-1.589 6.35 6.35 0 0 0 .684-2.104l10.014.071c-.118 1.539-.55 3.105-1.296 4.697s-1.802 3.06-3.169 4.403c-1.368 1.344-3.057 2.424-5.07 3.24-2.012.817-4.35 1.226-7.013 1.226-3.338 0-6.33-.717-8.976-2.149-2.645-1.432-4.735-3.539-6.267-6.321-1.533-2.782-2.3-6.185-2.3-10.209 0-4.049.781-7.461 2.344-10.237 1.562-2.775 3.669-4.876 6.321-6.303 2.651-1.426 5.611-2.139 8.878-2.139 2.296 0 4.409.313 6.339.941 1.929.627 3.622 1.541 5.078 2.743 1.456 1.201 2.628 2.678 3.515 4.43.888 1.752 1.427 3.758 1.616 6.019ZM260.982 104.584V68.221h15.696c2.698 0 5.06.491 7.084 1.474 2.024.982 3.599 2.397 4.723 4.243 1.125 1.847 1.687 4.06 1.687 6.641 0 2.604-.577 4.8-1.731 6.587-1.154 1.787-2.77 3.137-4.848 4.048-2.077.912-4.501 1.368-7.271 1.368h-9.375v-7.671h7.387c1.16 0 2.151-.145 2.974-.435.823-.29 1.456-.755 1.9-1.394.444-.639.666-1.473.666-2.503 0-1.042-.222-1.891-.666-2.548-.444-.657-1.077-1.142-1.9-1.456-.823-.314-1.814-.471-2.974-.471h-3.48v28.48h-9.872Zm21.306-16.69 9.091 16.69h-10.724l-8.878-16.69h10.511ZM304.362 104.584V68.221h26.208v7.954h-16.336v6.25h14.986v7.955h-14.986v6.25h16.265v7.954h-26.137ZM354.916 104.584h-10.653l12.003-36.363h13.494l12.003 36.363h-10.654l-7.954-26.349h-.284l-7.955 26.349Zm-1.988-14.346h20.028v7.386h-20.028v-7.386ZM389.987 76.175v-7.954h31.605v7.954h-10.937v28.409h-9.73V76.175h-10.938ZM435.286 104.584V68.221h26.207v7.954h-16.335v6.25h14.985v7.955h-14.985v6.25h16.264v7.954h-26.136Z" style="fill:#231f20;fill-rule:nonzero" transform="matrix(1.30956 0 0 1.15347 -156.386 -78.117)"/><path d="M175.915 95.471h-4.403c-.283-1.267-.755-2.379-1.417-3.338a9.664 9.664 0 0 0-2.386-2.424 10.412 10.412 0 0 0-3.071-1.483 12.226 12.226 0 0 0-3.489-.497c-2.201 0-4.183.557-5.945 1.669-1.763 1.113-3.148 2.752-4.158 4.919-1.01 2.166-1.487 4.823-1.432 7.972.055 3.149.625 5.806 1.71 7.972 1.086 2.166 2.529 3.806 4.33 4.919 1.8 1.112 3.802 1.669 6.003 1.669a12.02 12.02 0 0 0 3.472-.498 9.96 9.96 0 0 0 3.019-1.482 9.115 9.115 0 0 0 2.301-2.433c.629-.964 1.062-2.074 1.301-3.329h4.403c-.299 1.859-.874 3.522-1.724 4.989a13.172 13.172 0 0 1-3.202 3.738 13.918 13.918 0 0 1-4.336 2.335c-1.606.533-3.327.799-5.162.799-3.101 0-5.872-.758-8.313-2.273-2.442-1.515-4.379-3.669-5.813-6.463-1.434-2.793-2.184-6.108-2.251-9.943-.067-3.835.568-7.15 1.904-9.943 1.336-2.794 3.199-4.948 5.587-6.463 2.388-1.515 5.133-2.273 8.234-2.273 1.835 0 3.565.266 5.19.799a14.543 14.543 0 0 1 4.418 2.335 13.924 13.924 0 0 1 3.332 3.729c.901 1.461 1.534 3.128 1.898 4.998ZM192.454 120.471l-.635-36.364h12.287c2.841 0 5.181.482 7.021 1.447 1.84.965 3.212 2.288 4.117 3.969.906 1.68 1.377 3.592 1.414 5.735.038 2.142-.367 4.042-1.214 5.699s-2.168 2.957-3.962 3.898c-1.795.941-4.101 1.411-6.918 1.411h-9.943l-.07-3.977h9.801c1.942 0 3.502-.284 4.682-.852 1.179-.569 2.029-1.376 2.55-2.424.52-1.048.767-2.299.742-3.755-.025-1.456-.32-2.729-.883-3.818-.564-1.089-1.449-1.932-2.655-2.53-1.206-.598-2.791-.897-4.756-.897h-7.741l.566 32.458h-4.403Zm16.831-16.335 9.234 16.335h-5.114l-9.092-16.335h4.972ZM233.414 120.471l-.635-36.364h21.946l.068 3.906h-17.542l.214 12.287h16.406l.069 3.907h-16.407l.216 12.358h17.827l.068 3.906h-22.23ZM273.806 120.471h-4.617l12.718-36.364h4.545l13.987 36.364h-4.616L284.422 89.86h-.284l-10.332 30.611Zm1.457-14.205h18.608l.068 3.906h-18.608l-.068-3.906ZM312.566 88.013l-.068-3.906h27.273l.068 3.906h-11.435l.567 32.458h-4.404l-.566-32.458h-11.435ZM359.992 84.107l.635 36.364h-4.403l-.635-36.364h4.403ZM379.291 84.107l11.329 30.611h.426l10.262-30.611h4.616l-12.717 36.364h-4.546l-13.987-36.364h4.617ZM421.241 120.471l-.635-36.364h21.946l.068 3.906h-17.543l.215 12.287h16.406l.068 3.907H425.36l.216 12.358h17.827l.068 3.906h-22.23ZM502.614 93.198c-.244-1.799-1.133-3.196-2.665-4.19-1.533-.995-3.4-1.492-5.602-1.492-1.61 0-3.011.261-4.203.781-1.193.521-2.115 1.237-2.768 2.149-.653.911-.969 1.947-.949 3.107.017.971.265 1.802.745 2.495a6.062 6.062 0 0 0 1.832 1.722c.742.456 1.518.829 2.328 1.119.81.29 1.554.524 2.232.701l3.71.994c.951.249 2.014.592 3.188 1.03a15.383 15.383 0 0 1 3.387 1.785 9.494 9.494 0 0 1 2.704 2.885c.719 1.172 1.093 2.61 1.123 4.315.035 1.965-.446 3.74-1.443 5.326-.996 1.586-2.465 2.847-4.408 3.782-1.943.935-4.311 1.403-7.104 1.403-2.605 0-4.864-.42-6.779-1.261-1.914-.84-3.426-2.012-4.535-3.515-1.11-1.504-1.753-3.25-1.929-5.238h4.545c.142 1.373.627 2.506 1.453 3.4.827.894 1.868 1.557 3.124 1.989 1.257.432 2.607.648 4.051.648 1.681 0 3.185-.276 4.513-.826 1.328-.55 2.374-1.32 3.138-2.308.764-.989 1.135-2.146 1.112-3.471-.021-1.208-.376-2.19-1.064-2.948-.688-.757-1.586-1.373-2.695-1.846a28.38 28.38 0 0 0-3.591-1.243l-4.497-1.279c-2.855-.817-5.124-1.982-6.808-3.498-1.684-1.515-2.547-3.497-2.59-5.948-.035-2.036.487-3.814 1.567-5.335 1.081-1.521 2.551-2.705 4.413-3.551 1.861-.847 3.952-1.27 6.272-1.27 2.344 0 4.434.417 6.272 1.252 1.837.834 3.304 1.974 4.401 3.418 1.096 1.444 1.69 3.083 1.781 4.918h-4.261ZM554.457 102.289c.067 3.835-.567 7.15-1.904 9.943-1.336 2.794-3.198 4.948-5.586 6.463-2.389 1.515-5.133 2.273-8.235 2.273-3.101 0-5.872-.758-8.314-2.273-2.441-1.515-4.378-3.669-5.812-6.463-1.434-2.793-2.184-6.108-2.251-9.943-.067-3.835.568-7.15 1.904-9.943 1.336-2.794 3.198-4.948 5.587-6.463 2.388-1.515 5.133-2.273 8.234-2.273s5.873.758 8.314 2.273c2.441 1.515 4.379 3.669 5.812 6.463 1.434 2.793 2.184 6.108 2.251 9.943Zm-4.261 0c-.055-3.149-.625-5.806-1.711-7.972-1.085-2.167-2.528-3.806-4.329-4.919-1.801-1.112-3.802-1.669-6.004-1.669-2.202 0-4.184.557-5.946 1.669-1.762 1.113-3.148 2.752-4.157 4.919-1.01 2.166-1.488 4.823-1.433 7.972.055 3.149.626 5.806 1.711 7.972 1.085 2.166 2.529 3.806 4.329 4.919 1.801 1.112 3.803 1.669 6.004 1.669 2.202 0 4.184-.557 5.946-1.669 1.762-1.113 3.148-2.753 4.158-4.919 1.01-2.166 1.487-4.823 1.432-7.972ZM571.161 120.471l-.635-36.364h21.804l.068 3.906h-17.4l.214 12.287h15.767l.069 3.907h-15.767l.283 16.264h-4.403ZM606.938 88.013l-.068-3.906h27.273l.068 3.906h-11.435l.567 32.458h-4.404l-.566-32.458h-11.435ZM657.201 120.471l-10.578-36.364h4.474l8.117 29.617h.355l7.224-29.617h4.972l8.258 29.617h.356l7.082-29.617h4.474l-9.308 36.364h-4.545l-8.532-28.978h-.284l-7.52 28.978h-4.545ZM708.98 120.471h-4.616l12.717-36.364h4.546l13.987 36.364h-4.617l-11.4-30.611h-.284l-10.333 30.611Zm1.457-14.205h18.608l.068 3.906h-18.608l-.068-3.906ZM750.296 120.471l-.635-36.364h12.287c2.841 0 5.181.482 7.021 1.447 1.84.965 3.212 2.288 4.117 3.969.906 1.68 1.377 3.592 1.415 5.735.037 2.142-.368 4.042-1.215 5.699-.847 1.657-2.168 2.957-3.962 3.898-1.795.941-4.101 1.411-6.918 1.411h-9.943l-.07-3.977h9.801c1.942 0 3.502-.284 4.682-.852 1.179-.569 2.029-1.376 2.55-2.424.52-1.048.768-2.299.742-3.755-.025-1.456-.32-2.729-.883-3.818-.564-1.089-1.449-1.932-2.655-2.53-1.206-.598-2.791-.897-4.756-.897h-7.741l.566 32.458h-4.403Zm16.831-16.335 9.234 16.335h-5.114l-9.092-16.335h4.972ZM791.256 120.471l-.635-36.364h21.946l.068 3.906h-17.542l.214 12.287h16.407l.068 3.907h-16.407l.216 12.358h17.827l.068 3.906h-22.23Z" style="fill:#939598;fill-rule:nonzero" transform="matrix(.61476 0 0 .62356 -51.814 -.797)"/><path d="M43.32 18.903h40.592v9.946H43.32z" style="fill:#2477b9" transform="matrix(.57137 0 0 .9353 -24.752 -17.68)"/><path d="M43.32 18.903h40.592v9.946H43.32z" style="fill:#339b72" transform="matrix(.57137 0 0 .9353 -24.752 -8.377)"/><path d="M43.32 18.903h40.592v9.946H43.32z" style="fill:#c3bca4" transform="matrix(.57137 0 0 .9353 -24.752 .925)"/><path d="M43.32 18.903h40.592v9.946H43.32z" style="fill:#c6ba53" transform="matrix(.57137 0 0 .9353 -24.752 10.227)"/><path d="M43.32 18.903h40.592v9.946H43.32z" style="fill:#c8822e" transform="matrix(.57137 0 0 .9353 -24.752 19.53)"/><path d="M43.32 18.903h40.592v9.946H43.32z" style="fill:#c03b96" transform="matrix(.57137 0 0 .9353 -24.752 28.832)"/><path d="M43.32 18.903h40.592v9.946H43.32z" style="fill:#a52532" transform="matrix(.57137 0 0 .9353 -24.752 38.134)"/><path d="M43.32 18.903h40.592v9.946H43.32z" style="fill:#222f53" transform="matrix(.57137 0 0 .9353 -24.752 47.436)"/></svg>