<?xml version="1.0" encoding="UTF-8" standalone="no"?>
<!DOCTYPE svg PUBLIC "-//W3C//DTD SVG 1.1//EN" "http://www.w3.org/Graphics/SVG/1.1/DTD/svg11.dtd">
<svg width="100%" height="100%" viewBox="0 0 411 82" version="1.1" xmlns="http://www.w3.org/2000/svg" xmlns:xlink="http://www.w3.org/1999/xlink" xml:space="preserve" xmlns:serif="http://www.serif.com/" style="fill-rule:evenodd;clip-rule:evenodd;stroke-linejoin:round;stroke-miterlimit:2;">
    <g transform="matrix(1,0,0,1,-45.058,-96.9087)">
        <g transform="matrix(0.779387,0,0,0.733952,-358.518,242.336)">
            <g transform="matrix(1.68024,0,0,1.57159,268.995,-304.577)">
                <path d="M158.808,104.584L148.084,68.221L159.092,68.221L164.064,90.593L164.348,90.593L170.243,68.221L178.908,68.221L184.803,90.664L185.087,90.664L190.058,68.221L201.067,68.221L190.342,104.584L180.896,104.584L174.717,84.272L174.433,84.272L168.254,104.584L158.808,104.584ZM246.507,81.857L236.493,81.857C236.434,81.079 236.245,80.317 235.934,79.602C235.642,78.941 235.219,78.346 234.691,77.853C234.14,77.347 233.49,76.96 232.782,76.717C232.036,76.451 231.19,76.317 230.243,76.317C228.586,76.317 227.186,76.72 226.044,77.525C224.901,78.33 224.037,79.484 223.451,80.987C222.865,82.49 222.572,84.296 222.572,86.403C222.572,88.628 222.871,90.489 223.469,91.987C224.067,93.484 224.934,94.609 226.07,95.36C227.207,96.112 228.574,96.488 230.172,96.488C231.083,96.488 231.9,96.372 232.622,96.142C233.308,95.931 233.946,95.59 234.504,95.138C235.038,94.699 235.482,94.159 235.809,93.549C236.158,92.893 236.39,92.181 236.493,91.445L246.507,91.516C246.389,93.055 245.957,94.621 245.211,96.213C244.465,97.805 243.409,99.273 242.042,100.616C240.674,101.96 238.985,103.04 236.972,103.856C234.96,104.673 232.622,105.082 229.959,105.082C226.621,105.082 223.629,104.365 220.983,102.933C218.338,101.501 216.248,99.394 214.716,96.612C213.183,93.83 212.416,90.427 212.416,86.403C212.416,82.354 213.197,78.942 214.76,76.166C216.322,73.391 218.429,71.29 221.081,69.863C223.732,68.437 226.692,67.724 229.959,67.724C232.255,67.724 234.368,68.037 236.298,68.665C238.227,69.292 239.92,70.206 241.376,71.408C242.832,72.609 244.004,74.086 244.891,75.838C245.779,77.59 246.318,79.596 246.507,81.857ZM260.982,104.584L260.982,68.221L276.678,68.221C279.376,68.221 281.738,68.712 283.762,69.695C285.786,70.677 287.361,72.092 288.485,73.938C289.61,75.785 290.172,77.998 290.172,80.579C290.172,83.183 289.595,85.379 288.441,87.166C287.287,88.953 285.671,90.303 283.593,91.214C281.516,92.126 279.092,92.582 276.322,92.582L266.947,92.582L266.947,84.911L274.334,84.911C275.494,84.911 276.485,84.766 277.308,84.476C278.131,84.186 278.764,83.721 279.208,83.082C279.652,82.443 279.874,81.609 279.874,80.579C279.874,79.537 279.652,78.688 279.208,78.031C278.764,77.374 278.131,76.889 277.308,76.575C276.485,76.261 275.494,76.104 274.334,76.104L270.854,76.104L270.854,104.584L260.982,104.584ZM282.288,87.894L291.379,104.584L280.655,104.584L271.777,87.894L282.288,87.894ZM304.362,104.584L304.362,68.221L330.57,68.221L330.57,76.175L314.234,76.175L314.234,82.425L329.22,82.425L329.22,90.38L314.234,90.38L314.234,96.63L330.499,96.63L330.499,104.584L304.362,104.584ZM354.916,104.584L344.263,104.584L356.266,68.221L369.76,68.221L381.763,104.584L371.109,104.584L363.155,78.235L362.871,78.235L354.916,104.584ZM352.928,90.238L372.956,90.238L372.956,97.624L352.928,97.624L352.928,90.238ZM389.987,76.175L389.987,68.221L421.592,68.221L421.592,76.175L410.655,76.175L410.655,104.584L400.925,104.584L400.925,76.175L389.987,76.175ZM435.286,104.584L435.286,68.221L461.493,68.221L461.493,76.175L445.158,76.175L445.158,82.425L460.143,82.425L460.143,90.38L445.158,90.38L445.158,96.63L461.422,96.63L461.422,104.584L435.286,104.584Z" style="fill:rgb(35,31,32);fill-rule:nonzero;"/>
            </g>
        </g>
        <g transform="matrix(0.779387,0,0,0.733952,-358.518,242.336)">
            <g transform="matrix(2.0899,0,0,2.32232,-996.815,291.513)">
                <g transform="matrix(1.96103e-17,0.32026,-1.87118,1.14576e-16,899.254,-190.054)">
                    <rect x="43.32" y="18.903" width="40.592" height="9.946" style="fill:rgb(36,119,185);"/>
                </g>
                <g transform="matrix(1.96103e-17,0.32026,-1.72754,1.05781e-16,877.927,-190.054)">
                    <rect x="43.32" y="18.903" width="40.592" height="9.946" style="fill:rgb(51,155,114);"/>
                </g>
                <g transform="matrix(1.96103e-17,0.32026,-1.72754,1.05781e-16,860.746,-190.054)">
                    <rect x="43.32" y="18.903" width="40.592" height="9.946" style="fill:rgb(195,188,164);"/>
                </g>
                <g transform="matrix(1.96103e-17,0.32026,-1.72754,1.05781e-16,843.564,-190.054)">
                    <rect x="43.32" y="18.903" width="40.592" height="9.946" style="fill:rgb(198,186,83);"/>
                </g>
                <g transform="matrix(1.96103e-17,0.32026,-1.72754,1.05781e-16,826.381,-190.054)">
                    <rect x="43.32" y="18.903" width="40.592" height="9.946" style="fill:rgb(200,130,46);"/>
                </g>
                <g transform="matrix(1.96103e-17,0.32026,-1.72754,1.05781e-16,809.2,-190.054)">
                    <rect x="43.32" y="18.903" width="40.592" height="9.946" style="fill:rgb(192,59,150);"/>
                </g>
                <g transform="matrix(1.96103e-17,0.32026,-1.72754,1.05781e-16,792.019,-190.054)">
                    <rect x="43.32" y="18.903" width="40.592" height="9.946" style="fill:rgb(165,37,50);"/>
                </g>
                <g transform="matrix(1.96103e-17,0.32026,-1.72754,1.05781e-16,774.838,-190.054)">
                    <rect x="43.32" y="18.903" width="40.592" height="9.946" style="fill:rgb(34,47,83);"/>
                </g>
            </g>
        </g>
        <g transform="matrix(0.779387,0,0,0.733952,-358.518,242.336)">
            <g transform="matrix(2.84437,0,0,3.02045,200.589,-539.822)">
                <path d="M220.526,146.733L222.075,146.49C222.163,147.11 222.405,147.586 222.802,147.917C223.2,148.248 223.755,148.413 224.469,148.413C225.188,148.413 225.722,148.267 226.07,147.974C226.418,147.681 226.593,147.337 226.593,146.942C226.593,146.588 226.439,146.31 226.131,146.107C225.917,145.967 225.383,145.79 224.53,145.576C223.381,145.286 222.585,145.035 222.141,144.823C221.697,144.611 221.36,144.318 221.131,143.944C220.902,143.57 220.787,143.156 220.787,142.704C220.787,142.292 220.882,141.91 221.07,141.559C221.259,141.208 221.516,140.917 221.84,140.685C222.084,140.505 222.416,140.352 222.837,140.228C223.258,140.103 223.709,140.04 224.19,140.04C224.916,140.04 225.552,140.145 226.101,140.354C226.649,140.563 227.054,140.846 227.315,141.202C227.576,141.559 227.756,142.036 227.855,142.634L226.323,142.843C226.253,142.367 226.051,141.996 225.718,141.729C225.384,141.462 224.913,141.329 224.304,141.329C223.584,141.329 223.071,141.448 222.763,141.685C222.456,141.923 222.302,142.202 222.302,142.521C222.302,142.724 222.366,142.907 222.493,143.069C222.621,143.237 222.821,143.377 223.094,143.487C223.25,143.545 223.712,143.678 224.478,143.887C225.586,144.183 226.359,144.426 226.797,144.614C227.235,144.803 227.579,145.077 227.828,145.437C228.078,145.796 228.203,146.243 228.203,146.777C228.203,147.299 228.05,147.791 227.746,148.252C227.441,148.713 227.002,149.07 226.427,149.323C225.853,149.575 225.203,149.701 224.478,149.701C223.277,149.701 222.361,149.452 221.732,148.953C221.102,148.454 220.7,147.714 220.526,146.733Z" style="fill-opacity:0.7;"/>
                <path d="M230.908,144.871C230.908,143.159 231.384,141.891 232.335,141.067C233.13,140.383 234.099,140.04 235.242,140.04C236.513,140.04 237.552,140.457 238.358,141.289C239.165,142.122 239.568,143.272 239.568,144.74C239.568,145.93 239.389,146.865 239.033,147.547C238.676,148.229 238.156,148.758 237.475,149.135C236.793,149.513 236.049,149.701 235.242,149.701C233.948,149.701 232.903,149.286 232.105,148.457C231.307,147.627 230.908,146.432 230.908,144.871ZM232.518,144.871C232.518,146.054 232.776,146.941 233.293,147.53C233.809,148.119 234.459,148.413 235.242,148.413C236.02,148.413 236.667,148.117 237.183,147.525C237.7,146.934 237.958,146.031 237.958,144.819C237.958,143.676 237.698,142.81 237.179,142.221C236.659,141.632 236.014,141.337 235.242,141.337C234.459,141.337 233.809,141.63 233.293,142.216C232.776,142.802 232.518,143.687 232.518,144.871Z" style="fill-opacity:0.7;"/>
                <path d="M243.204,149.492L243.204,141.468L241.821,141.468L241.821,140.249L243.204,140.249L243.204,139.266C243.204,138.645 243.26,138.184 243.37,137.882C243.521,137.476 243.786,137.147 244.166,136.894C244.546,136.642 245.079,136.516 245.763,136.516C246.204,136.516 246.692,136.568 247.225,136.672L246.99,138.039C246.665,137.981 246.358,137.952 246.068,137.952C245.592,137.952 245.256,138.053 245.058,138.256C244.861,138.459 244.762,138.839 244.762,139.396L244.762,140.249L246.564,140.249L246.564,141.468L244.762,141.468L244.762,149.492L243.204,149.492Z" style="fill-opacity:0.7;"/>
                <path d="M252.629,148.091L252.855,149.475C252.414,149.568 252.02,149.614 251.671,149.614C251.103,149.614 250.662,149.524 250.349,149.344C250.035,149.164 249.815,148.928 249.687,148.635C249.559,148.342 249.496,147.726 249.496,146.786L249.496,141.468L248.347,141.468L248.347,140.249L249.496,140.249L249.496,137.96L251.053,137.02L251.053,140.249L252.629,140.249L252.629,141.468L251.053,141.468L251.053,146.873C251.053,147.319 251.081,147.607 251.136,147.734C251.191,147.862 251.281,147.963 251.406,148.039C251.531,148.114 251.709,148.152 251.941,148.152C252.115,148.152 252.344,148.132 252.629,148.091Z" style="fill-opacity:0.7;"/>
                <path d="M257.292,149.492L254.464,140.249L256.083,140.249L257.554,145.585L258.102,147.569C258.125,147.47 258.285,146.835 258.581,145.663L260.051,140.249L261.661,140.249L263.045,145.611L263.507,147.377L264.038,145.593L265.622,140.249L267.145,140.249L264.255,149.492L262.628,149.492L261.157,143.957L260.8,142.382L258.929,149.492L257.292,149.492Z" style="fill-opacity:0.7;"/>
                <path d="M275.916,148.352C275.336,148.845 274.778,149.193 274.241,149.397C273.704,149.6 273.128,149.701 272.513,149.701C271.498,149.701 270.717,149.453 270.172,148.957C269.627,148.461 269.354,147.827 269.354,147.055C269.354,146.603 269.457,146.189 269.663,145.815C269.869,145.441 270.139,145.141 270.472,144.914C270.806,144.688 271.182,144.517 271.599,144.401C271.907,144.32 272.371,144.241 272.992,144.166C274.257,144.015 275.188,143.835 275.786,143.626C275.791,143.412 275.794,143.275 275.794,143.217C275.794,142.579 275.646,142.129 275.35,141.868C274.95,141.514 274.355,141.337 273.566,141.337C272.829,141.337 272.285,141.466 271.934,141.725C271.583,141.983 271.324,142.44 271.155,143.095L269.624,142.886C269.763,142.231 269.992,141.701 270.311,141.298C270.63,140.895 271.092,140.584 271.695,140.367C272.299,140.149 272.998,140.04 273.793,140.04C274.582,140.04 275.223,140.133 275.716,140.319C276.209,140.505 276.572,140.738 276.804,141.02C277.036,141.301 277.198,141.656 277.291,142.086C277.344,142.353 277.37,142.834 277.37,143.531L277.37,145.619C277.37,147.076 277.403,147.997 277.47,148.383C277.536,148.768 277.668,149.138 277.866,149.492L276.23,149.492C276.067,149.167 275.963,148.787 275.916,148.352ZM275.786,144.853C275.217,145.086 274.364,145.283 273.227,145.445C272.583,145.538 272.127,145.643 271.86,145.759C271.594,145.875 271.388,146.044 271.243,146.268C271.097,146.491 271.025,146.739 271.025,147.012C271.025,147.43 271.183,147.778 271.499,148.056C271.815,148.335 272.278,148.474 272.887,148.474C273.491,148.474 274.028,148.342 274.498,148.078C274.968,147.814 275.313,147.453 275.533,146.994C275.702,146.641 275.786,146.118 275.786,145.428L275.786,144.853Z" style="fill-opacity:0.7;"/>
                <path d="M281.206,149.492L281.206,140.249L282.616,140.249L282.616,141.651C282.976,140.995 283.308,140.563 283.613,140.354C283.918,140.145 284.253,140.04 284.618,140.04C285.146,140.04 285.683,140.209 286.228,140.545L285.689,141.999C285.306,141.772 284.923,141.659 284.54,141.659C284.198,141.659 283.89,141.762 283.617,141.968C283.345,142.174 283.15,142.46 283.034,142.826C282.86,143.383 282.773,143.992 282.773,144.653L282.773,149.492L281.206,149.492Z" style="fill-opacity:0.7;"/>
                <path d="M294.913,146.516L296.532,146.716C296.276,147.662 295.803,148.396 295.113,148.918C294.423,149.44 293.541,149.701 292.467,149.701C291.115,149.701 290.043,149.285 289.251,148.452C288.459,147.62 288.063,146.452 288.063,144.949C288.063,143.394 288.464,142.187 289.264,141.329C290.065,140.47 291.104,140.04 292.38,140.04C293.616,140.04 294.626,140.461 295.409,141.302C296.192,142.144 296.584,143.327 296.584,144.853C296.584,144.946 296.581,145.086 296.575,145.271L289.682,145.271C289.74,146.287 290.027,147.064 290.544,147.604C291.06,148.143 291.704,148.413 292.476,148.413C293.05,148.413 293.541,148.262 293.947,147.961C294.353,147.659 294.675,147.177 294.913,146.516ZM289.769,143.983L294.93,143.983C294.861,143.206 294.663,142.622 294.338,142.234C293.839,141.63 293.192,141.329 292.398,141.329C291.678,141.329 291.073,141.569 290.583,142.051C290.093,142.533 289.821,143.177 289.769,143.983Z" style="fill-opacity:0.7;"/>
            </g>
        </g>
    </g>
</svg>
