<?xml version="1.0" encoding="utf-8"?>
<!-- Generator: Adobe Illustrator 21.0.0, SVG Export Plug-In . SVG Version: 6.00 Build 0)  -->
<svg version="1.1" id="Layer_1" xmlns="http://www.w3.org/2000/svg" xmlns:xlink="http://www.w3.org/1999/xlink" x="0px" y="0px"
	 viewBox="0 0 100 100" style="enable-background:new 0 0 100 100;" xml:space="preserve">
<style type="text/css">
	.st0{fill:#F38630;}
	.st1{fill:#FFFFFF;}
</style>
<g>
	<g>
		<path class="st0" d="M85.9,19.5H14.6c-0.9,0-1.6,0.7-1.6,1.6v47.7c0,0.9,0.7,1.6,1.6,1.6H43v2l-8.8,2.2C33.5,74.7,33,75.3,33,76v3
			c0,0.9,0.7,1.6,1.6,1.6h31.3c0.9,0,1.6-0.7,1.6-1.6v-3c0-0.7-0.5-1.3-1.2-1.5l-8.8-2.2v-2h28.4c0.9,0,1.6-0.7,1.6-1.6V21.1
			C87.5,20.2,86.8,19.5,85.9,19.5z M84.4,22.6v4.9H16.2v-4.9H84.4z M64.4,77.2v0.3H36.2v-0.3L45,75c0.7-0.2,1.2-0.8,1.2-1.5v-1.7
			h8.2v1.7c0,0.7,0.5,1.3,1.2,1.5L64.4,77.2z M16.2,67.2v-7.5h68.2v7.5H16.2z"/>
		<circle class="st0" cx="50.3" cy="63.2" r="1.6"/>
	</g>
</g>
<g>
	<path class="st1" d="M45.4,37.5c0-0.5-0.2-1-0.6-1.4c-0.7-0.7-2-0.7-2.7,0l-6.5,6.5c-0.4,0.4-0.6,0.9-0.6,1.4s0.2,1,0.6,1.4
		l6.5,6.5c0.4,0.4,0.8,0.6,1.4,0.6s1-0.2,1.4-0.6c0.4-0.4,0.6-0.8,0.6-1.4c0-0.5-0.2-1-0.6-1.4l-5.1-5.1l5.1-5.1
		C45.2,38.5,45.4,38,45.4,37.5z"/>
	<path class="st1" d="M64.9,42.6l-6.5-6.5c-0.7-0.7-2-0.7-2.7,0c-0.4,0.4-0.6,0.8-0.6,1.4c0,0.5,0.2,1,0.6,1.4l5.1,5.1L55.7,49
		c-0.4,0.4-0.6,0.8-0.6,1.4c0,0.5,0.2,1,0.6,1.4c0.4,0.4,0.8,0.6,1.4,0.6s1-0.2,1.4-0.6l6.5-6.5c0.4-0.4,0.6-0.9,0.6-1.4
		C65.5,43.4,65.3,42.9,64.9,42.6z"/>
	<path class="st1" d="M53.5,31.5c-1.1-0.3-2.3,0.4-2.6,1.5l-5.4,20.8c-0.3,1.1,0.4,2.3,1.5,2.6c0.2,0,0.4,0.1,0.5,0.1
		c1,0,1.8-0.7,2.1-1.6L55,34.1c0.1-0.6,0.1-1.1-0.2-1.6C54.5,32,54.1,31.6,53.5,31.5z"/>
</g>
</svg>
