<?xml version="1.0" encoding="utf-8"?>
<!-- Generator: Adobe Illustrator 21.0.0, SVG Export Plug-In . SVG Version: 6.00 Build 0)  -->
<svg version="1.1" id="Layer_1" xmlns="http://www.w3.org/2000/svg" xmlns:xlink="http://www.w3.org/1999/xlink" x="0px" y="0px"
	 viewBox="0 0 100 100" style="enable-background:new 0 0 100 100;" xml:space="preserve">
<style type="text/css">
	.st0{fill:#F38630;}
	.st1{fill:#FFFFFF;}
</style>
<g>
	<g>
		<path class="st0" d="M85.9,19.5H14.6c-0.9,0-1.6,0.7-1.6,1.6v47.7c0,0.9,0.7,1.6,1.6,1.6H43v2l-8.8,2.2C33.5,74.7,33,75.3,33,76v3
			c0,0.9,0.7,1.6,1.6,1.6h31.3c0.9,0,1.6-0.7,1.6-1.6v-3c0-0.7-0.5-1.3-1.2-1.5l-8.8-2.2v-2h28.4c0.9,0,1.6-0.7,1.6-1.6V21.1
			C87.5,20.2,86.8,19.5,85.9,19.5z M84.4,22.6v4.9H16.2v-4.9H84.4z M64.4,77.2v0.3H36.2v-0.3L45,75c0.7-0.2,1.2-0.8,1.2-1.5v-1.7
			h8.2v1.7c0,0.7,0.5,1.3,1.2,1.5L64.4,77.2z M16.2,67.2v-7.5h68.2v7.5H16.2z"/>
		<circle class="st0" cx="50.3" cy="63.2" r="1.6"/>
	</g>
</g>
<g>
	<g>
		<path class="st1" d="M38.7,43.4c0,4.2,2.5,7.9,6,9.6l-5.1-14C39,40.4,38.7,41.9,38.7,43.4z"/>
		<path class="st1" d="M56.6,42.9c0-1.3-0.5-2.2-0.9-3c-0.5-0.9-1.1-1.6-1.1-2.5c0-1,0.7-1.9,1.8-1.9c0,0,0.1,0,0.1,0
			c-1.9-1.7-4.4-2.8-7.2-2.8c-3.7,0-7,1.9-8.9,4.8c0.3,0,0.5,0,0.7,0c1.1,0,2.9-0.1,2.9-0.1c0.6,0,0.6,0.8,0.1,0.9
			c0,0-0.6,0.1-1.2,0.1L46.7,50l2.3-7l-1.7-4.6c-0.6,0-1.1-0.1-1.1-0.1c-0.6,0-0.5-0.9,0.1-0.9c0,0,1.8,0.1,2.8,0.1
			c1.1,0,2.9-0.1,2.9-0.1c0.6,0,0.6,0.8,0.1,0.9c0,0-0.6,0.1-1.2,0.1l3.9,11.5l1.1-3.6C56.2,44.8,56.6,43.8,56.6,42.9z"/>
		<path class="st1" d="M49.6,44.3l-3.2,9.3c1,0.3,2,0.4,3,0.4c1.2,0,2.4-0.2,3.6-0.6c0,0-0.1-0.1-0.1-0.1L49.6,44.3z"/>
		<path class="st1" d="M58.8,38.3c0,0.3,0.1,0.7,0.1,1.1c0,1.1-0.2,2.3-0.8,3.8l-3.3,9.5c3.2-1.9,5.3-5.3,5.3-9.3
			C60.1,41.5,59.6,39.8,58.8,38.3z"/>
		<path class="st1" d="M49.4,30.9c-6.9,0-12.5,5.6-12.5,12.5c0,6.9,5.6,12.5,12.5,12.5c6.9,0,12.5-5.6,12.5-12.5
			C61.8,36.5,56.2,30.9,49.4,30.9z M49.4,55.3c-6.6,0-11.9-5.3-11.9-11.9c0-6.6,5.3-11.9,11.9-11.9c6.6,0,11.9,5.3,11.9,11.9
			C61.3,50,55.9,55.3,49.4,55.3z"/>
	</g>
</g>
</svg>
