<?xml version="1.0" encoding="utf-8"?>
<!-- Generator: Adobe Illustrator 21.0.0, SVG Export Plug-In . SVG Version: 6.00 Build 0)  -->
<svg version="1.1" id="Layer_1" xmlns="http://www.w3.org/2000/svg" xmlns:xlink="http://www.w3.org/1999/xlink" x="0px" y="0px"
	 viewBox="0 0 100 100" style="enable-background:new 0 0 100 100;" xml:space="preserve">
<style type="text/css">
	.st0{fill:#F38630;}
</style>
<g>
	<g>
		<path class="st0" d="M85.9,19.5H14.6c-0.9,0-1.6,0.7-1.6,1.6v47.7c0,0.9,0.7,1.6,1.6,1.6H43v2l-8.8,2.2C33.5,74.7,33,75.3,33,76v3
			c0,0.9,0.7,1.6,1.6,1.6h31.3c0.9,0,1.6-0.7,1.6-1.6v-3c0-0.7-0.5-1.3-1.2-1.5l-8.8-2.2v-2h28.4c0.9,0,1.6-0.7,1.6-1.6V21.1
			C87.5,20.2,86.8,19.5,85.9,19.5z M16.2,30.6h51.2v25.9H16.2V30.6z M69.7,30.6h14.7v25.9H69.7V30.6z M84.4,22.6v4.9H16.2v-4.9H84.4
			z M64.4,77.2v0.3H36.2v-0.3L45,75c0.7-0.2,1.2-0.8,1.2-1.5v-1.7h8.2v1.7c0,0.7,0.5,1.3,1.2,1.5L64.4,77.2z M16.2,67.2v-7.5h68.2
			v7.5H16.2z"/>
		<path class="st0" d="M28.1,34.9h-6.6c-0.6,0-1.1,0.5-1.1,1.1s0.5,1.1,1.1,1.1h6.6c0.6,0,1.1-0.5,1.1-1.1S28.8,34.9,28.1,34.9z"/>
		<path class="st0" d="M73.3,37.1h6.6c0.6,0,1.1-0.5,1.1-1.1s-0.5-1.1-1.1-1.1h-6.6c-0.6,0-1.1,0.5-1.1,1.1S72.7,37.1,73.3,37.1z"/>
		<path class="st0" d="M79.9,38.7h-6.6c-0.6,0-1.1,0.5-1.1,1.1s0.5,1.1,1.1,1.1h6.6c0.6,0,1.1-0.5,1.1-1.1S80.6,38.7,79.9,38.7z"/>
		<path class="st0" d="M28.1,39.8h-6.6c-0.6,0-1.1,0.5-1.1,1.1s0.5,1.1,1.1,1.1h6.6c0.6,0,1.1-0.5,1.1-1.1S28.8,39.8,28.1,39.8z"/>
		<path class="st0" d="M28.1,44.7h-6.6c-0.6,0-1.1,0.5-1.1,1.1s0.5,1.1,1.1,1.1h6.6c0.6,0,1.1-0.5,1.1-1.1S28.8,44.7,28.1,44.7z"/>
		<path class="st0" d="M28.1,49.5h-6.6c-0.6,0-1.1,0.5-1.1,1.1s0.5,1.1,1.1,1.1h6.6c0.6,0,1.1-0.5,1.1-1.1S28.8,49.5,28.1,49.5z"/>
		<path class="st0" d="M57.9,41.1c-0.6,0-1.2,0.1-1.7,0.3c-0.4-1.3-0.7-2.5-0.8-3.3H59v-1.5h-4.4c-0.4,0-0.7,0.3-0.8,0.6
			c-0.1,0.1-0.1,0.3-0.1,0.4c0,0.1,0.1,0.4,0.2,1h-8L45.7,38c0.7-0.1,1.3-0.7,1.3-1.5S46.3,35,45.5,35h-1.6c-0.8,0-1.5,0.7-1.5,1.5
			s0.7,1.5,1.5,1.5h0.2l0.3,1.1L43,41.6c-0.7-0.3-1.5-0.5-2.3-0.5c-3.1,0-5.7,2.5-5.7,5.7s2.5,5.7,5.7,5.7c2.5,0,4.8-1.7,5.5-4.2
			h0.2c0.3,0.7,0.9,1.1,1.6,1.1c1,0,1.8-0.8,1.8-1.8c0-0.2,0-0.5-0.1-0.7l4.9-5.3c0,0.2,0.1,0.3,0.1,0.5c-1.6,1.1-2.5,2.8-2.5,4.7
			c0,3.1,2.5,5.7,5.7,5.7s5.7-2.5,5.7-5.7S61,41.1,57.9,41.1z M40.7,50.9c-2.3,0-4.1-1.9-4.1-4.1s1.9-4.1,4.1-4.1
			c0.5,0,1,0.1,1.5,0.3l-2,3.5c-0.1,0.2-0.1,0.5,0,0.7s0.3,0.4,0.6,0.4l3.8,0.5C44.1,49.7,42.5,50.9,40.7,50.9z M42.2,46.1l1.4-2.4
			c0.8,0.7,1.2,1.7,1.3,2.8L42.2,46.1z M46.5,46.7L46.5,46.7c-0.1-1.7-0.8-3.3-2.1-4.3l0.7-1.2l1.6,5.3
			C46.6,46.5,46.5,46.6,46.5,46.7z M48.2,47.7L48.2,47.7c-0.2,0.2-0.5,0.1-0.5-0.1c0-0.1,0.1-0.2,0.1-0.2h0.1c0.1,0,0.2,0.1,0.2,0.2
			C48.3,47.6,48.2,47.7,48.2,47.7z M48.5,45.9c-0.1,0-0.3-0.1-0.4-0.1l-1.8-5.7h7.5L48.5,45.9z M57.9,50.9c-2.3,0-4.1-1.9-4.1-4.1
			c0-1.2,0.6-2.4,1.5-3.2c0.7,1.7,1.4,3,2.3,3.9c0.3,0.3,0.8,0.3,1.1,0s0.3-0.8,0-1.1c-0.7-0.8-1.4-1.9-2-3.5
			c0.4-0.1,0.8-0.2,1.2-0.2c2.3,0,4.1,1.9,4.1,4.1S60.1,50.9,57.9,50.9z"/>
		<path class="st0" d="M78.4,47.2c-0.4-0.3-0.9-0.5-1.6-0.6h-0.1c-0.5-0.1-0.7-0.2-0.8-0.3c-0.1,0-0.1-0.1-0.1-0.1s0-0.1,0.1-0.1
			c0.2-0.1,0.4-0.2,0.7-0.2c0.4,0,0.7,0.2,1.1,0.4l0.3,0.2h0.2c0.3,0,0.6-0.2,0.7-0.4c0.3-0.4,0.1-0.9-0.3-1.2
			c-0.3-0.2-0.8-0.5-1.3-0.6v-1.2h-1v1.2c-0.5,0-1,0.2-1.4,0.5c-0.5,0.4-0.8,1-0.8,1.6s0.3,1.2,0.9,1.5c0.4,0.3,0.9,0.4,1.5,0.6h0.1
			c0.5,0.1,0.8,0.2,0.9,0.3s0.1,0.1,0.1,0.1c0,0.1-0.1,0.1-0.2,0.2c-0.2,0.1-0.5,0.2-0.8,0.2c-0.5,0-1-0.3-1.3-0.5
			c-0.4-0.3-0.9-0.3-1.3,0.1c-0.3,0.4-0.2,0.9,0.1,1.2c0.4,0.3,1.2,0.8,2.1,0.9v1.1h1v-1.2c0.4-0.1,0.8-0.2,1.1-0.5
			c0.6-0.4,0.9-1,0.9-1.6C79.3,48.2,79,47.6,78.4,47.2z"/>
		<circle class="st0" cx="50.3" cy="63.2" r="1.6"/>
	</g>
</g>
</svg>
